<svg width="150" height="150" viewBox="0 0 150 150" fill="none" xmlns="http://www.w3.org/2000/svg">
<g id="launch-step">
<g id="db">
<path id="Shape" fill-rule="evenodd" clip-rule="evenodd" d="M66.6546 24C43.0977 24 24 29.9623 24 37.3208V48.2512C24 55.6106 43.0977 61.571 66.6546 61.571C90.2103 61.571 109.308 55.6096 109.308 48.2512V37.3208C109.308 29.9623 90.2103 24 66.6546 24V24Z" fill="#4A4A4A"/>
<path id="Shape_2" fill-rule="evenodd" clip-rule="evenodd" d="M66.6645 71.3138C44.1867 71.3138 25.6551 64.9412 24.0346 56.8607C23.9573 57.2464 24.0346 78.0098 24.0346 78.0098C24.0346 86.6334 43.1213 93.6168 66.6645 93.6168C90.2067 93.6168 109.293 86.6312 109.293 78.0098C109.293 78.0098 109.341 57.2453 109.265 56.8607C107.642 64.9423 89.1413 71.3138 66.6645 71.3138V71.3138Z" fill="#4A4A4A"/>
<path id="Shape_3" fill-rule="evenodd" clip-rule="evenodd" d="M66.6646 103.497C44.1868 103.497 25.6508 97.0588 24.0303 88.9065L24.0346 110.259C24.0346 118.964 43.1213 126.014 66.6646 126.014C90.2068 126.014 109.293 118.962 109.293 110.259L109.253 88.9065C107.634 97.0599 89.1424 103.497 66.6646 103.497Z" fill="#4A4A4A"/>
</g>
<path id="Polygon 1" d="M128.25 78.3971L135 74.5L128.25 70.6029L90 48.5192L83.25 44.6221V52.4164V96.5836V104.378L90 100.481L128.25 78.3971Z" fill="#8C0115" stroke="white" stroke-width="9"/>
</g>
</svg>
