<svg width="150" height="150" viewBox="0 0 150 150" fill="none" xmlns="http://www.w3.org/2000/svg">
<g id="settings-step">
<g id="db">
<path id="Shape" fill-rule="evenodd" clip-rule="evenodd" d="M60.6546 24C37.0977 24 18 29.9623 18 37.3208V48.2512C18 55.6106 37.0977 61.571 60.6546 61.571C84.2103 61.571 103.308 55.6096 103.308 48.2512V37.3208C103.308 29.9623 84.2103 24 60.6546 24V24Z" fill="#4A4A4A"/>
<path id="Shape_2" fill-rule="evenodd" clip-rule="evenodd" d="M60.6645 71.3138C38.1867 71.3138 19.6551 64.9412 18.0346 56.8607C17.9573 57.2464 18.0346 78.0098 18.0346 78.0098C18.0346 86.6334 37.1213 93.6168 60.6645 93.6168C84.2067 93.6168 103.293 86.6312 103.293 78.0098C103.293 78.0098 103.341 57.2453 103.265 56.8607C101.642 64.9423 83.1413 71.3138 60.6645 71.3138V71.3138Z" fill="#4A4A4A"/>
<path id="Shape_3" fill-rule="evenodd" clip-rule="evenodd" d="M60.6646 103.497C38.1868 103.497 19.6508 97.0588 18.0303 88.9065L18.0346 110.259C18.0346 118.964 37.1213 126.014 60.6646 126.014C84.2068 126.014 103.293 118.962 103.293 110.259L103.253 88.9065C101.634 97.0599 83.1424 103.497 60.6646 103.497Z" fill="#4A4A4A"/>
</g>
<path id="Vector" d="M134.999 72.7497L135.009 72.7418L135.019 72.7339C137.827 70.5171 138.375 66.7155 136.804 63.8367L136.772 63.7769L136.738 63.718L130.677 53.2336C128.844 49.9686 125.055 49.0546 122.158 50.1082L122.072 50.1393L121.987 50.1733L117.133 52.1231C116.876 51.9682 116.616 51.8172 116.353 51.6702L115.616 46.529C115.134 42.9423 112.046 40.5 108.677 40.5H96.51C93.1405 40.5 90.0529 42.9423 89.5707 46.529L88.832 51.6808C88.5731 51.8267 88.3181 51.9759 88.0667 52.1281L83.1993 50.1733L83.1766 50.1642L83.1538 50.1553C79.9658 48.9078 76.253 50.1316 74.5101 53.2325L68.4579 63.7028C66.6323 66.8266 67.5219 70.6451 70.1678 72.7339L70.1778 72.7418L70.1878 72.7497L74.2857 75.9541C74.2825 76.1072 74.2809 76.2615 74.2809 76.4167C74.2809 76.5719 74.2825 76.7261 74.2857 76.8792L70.1878 80.0837L70.1778 80.0915L70.1678 80.0994C67.3599 82.3162 66.8122 86.1178 68.3825 88.9966L68.4151 89.0564L68.4492 89.1154L74.5096 99.5999C76.3426 102.865 80.1317 103.779 83.0292 102.725L83.1148 102.694L83.1993 102.66L88.0543 100.71C88.311 100.865 88.5708 101.016 88.8335 101.163L89.5707 106.304C90.0529 109.891 93.1405 112.333 96.51 112.333H108.677C112.046 112.333 115.134 109.891 115.616 106.304L116.355 101.153C116.614 101.007 116.869 100.857 117.12 100.705L121.987 102.66L122.01 102.669L122.033 102.678C125.221 103.926 128.934 102.702 130.677 99.6008L136.738 89.1154L136.772 89.0564L136.804 88.9966C138.375 86.1178 137.827 82.3162 135.019 80.0994L135.009 80.0915L134.999 80.0837L130.901 76.8794C130.904 76.7269 130.906 76.5726 130.906 76.4167C130.906 76.2607 130.904 76.1065 130.901 75.954L134.999 72.7497ZM102.593 81.5625C99.7605 81.5625 97.4475 79.2495 97.4475 76.4167C97.4475 73.5838 99.7605 71.2708 102.593 71.2708C105.426 71.2708 107.739 73.5838 107.739 76.4167C107.739 79.2495 105.426 81.5625 102.593 81.5625Z" fill="#1B7ABC" stroke="white" stroke-width="11"/>
</g>
</svg>
