<svg width="150" height="150" viewBox="0 0 150 150" fill="none" xmlns="http://www.w3.org/2000/svg">
<g id="add-stream">
<g id="Group 7">
<rect id="Rectangle 12" x="7.5" y="20.6959" width="110" height="110" rx="5.5" fill="white" stroke="white" stroke-width="9"/>
<path id="Vector" d="M88.6217 23.0003C84.3212 25.6763 40.1346 54.9013 38.427 69.0622C36.751 82.8774 59.7717 75.2618 51.0652 93.2138C45.6157 102.692 35.6968 111.45 27.8785 118.937C23.2243 123.393 20.4176 123.234 17.6545 123.235C14.8913 123.235 12.0011 119.977 12.0012 116.096C12.0012 112.214 12.0004 35.1742 12.0009 34.6196C12.0015 34.0651 11.873 29.2999 14.4311 26.3601C16.9891 23.4202 19.9824 23.0003 21.9772 23.0003C37.25 23.0003 69.7127 23.0003 88.6217 23.0003C82.2467 23.0003 113.66 23.0002 88.6217 23.0003Z" fill="#4A4A4A"/>
<path id="Vector_2" d="M36.3783 123.235C40.6788 120.559 84.8654 91.3338 86.573 77.1729C88.249 63.3577 65.2283 70.9733 73.9348 53.0213C79.3843 43.5436 89.3032 34.7847 97.1215 27.2983C101.776 22.8418 104.582 23.0013 107.346 23.0006C110.109 22.9999 112.999 26.2577 112.999 30.1395C112.999 34.0214 113 111.061 112.999 111.615C112.999 112.17 113.127 116.935 110.569 119.875C108.011 122.815 105.018 123.235 103.023 123.235C87.75 123.235 55.2873 123.235 36.3783 123.235C42.7533 123.235 11.3397 123.235 36.3783 123.235Z" fill="#4A4A4A"/>
</g>
<path id="Vector_3" d="M77 60.5H72.5V65V80V84.5H77H94.5V103V107.5H99H114H118.5V103V84.5H137H141.5V80V65V60.5H137H118.5V43V38.5H114H99H94.5V43V60.5H77Z" fill="#07778F" stroke="white" stroke-width="9"/>
</g>
</svg>
