<svg width="150" height="150" viewBox="0 0 150 150" fill="none" xmlns="http://www.w3.org/2000/svg">
<g id="copy-data">
<g id="db">
<path id="Shape" fill-rule="evenodd" clip-rule="evenodd" d="M60.6546 24C37.0977 24 18 29.9623 18 37.3208V48.2512C18 55.6106 37.0977 61.571 60.6546 61.571C84.2103 61.571 103.308 55.6096 103.308 48.2512V37.3208C103.308 29.9623 84.2103 24 60.6546 24V24Z" fill="#4A4A4A"/>
<path id="Shape_2" fill-rule="evenodd" clip-rule="evenodd" d="M60.6645 71.3138C38.1867 71.3138 19.6551 64.9412 18.0346 56.8607C17.9573 57.2464 18.0346 78.0098 18.0346 78.0098C18.0346 86.6334 37.1213 93.6168 60.6645 93.6168C84.2067 93.6168 103.293 86.6312 103.293 78.0098C103.293 78.0098 103.341 57.2453 103.265 56.8607C101.642 64.9423 83.1413 71.3138 60.6645 71.3138V71.3138Z" fill="#4A4A4A"/>
<path id="Shape_3" fill-rule="evenodd" clip-rule="evenodd" d="M60.6646 103.497C38.1868 103.497 19.6508 97.0588 18.0303 88.9065L18.0346 110.259C18.0346 118.964 37.1213 126.014 60.6646 126.014C84.2068 126.014 103.293 118.962 103.293 110.259L103.253 88.9065C101.634 97.0599 83.1424 103.497 60.6646 103.497Z" fill="#4A4A4A"/>
</g>
<g id="Group 7">
<rect id="Rectangle 12" x="61.5" y="44.7128" width="64.7871" height="64.7871" rx="5.5" fill="white" stroke="white" stroke-width="9"/>
<path id="Vector" d="M108.322 48C105.946 49.4781 81.5401 65.6205 80.5969 73.4422C79.6712 81.073 92.3866 76.8666 87.5776 86.7823C84.5676 92.0173 79.0889 96.8553 74.7704 100.99C72.1997 103.452 70.6494 103.364 69.1232 103.364C67.597 103.365 66.0006 101.565 66.0006 99.421C66.0006 97.2769 66.0002 54.7243 66.0005 54.418C66.0008 54.1116 65.9299 51.4796 67.3428 49.8558C68.7557 48.232 70.4091 48 71.5109 48C79.9468 48 97.8775 48 108.322 48C104.801 48 122.152 48 108.322 48Z" fill="#07778F"/>
<path id="Vector_2" d="M79.4653 103.364C81.8407 101.886 106.247 85.7439 107.19 77.9222C108.116 70.2914 95.4005 74.4978 100.21 64.5821C103.22 59.347 108.698 54.5091 113.017 50.374C115.587 47.9125 117.138 48.0006 118.664 48.0002C120.19 47.9998 121.786 49.7992 121.786 51.9434C121.786 54.0875 121.787 96.6401 121.787 96.9464C121.786 97.2527 121.857 99.8848 120.444 101.509C119.031 103.132 117.378 103.364 116.276 103.364C107.84 103.364 89.9096 103.364 79.4653 103.364C82.9865 103.364 65.6353 103.364 79.4653 103.364Z" fill="#DB572F"/>
</g>
</g>
</svg>
