<svg width="50" height="50" viewBox="0 0 50 50" fill="none" xmlns="http://www.w3.org/2000/svg">
<rect width="50" height="50" fill="white"/>
<path fill-rule="evenodd" clip-rule="evenodd" d="M25.0001 7C16.716 7 10 9.09674 10 11.6845V15.5283C10 18.1164 16.716 20.2124 25.0001 20.2124C33.2839 20.2124 39.9999 18.116 39.9999 15.5283V11.6845C39.9999 9.09674 33.2839 7 25.0001 7V7Z" fill="#4A4A4A"/>
<path fill-rule="evenodd" clip-rule="evenodd" d="M25.0037 23.6386C17.099 23.6386 10.5821 21.3976 10.0122 18.556C9.98503 18.6916 10.0122 25.9934 10.0122 25.9934C10.0122 29.026 16.7243 31.4818 25.0037 31.4818C33.2827 31.4818 39.9948 29.0252 39.9948 25.9934C39.9948 25.9934 40.0117 18.6913 39.9849 18.556C39.4142 21.398 32.908 23.6386 25.0037 23.6386V23.6386Z" fill="#4A4A4A"/>
<path fill-rule="evenodd" clip-rule="evenodd" d="M25.0036 34.9563C17.099 34.9563 10.5805 32.6923 10.0106 29.8254L10.0122 37.3344C10.0122 40.3956 16.7243 42.875 25.0036 42.875C33.2826 42.875 39.9948 40.3949 39.9948 37.3344L39.9806 29.8254C39.4111 32.6927 32.9083 34.9563 25.0036 34.9563Z" fill="#4A4A4A"/>
</svg>
