<svg width="50" height="50" viewBox="0 0 50 50" fill="none" xmlns="http://www.w3.org/2000/svg">
<rect width="50" height="50" fill="#4178D1"/>
<path fill-rule="evenodd" clip-rule="evenodd" d="M24.8798 15.4523L31.217 23.1644L19.4552 24.5664L37.7062 24.7669L28.4793 7.84045L24.8798 15.4523Z" fill="white"/>
<path fill-rule="evenodd" clip-rule="evenodd" d="M27.8275 4.92021L19.564 12.1816L13.4296 23.0486L18.6514 22.4977L27.8275 4.92021Z" fill="white"/>
<path fill-rule="evenodd" clip-rule="evenodd" d="M9.73416 28.0385L5.78162 38.2152H7.12551L8.15323 35.3623H12.5224L13.6147 38.2152H14.9512L10.9844 28.0385H9.73416ZM10.3235 29.2733H10.3521C10.4048 29.5855 10.4575 29.8128 10.5102 29.9547L12.1272 34.2908H8.55565L10.1583 29.9547C10.2206 29.7891 10.2756 29.5619 10.3235 29.2733ZM38.4625 31.8494C39.114 31.135 39.9213 30.7779 40.8842 30.7779C41.8471 30.7779 42.5922 31.0855 43.1192 31.7006C43.6462 32.3156 43.9097 33.1694 43.9097 34.2623V34.8726H38.7141C38.7332 35.6816 38.9537 36.3061 39.3753 36.7461C39.7969 37.1861 40.3765 37.4061 41.1143 37.4061C41.9431 37.4061 42.7047 37.1366 43.3994 36.5973V37.6902C42.7526 38.1538 41.8974 38.3855 40.8339 38.3855C39.7943 38.3855 38.9776 38.0567 38.3836 37.3991C37.7895 36.7367 37.4925 35.8072 37.4925 34.6102C37.4925 33.4795 37.8157 32.5591 38.4625 31.8494ZM35.6189 30.8205C35.1925 30.8205 34.8069 30.9648 34.462 31.2534C34.117 31.5373 33.8609 31.9346 33.6932 32.4455H33.6643V30.9482H32.4859V38.2152H33.6643V34.5108C33.6643 33.7017 33.8321 33.063 34.1675 32.5946C34.5076 32.1262 34.9292 31.892 35.4322 31.892C35.8202 31.892 36.1173 31.97 36.3233 32.1261V30.9197C36.1604 30.8535 35.9255 30.8205 35.6189 30.8205ZM16.1484 31.9417V30.9482H21.8254V31.2817L17.4706 37.2216H21.7823V38.2151H15.7387V37.8533L20.0935 31.9417H16.1484ZM23.5987 30.9482V35.2913C23.5987 37.3541 24.4757 38.3854 26.2291 38.3854C27.2543 38.3854 28.0112 37.9454 28.4998 37.0655H28.5285V38.2151H29.7071V30.9482H28.5285V35.1352C28.5285 35.8117 28.3418 36.3605 27.9681 36.7816C27.5992 37.198 27.1273 37.4061 26.5524 37.4061C25.3643 37.4061 24.7702 36.6398 24.7702 35.1069V30.9482H23.5987ZM42.2062 32.3179C41.8853 31.9441 41.4372 31.7573 40.8623 31.7573C40.3066 31.7573 39.8347 31.9534 39.4467 32.3461C39.0586 32.7388 38.819 33.2521 38.728 33.8861H42.702C42.6972 33.2143 42.532 32.6916 42.2062 32.3179Z" fill="white"/>
</svg>
