<svg width="50" height="50" viewBox="0 0 50 50" fill="none" xmlns="http://www.w3.org/2000/svg">
<rect width="50" height="50" fill="#333333"/>
<path d="M9 10V40.3029C9 43.4489 16.1638 46 25 46V10H9V10Z" fill="#0072C6"/>
<path d="M25 46H25.2164C33.9331 46 41 43.4506 41 40.3036V10H25V46V46Z" fill="#0072C6"/>
<path opacity="0.15" d="M25 46H25.2164C33.9331 46 41 43.4506 41 40.3036V10H25V46V46Z" fill="white"/>
<path d="M41 10C41 13.3138 33.8362 16 25 16C16.1638 16 9 13.3138 9 10C9 6.68621 16.1638 4 25 4C33.8362 4 41 6.68621 41 10" fill="white"/>
<path d="M38 9.5C38 11.434 32.1798 13 25.0004 13C17.8211 13 12 11.434 12 9.5C12 7.56676 17.8211 6 25.0004 6C32.1798 6 38 7.56676 38 9.5Z" fill="#7FBA00"/>
<path d="M35.2756 12C36.9774 11.3705 38 10.5821 38 9.72557C38 7.66736 32.1798 6 24.9996 6C17.8202 6 12 7.66736 12 9.72557C12 10.5821 13.0226 11.3705 14.7244 12C17.101 11.1202 20.8149 10.5522 24.9996 10.5522C29.1851 10.5522 32.8973 11.1202 35.2756 12Z" fill="#B8D432"/>
<path d="M19.5443 31.5518C19.5443 32.5255 19.1986 33.2796 18.5071 33.8142C17.8157 34.3488 16.8609 34.6161 15.6419 34.6161C14.6047 34.6161 13.7382 34.4252 13.0416 34.0433V31.7523C13.8452 32.4491 14.7304 32.798 15.6971 32.798C16.1643 32.798 16.5253 32.7025 16.7802 32.5116C17.035 32.3207 17.1624 32.0682 17.1624 31.7523C17.1624 31.4425 17.0401 31.1726 16.7946 30.9435C16.5491 30.7144 16.0505 30.4184 15.2987 30.0557C13.7662 29.3215 13 28.3183 13 27.0495C13 26.1288 13.3338 25.3903 14.0024 24.834C14.6701 24.2786 15.5578 24 16.6646 24C17.6458 24 18.4579 24.1319 19.1035 24.394V26.534C18.4264 26.0567 17.6551 25.8181 16.7912 25.8181C16.3571 25.8181 16.0139 25.9118 15.7616 26.1001C15.6421 26.1839 15.545 26.2969 15.479 26.4287C15.413 26.5605 15.3802 26.7071 15.3836 26.8551C15.3836 27.1797 15.4847 27.4461 15.6886 27.6535C15.8916 27.8609 16.3087 28.1178 16.939 28.4233C17.8785 28.8772 18.5471 29.3371 18.9472 29.8049C19.3447 30.2735 19.5443 30.8558 19.5443 31.5518V31.5518ZM30.3556 29.233C30.3556 30.4401 30.0863 31.4885 29.5494 32.3754C29.0117 33.2632 28.2557 33.8854 27.2796 34.2438L30.1942 37H27.2516L25.1704 34.6161C24.2785 34.5831 23.4732 34.3419 22.7562 33.8932C22.0392 33.4454 21.4854 32.8301 21.0955 32.0499C20.7056 31.2698 20.5102 30.3993 20.5102 29.4404C20.5102 28.3764 20.7217 27.4279 21.1439 26.5948C21.5669 25.7617 22.1607 25.1212 22.9269 24.6726C23.6932 24.2248 24.5707 24 25.562 24C26.4862 24 27.3145 24.217 28.0459 24.6517C28.7764 25.0856 29.3439 25.7035 29.7482 26.5054C30.1534 27.3073 30.3556 28.2168 30.3556 29.233V29.233ZM27.9737 29.3623C27.9737 28.3218 27.752 27.4999 27.3077 26.8959C26.8634 26.2919 26.2569 25.9899 25.4856 25.9899C24.7006 25.9899 24.0729 26.2928 23.6006 26.8985C23.1291 27.5051 22.893 28.3113 22.893 29.318C22.893 30.3204 23.124 31.1205 23.5861 31.7193C24.0491 32.3181 24.6624 32.6175 25.4286 32.6175C26.2093 32.6175 26.8277 32.3276 27.2856 31.7479C27.7443 31.1691 27.9737 30.3733 27.9737 29.3623ZM38 34.4373H32.0163V24.1727H34.2793V32.562H38V34.4373Z" fill="white"/>
</svg>
