<svg width="96" height="96" viewBox="0 0 96 96" fill="none" xmlns="http://www.w3.org/2000/svg">
<path d="M49.6465 13H54.5327V20.0982C62.4792 18.8338 70.6128 19.4302 78.2871 21.8402C81.1442 22.8096 84.2533 25.0222 83.9756 28.4089C84.0081 40.9188 84.0081 53.4347 83.9756 65.9566C84.261 69.3842 81.0696 71.584 78.1816 72.5407C70.5317 74.9109 62.4346 75.4904 54.5224 74.234V83H49.4382C36.9759 80.7414 24.4803 78.6694 12 76.4875V19.5278C24.5445 17.3459 37.1097 15.2228 49.6465 13Z" fill="black"/>
<path d="M54 22.6382C61.3303 21.4991 68.8318 21.8882 75.9898 23.7785C77.9415 24.4725 80.5583 25.3088 81 27.533C80.6739 29.3502 78.6888 30.1718 77.1197 30.8265C69.6494 33.0695 61.7279 33.5856 54.0077 32.3323V22.6382" fill="white"/>
<path d="M70.7391 35.6757C74.4179 35.39 77.955 34.1214 80.9874 32C80.8078 35.5436 81.2646 39.1285 80.7308 42.641C79.1099 44.2015 77.0658 45.2402 74.8585 45.6251C68.008 47.1436 60.9428 47.4068 54 46.4022V35.7067C59.554 36.4168 65.1752 36.4055 70.7263 35.6731" fill="white"/>
<path d="M28.2457 34.4234C30.149 34.2822 32.0471 34.162 33.958 34C36.6961 43.3142 39.2954 52.678 42 62C40.1122 61.8746 38.2243 61.7387 36.3493 61.5583C35.851 59.4676 35.3219 57.4004 34.78 55.3306C32.2705 55.3306 29.7611 55.2391 27.262 55.1137C26.7791 57.0842 26.2885 59.0495 25.7902 61.0095C24.1875 60.8841 22.5908 60.7673 21 60.6593C23.3861 51.9018 25.8801 43.1783 28.2406 34.4208" fill="white"/>
<path d="M28 50.9651C28.9158 46.966 30.2825 43.0609 30.8873 39C31.7033 43.0501 32.9672 46.9982 34 51C31.9933 51 29.9962 50.9884 28.0086 50.9651" fill="#0C0D0D"/>
<path d="M70.782 48.6685C74.446 48.3828 77.9683 47.1165 80.9858 45C80.8214 48.5364 81.2425 52.1064 80.7572 55.622C79.1571 57.1914 77.1232 58.2347 74.9236 58.6144C68.0524 60.1411 60.9651 60.4088 54 59.4045V48.7048C59.5724 49.4206 65.2131 49.4067 70.782 48.6633" fill="white"/>
<path d="M70.7678 61.6756C74.4368 61.392 77.9648 60.1233 80.9885 58C80.8167 61.5432 81.2577 65.1358 80.7321 68.6427C78.425 71.1865 74.7618 71.6563 71.5882 72.3105C65.7605 73.2076 59.834 73.2294 54 72.3754C54.0564 68.8166 54.0333 65.263 54.0333 61.7042C59.5856 62.4213 65.2063 62.4073 70.755 61.6626" fill="white"/>
</svg>
