<svg width="96" height="96" viewBox="0 0 96 96" fill="none" xmlns="http://www.w3.org/2000/svg">
<path d="M32.2946 41.6915C32.2946 42.578 32.3846 43.298 32.5556 43.829C32.7446 44.3555 32.9876 44.9315 33.3206 45.557C33.4269 45.7223 33.4846 45.914 33.4871 46.1105C33.4871 46.349 33.3431 46.592 33.0371 46.8305L31.5251 47.8385C31.3436 47.9695 31.1278 48.0446 30.9041 48.0545C30.6611 48.0545 30.4226 47.9375 30.1841 47.7215C29.8607 47.3735 29.5714 46.9952 29.3201 46.592C29.054 46.1303 28.8077 45.6573 28.5821 45.1745C26.7101 47.384 24.3656 48.491 21.5396 48.491C19.5281 48.491 17.9216 47.9105 16.7516 46.7585C15.5771 45.6065 14.9786 44.0675 14.9786 42.146C14.9786 40.103 15.6986 38.447 17.1566 37.196C18.6191 35.945 20.5586 35.324 23.0246 35.324C23.8346 35.324 24.6761 35.396 25.5626 35.513C26.4491 35.6345 27.3626 35.828 28.3166 36.044V34.289C28.3166 32.462 27.9341 31.1885 27.1916 30.446C26.4266 29.699 25.1306 29.339 23.2856 29.339C22.4486 29.339 21.5891 29.438 20.7026 29.654C19.8219 29.8636 18.9572 30.1358 18.1151 30.4685C17.8433 30.5916 17.5637 30.6968 17.2781 30.7835C17.1544 30.8244 17.0258 30.8486 16.8956 30.8555C16.5581 30.8555 16.3916 30.6125 16.3916 30.1085V28.9295C16.3916 28.547 16.4366 28.2545 16.5581 28.0925C16.7395 27.8717 16.9709 27.6974 17.2331 27.584C18.0656 27.152 19.0736 26.792 20.2481 26.504C21.4181 26.189 22.6646 26.0495 23.9831 26.0495C26.8316 26.0495 28.9151 26.6975 30.2561 27.9935C31.5746 29.2895 32.2451 31.2605 32.2451 33.9065V41.6915H32.2901H32.2946ZM22.5701 45.341C23.3576 45.341 24.1721 45.197 25.0361 44.909C25.9001 44.621 26.6651 44.09 27.3086 43.37C27.6945 42.9279 27.9732 42.4028 28.1231 41.8355C28.2671 41.255 28.3661 40.562 28.3661 39.743V38.735C27.6393 38.5587 26.9032 38.4235 26.1611 38.33C25.415 38.2335 24.6635 38.1839 23.9111 38.1815C22.3046 38.1815 21.1346 38.4965 20.3426 39.1445C19.5506 39.7925 19.1726 40.706 19.1726 41.9075C19.1726 43.0325 19.4561 43.874 20.0546 44.4545C20.6306 45.053 21.4676 45.341 22.5701 45.341ZM41.7986 47.9375C41.3666 47.9375 41.0786 47.8655 40.8896 47.6945C40.6961 47.5505 40.5296 47.2175 40.3856 46.7585L34.7606 28.187C34.6512 27.8756 34.5787 27.5523 34.5446 27.224C34.5446 26.8415 34.7336 26.6255 35.1161 26.6255H37.4651C37.9151 26.6255 38.2301 26.6975 38.3966 26.864C38.5901 27.008 38.7341 27.3455 38.8781 27.8L42.9011 43.7075L46.6361 27.8C46.7531 27.323 46.8971 27.008 47.0906 26.864C47.3781 26.688 47.7127 26.6048 48.0491 26.6255H49.9661C50.4161 26.6255 50.7311 26.6975 50.9201 26.864C51.1136 27.008 51.2801 27.3455 51.3791 27.8L55.1591 43.901L59.2991 27.8C59.3761 27.4517 59.542 27.1292 59.7806 26.864C60.0596 26.6876 60.3873 26.6041 60.7166 26.6255H62.9441C63.3266 26.6255 63.5426 26.819 63.5426 27.224C63.5426 27.3455 63.5156 27.467 63.4976 27.611C63.4588 27.8152 63.4015 28.0156 63.3266 28.2095L57.5531 46.781C57.4136 47.2625 57.2426 47.5775 57.0536 47.7215C56.7819 47.8953 56.4622 47.9788 56.1401 47.96H54.0836C53.6291 47.96 53.3186 47.888 53.1251 47.7215C52.9316 47.5505 52.7651 47.24 52.6706 46.7585L48.9581 31.265L45.2681 46.7405C45.1511 47.222 45.0071 47.5325 44.8181 47.699C44.6246 47.87 44.2871 47.942 43.8596 47.942H41.7986V47.9375ZM72.5696 48.5855C71.3269 48.5872 70.0884 48.4422 68.8796 48.1535C67.6826 47.8655 66.7511 47.5505 66.1256 47.1905C65.7431 46.9745 65.4821 46.736 65.3831 46.5155C65.2919 46.3037 65.2445 46.0756 65.2436 45.845V44.621C65.2436 44.117 65.4326 43.874 65.7926 43.874C65.9396 43.8743 66.0855 43.8986 66.2246 43.946C66.3686 43.9955 66.5846 44.09 66.8231 44.189C67.6331 44.549 68.5241 44.837 69.4556 45.0305C70.4141 45.2195 71.3456 45.3185 72.3041 45.3185C73.8161 45.3185 74.9861 45.053 75.8006 44.5265C76.1919 44.2896 76.5134 43.9533 76.7324 43.5517C76.9514 43.1501 77.06 42.6977 77.0471 42.2405C77.0552 41.9318 77.0021 41.6246 76.8909 41.3365C76.7797 41.0484 76.6126 40.7852 76.3991 40.562C75.9716 40.103 75.1571 39.6935 73.9826 39.311L70.5086 38.231C68.7626 37.6775 67.4666 36.8585 66.6791 35.7785C65.9082 34.7806 65.4876 33.5565 65.4821 32.2955C65.4821 31.2875 65.6981 30.3965 66.1256 29.627C66.5576 28.862 67.1336 28.187 67.8536 27.656C68.5736 27.107 69.3836 26.6975 70.3421 26.4095C71.3006 26.1215 72.3041 26 73.3571 26C73.8881 26 74.4371 26.0225 74.9636 26.0945C75.5126 26.1665 76.0166 26.2655 76.5206 26.3645C76.9976 26.4815 77.4566 26.5985 77.8841 26.747C78.3161 26.891 78.6491 27.035 78.8921 27.179C79.1746 27.321 79.4209 27.5257 79.6121 27.7775C79.7662 28.0118 79.8404 28.2896 79.8236 28.5695V29.699C79.8236 30.203 79.6346 30.4685 79.2746 30.4685C78.9559 30.4321 78.6472 30.3343 78.3656 30.1805C76.9185 29.539 75.3493 29.2197 73.7666 29.2445C72.4031 29.2445 71.3231 29.4605 70.5806 29.9195C69.8381 30.3695 69.4556 31.0715 69.4556 32.057C69.4556 32.7275 69.6941 33.3035 70.1756 33.7625C70.6526 34.217 71.5391 34.6715 72.8081 35.081L76.2101 36.161C77.9336 36.7145 79.1801 37.484 79.9226 38.4695C80.6651 39.455 81.0206 40.5845 81.0206 41.8355C81.0206 42.8705 80.8091 43.802 80.3996 44.621C79.9758 45.4429 79.3804 46.1641 78.6536 46.736C77.9111 47.3345 77.0246 47.771 75.9941 48.0815C74.9141 48.419 73.7891 48.5855 72.5696 48.5855Z" fill="black"/>
<path fill-rule="evenodd" clip-rule="evenodd" d="M77.0922 60.2584C69.2172 66.0949 57.7692 69.1954 47.9277 69.1954C34.1352 69.1954 21.7062 64.0789 12.3192 55.5739C11.5767 54.8989 12.2472 53.9854 13.1292 54.5164C23.2857 60.4249 35.8092 64.0069 48.7692 64.0069C57.5037 64.0069 67.1067 62.1799 75.9447 58.4314C77.2632 57.8329 78.3882 59.2954 77.0922 60.2584Z" fill="black"/>
<path fill-rule="evenodd" clip-rule="evenodd" d="M80.3727 56.51C79.3692 55.2185 73.7172 55.889 71.1567 56.1995C70.3917 56.2985 70.2702 55.6235 70.9632 55.1195C75.4632 51.947 82.8657 52.8605 83.7252 53.918C84.5892 54.998 83.4867 62.423 79.2702 65.978C78.6267 66.5315 78.0057 66.248 78.2937 65.528C79.2477 63.143 81.3807 57.788 80.3727 56.5145V56.51Z" fill="black"/>
</svg>
