<svg width="96" height="96" viewBox="0 0 96 96" fill="none" xmlns="http://www.w3.org/2000/svg">
<path fill-rule="evenodd" clip-rule="evenodd" d="M54.32 21.2597H50.5859V18.7558H54.32V15H56.8094V18.7558H60.5435V21.2597H56.8094V25.0155H54.32V21.2597ZM69.2565 35.031H65.5223V32.5271H69.2565V28.7713H71.7459V32.5271H75.48V35.031H71.7459V38.7868H69.2565V35.031ZM62.774 74.5973C60.3966 68.5604 54.91 63.0419 48.9055 60.6494C54.91 58.2582 60.3966 52.7397 62.774 46.7016C65.1514 52.7397 70.6381 58.2582 76.6413 60.6494C70.6381 63.0419 65.1514 68.5604 62.774 74.5973ZM82.7553 59.3975C74 59.3975 64.0187 49.3582 64.0187 40.5521C64.0187 39.861 63.4624 39.3001 62.774 39.3001C62.0857 39.3001 61.5293 39.861 61.5293 40.5521C61.5293 49.3582 51.5468 59.3975 42.7915 59.3975C42.1044 59.3975 41.5468 59.9584 41.5468 60.6494C41.5468 61.3418 42.1044 61.9014 42.7915 61.9014C51.5468 61.9014 61.5293 71.9407 61.5293 80.7481C61.5293 81.4391 62.0857 82 62.774 82C63.4624 82 64.0187 81.4391 64.0187 80.7481C64.0187 71.9407 74 61.9014 82.7553 61.9014C83.4424 61.9014 84 61.3418 84 60.6494C84 59.9584 83.4424 59.3975 82.7553 59.3975ZM14.4894 34.7318C18.114 37.3834 25.1565 38.7868 31.9153 38.7868C38.674 38.7868 45.7166 37.3834 49.3412 34.7318V46.7229C47.5475 49.1216 40.9519 51.4852 32.1642 51.4852C22.0485 51.4852 14.4894 48.3053 14.4894 45.4622V34.7318ZM31.9153 25.0155C42.7119 25.0155 49.3412 28.2968 49.3412 30.6492C49.3412 33.0016 42.7119 36.283 31.9153 36.283C21.1187 36.283 14.4894 33.0016 14.4894 30.6492C14.4894 28.2968 21.1187 25.0155 31.9153 25.0155ZM49.3412 72.002C49.3412 74.8877 41.8866 78.1165 31.9091 78.1165C21.939 78.1165 14.4894 74.8877 14.4894 72.002V64.0021C18.1588 66.8015 25.342 68.2838 32.2352 68.2838C37.0285 68.2838 41.6638 67.6027 45.2822 66.3658L44.4831 63.9946C41.1149 65.1452 36.7647 65.7799 32.2352 65.7799C22.0784 65.7799 14.4894 62.6 14.4894 59.7568V49.715C18.1488 52.5093 25.3009 53.9891 32.1642 53.9891C39.518 53.9891 45.8249 52.4655 49.3412 50.053V53.8101H51.8306V30.6492C51.8306 25.3635 41.5705 22.5116 31.9153 22.5116C22.6534 22.5116 12.8588 25.1432 12.0772 30.0233H12V72.002C12 77.5994 22.2576 80.6204 31.9091 80.6204C41.5667 80.6204 51.8306 77.5994 51.8306 72.002V67.5814H49.3412V72.002Z" fill="black"/>
</svg>
