<svg width="96" height="96" viewBox="0 0 96 96" fill="none" xmlns="http://www.w3.org/2000/svg">
<path d="M45.3127 73.406L62.2884 70.4043L62.4456 70.3688L53.7144 59.9796C50.7863 56.5147 47.8741 53.0363 44.978 49.5446C44.978 49.4939 53.9983 24.6539 54.049 24.5677C59.0396 33.1115 63.9985 41.6739 68.9256 50.2545L83.8834 76.1897L84 76.3874L28.489 76.3824L45.3127 73.406ZM12 70.2421C12 70.2269 16.1121 63.0827 21.142 54.3666L30.289 38.5114L40.947 29.5672C46.8084 24.6539 51.6203 20.6128 51.6355 20.6128C51.5977 20.7628 51.5415 20.9076 51.4682 21.0438L39.8873 45.8686L28.5296 70.2472L20.2648 70.2573C15.7166 70.2624 12 70.2573 12 70.2421Z" fill="black"/>
</svg>
