<svg width="96" height="96" viewBox="0 0 96 96" fill="none" xmlns="http://www.w3.org/2000/svg">
<path fill-rule="evenodd" clip-rule="evenodd" d="M60.9017 41.8567C61.9192 36.8231 47.3397 34.6982 38.9771 44.8764C29.5963 56.2852 48.4705 68.2536 69.943 52.2585C83.6184 41.9682 88.0264 27.875 80.0019 20.7165C64.4056 6.62326 26.6579 19.7102 14 47.6723C26.6579 26.5328 58.4153 16.5777 71.0739 29.4409C76.3854 34.8098 73.4469 45.6597 63.7275 50.2452C48.0185 57.5159 49.4873 41.633 60.9017 41.8567Z" fill="black"/>
<path fill-rule="evenodd" clip-rule="evenodd" d="M59.9206 31.1825C34.0409 23.5165 -1.06553 54.8457 16.9378 75.5095C28.8649 89.2855 70.6104 82.6197 84 41.0697C68.1349 69.7332 38.2045 73.9542 26.8396 65.7331C13.45 56.0681 30.1023 28.9606 59.9206 31.1825Z" fill="#4D4D4D"/>
</svg>
