<svg width="96" height="96" viewBox="0 0 96 96" fill="none" xmlns="http://www.w3.org/2000/svg">
<path d="M65.0431 60.465C66.8543 53.2313 66.5433 45.6336 64.1467 38.57C61.7502 31.5064 57.3683 25.2721 51.5191 20.6041C56.8602 17.5528 62.916 15.9532 69.0771 15.9661C71.4141 15.9661 73.742 16.1911 76.0338 16.6441L77 12.7981C74.3918 12.2676 71.7363 12.0002 69.074 12.0001C61.6073 11.9859 54.293 14.0994 47.9985 18.0901C41.7047 14.1004 34.3916 11.9869 26.926 12.0001C24.2628 12.0001 21.6088 12.2671 19 12.7981L19.9632 16.6441C22.2562 16.1922 24.5883 15.9651 26.926 15.9661C33.0881 15.9535 39.1452 17.5509 44.4899 20.5981C39.7094 24.4119 35.8937 29.2845 33.3481 34.826C30.8025 40.3675 29.5978 46.4241 29.8302 52.5112C30.0626 58.5982 31.7257 64.5467 34.6866 69.8807C37.6474 75.2147 41.8237 79.786 46.8813 83.229L48.0136 84L49.1398 83.229C57.0628 77.826 62.7272 69.729 65.0522 60.465H65.0431ZM46.0057 77.565C40.7976 73.0964 37.0181 67.2123 35.1324 60.637C33.2467 54.0616 33.3371 47.082 35.3924 40.557C37.4072 43.8822 39.9073 46.892 42.8111 49.488C43.8185 50.3904 44.6236 51.4932 45.1739 52.7248C45.7243 53.9565 46.0077 55.2894 46.0057 56.637V77.565ZM48.0015 48.594C45.326 46.6215 42.9443 44.2835 40.927 41.649C39.635 39.9621 38.9354 37.9008 38.9354 35.781C38.9354 33.6613 39.635 31.6 40.927 29.9131C42.9426 27.2574 45.3288 24.9008 48.0136 22.9141C50.7311 24.9271 53.1375 27.3181 55.1696 30.0121C56.4197 31.671 57.0952 33.6877 57.0952 35.76C57.0952 37.8324 56.4197 39.8491 55.1696 41.508C53.131 44.1962 50.7174 46.5821 48.0015 48.594ZM49.9913 77.565V56.637C49.9901 55.289 50.2744 53.9558 50.8258 52.7241C51.3772 51.4924 52.1834 50.3898 53.1919 49.488C56.0953 46.8932 58.5936 43.8832 60.6046 40.557C62.6571 47.0822 62.7461 54.0611 60.8606 60.6358C58.9751 67.2106 55.1972 73.0947 49.9913 77.565Z" fill="black"/>
</svg>
