<svg width="96" height="96" viewBox="0 0 96 96" fill="none" xmlns="http://www.w3.org/2000/svg">
<g clip-path="url(#clip0_1154_33)">
<path d="M67.375 36.9062L64.0625 58.4375L60.75 36.9062H57.4375L61.6046 60.0938H66.5204L70.6875 36.9062H67.375Z" fill="black"/>
<path d="M50.8125 60.0937H40.875V56.7812H50.8125V50.1562H44.1875C43.3092 50.1554 42.4672 49.8061 41.8462 49.1851C41.2252 48.564 40.8759 47.722 40.875 46.8437V40.2187C40.8759 39.3405 41.2252 38.4985 41.8462 37.8774C42.4672 37.2564 43.3092 36.9071 44.1875 36.9062H54.125V40.2187H44.1875V46.8437H50.8125C51.6908 46.8446 52.5328 47.1939 53.1538 47.8149C53.7748 48.436 54.1241 49.278 54.125 50.1562V56.7812C54.1241 57.6595 53.7748 58.5015 53.1538 59.1226C52.5328 59.7436 51.6908 60.0929 50.8125 60.0937Z" fill="black"/>
<path d="M37.5625 60.0938H27.625C26.7468 60.0927 25.9048 59.7434 25.2838 59.1224C24.6628 58.5014 24.3135 57.6595 24.3125 56.7812V40.2188C24.3134 39.3405 24.6627 38.4985 25.2837 37.8774C25.9047 37.2564 26.7467 36.9071 27.625 36.9062H37.5625V40.2188H27.625V56.7812H37.5625V60.0938Z" fill="black"/>
</g>
<defs>
<clipPath id="clip0_1154_33">
<rect width="53" height="53" fill="white" transform="translate(21 22)"/>
</clipPath>
</defs>
</svg>
