<svg width="96" height="96" viewBox="0 0 96 96" fill="none" xmlns="http://www.w3.org/2000/svg">
<path d="M78.6016 52.5205C80.2989 52.5205 80.9747 51.9961 80.9747 50.9571C80.9747 50.0081 80.2126 49.36 78.5403 49.36H74.7644V52.5205H78.6016ZM74.7644 44.4684V47.1156H78.6508C79.991 47.1156 80.4586 46.5122 80.4586 45.8201C80.4586 45.0828 79.8555 44.4801 78.4291 44.4801H74.7644V44.4684ZM71.9857 54.989C71.8503 54.989 71.7148 54.855 71.7148 54.732V42.257C71.7148 42.123 71.8496 42 71.985 42H78.8475C81.885 42 83.496 43.564 83.496 45.5742C83.496 46.6126 83.0655 47.4393 82.3277 48.02V48.0646C83.3727 48.7126 84 49.7511 84 51.0911C84 53.5816 82.1188 54.989 78.9089 54.989H71.9857ZM59.6015 44.4684V52.5212H62.5284C65.3691 52.5212 66.8696 50.9571 66.8696 48.4887C66.8696 46.0209 65.0369 44.4574 62.4913 44.4574H59.6015V44.4684ZM56.8349 54.989C56.6995 54.989 56.564 54.855 56.564 54.732V42.257C56.564 42.123 56.6988 42 56.8349 42H62.4913C66.7342 42 69.9192 44.5357 69.9192 48.5003C69.9192 52.4202 67.2382 55 62.5412 55H56.8342L56.8349 54.989ZM46.0368 49.5834V52.5322H53.9066C54.042 52.5322 54.2145 52.7109 54.2145 52.8332V54.6983C54.2145 54.833 54.0299 55 53.9073 55H43.2702C43.1354 55 43 54.866 43 54.743V42.2576C43 42.1236 43.1348 42.0006 43.2702 42.0006H53.7725C53.9073 42.0006 54.0798 42.1799 54.0798 42.3023V44.1674C54.0798 44.302 53.8958 44.4691 53.7725 44.4691H46.0374V47.1162H53.096C53.2308 47.1162 53.4033 47.2948 53.4033 47.4178V49.2829C53.4033 49.4169 53.2193 49.584 53.096 49.584H46.0374L46.0368 49.5834Z" fill="black"/>
<path d="M24.4997 62C31.9554 62 38 55.9561 38 48.4997C38 41.0439 31.9561 35 24.4997 35C17.0439 35 11 41.0439 11 48.4997C11 55.9554 17.0439 62 24.4997 62Z" fill="#4D4D4D"/>
<path d="M33 46.0489C33 44.7942 31.9035 43.8851 30.5543 44.0118L28.494 44.2072C28.2769 44.2306 28.096 44.4027 28.096 44.6108V51.7788C28.096 51.9742 28.2769 52.1237 28.494 52.1003L30.5536 51.9049C31.9035 51.7788 33 50.6628 33 49.4081C33 48.7405 32.6864 48.1655 32.1808 47.7972C32.6746 47.3483 32.9993 46.7153 32.9993 46.0483L33 46.0489ZM20.506 44.2079L18.4457 44.0118C17.0965 43.8857 16 44.7942 16 46.0483C16 46.7166 16.3129 47.349 16.8185 47.8092C16.3129 48.1774 16 48.7531 16 49.4201C16 50.6748 17.0958 51.7908 18.4457 51.9169L20.5053 52.1129C20.7231 52.1363 20.9034 51.9868 20.9034 51.7914V44.6208C20.8997 44.5179 20.8577 44.4195 20.7848 44.3436C20.7119 44.2676 20.613 44.219 20.506 44.2066V44.2079ZM24.5063 46.1636H22.4454C22.2289 46.1636 22.048 46.3251 22.048 46.5205V51.9061C22.048 52.1129 22.2044 52.3317 22.4335 52.3317H24.4937C24.4693 52.7226 23.8798 53.0221 22.5055 53.1602L22.349 53.1715C22.2526 53.1835 22.048 53.1715 22.048 53.5397V53.6318C22.048 53.8272 22.217 54 22.4335 54H24.4937C25.843 54 26.9513 52.9874 26.9513 51.7447V48.3968C26.9513 47.1768 25.8556 46.1649 24.5056 46.1649L24.5063 46.1636Z" fill="white"/>
</svg>
