<svg width="96" height="96" viewBox="0 0 96 96" fill="none" xmlns="http://www.w3.org/2000/svg">
<path d="M47.3401 83.9696C43.2751 83.4656 38.3605 81.1327 34.9087 78.0733C32.9354 76.3243 31.1479 73.4089 29.9863 70.0447C29.2179 67.8199 28.6208 65.1402 28.2583 62.2884C28.0719 60.8466 28.138 57.5436 28.3665 56.5752C29.6003 51.3743 33.1536 47.9663 39.8257 45.5849C41.8441 44.8643 43.6977 43.5191 44.2557 42.3707C44.7547 41.3435 44.4661 40.3565 43.3442 39.2465C42.6702 38.5805 42.1345 38.272 40.9158 37.8478C40.1768 37.5898 39.8455 37.5658 38.6563 37.6918C36.6204 37.9018 35.4991 38.6009 35.2009 39.8369L35.1408 40.0469L34.3615 39.6569C32.7724 38.8655 31.5934 37.8928 31.1882 37.039C30.8094 36.2446 30.9176 35.341 31.4948 34.4776C31.9998 33.715 33.619 32.3488 34.5756 31.8766C35.2015 31.5646 35.9044 31.4566 37.4923 31.4086C38.6304 31.3486 38.9545 31.3426 38.9256 31.2646C38.9256 31.2046 38.8475 30.8266 38.7934 30.4036C38.5408 28.3486 39.2984 27.2518 41.0402 27.1468C41.9337 27.0868 42.8319 27.2728 44.1306 27.7762C50.252 30.1354 55.0373 31.3606 57.0431 31.0822C58.2107 30.9202 58.7452 30.3958 58.6526 29.5024C58.5925 28.9804 58.7127 29.0644 58.8691 29.7124C59.0494 30.3544 59.0615 31.4074 58.8691 31.7266C58.4121 32.566 57.5078 32.8072 55.6975 32.5708C54.6074 32.4268 52.9011 32.4088 52.3215 32.5108C51.8525 32.6128 51.3835 32.8108 51.1208 33.0208L50.9344 33.1708L51.6535 33.5308C53.3352 34.372 55.3109 35.626 56.4641 36.5848C57.7189 37.6276 58.6268 38.8019 59.0218 39.8933C59.2082 40.4153 59.2202 40.5221 59.2202 41.8511C59.2184 43.0145 59.1601 43.3949 59.0458 44.0549C58.4085 47.0309 56.6535 50.2277 53.8931 53.4408C53.1758 54.2754 52.948 54.6018 52.6095 55.2756C52.2427 56.0016 52.0864 56.6628 52.0864 57.4308C52.0864 59.298 53.3989 60.7002 55.6536 61.2738C56.5032 61.4898 56.8387 61.4838 58.9298 61.2138C62.8247 60.7278 66.167 59.4696 68.7807 57.5016C69.6669 56.8344 71.3125 55.1778 71.9583 54.3036C74.3031 51.1259 75.6722 47.1371 76.2091 41.9159C76.2752 41.2679 76.3474 39.7805 76.3714 38.6099C76.4316 36.649 76.3714 36.4102 76.2452 35.5696C74.9729 28.546 71.0853 22.9599 64.3982 18.5457C60.7576 16.1427 55.8724 13.9557 50.7282 12.4263C50.1209 12.2463 49.59 12.0663 49.5479 12.0303C49.4577 11.9523 50.2965 12.0303 52.0605 12.2043C58.9496 12.9609 65.5159 15.7533 70.9776 20.2497C72.0659 21.1461 74.6302 23.6769 75.49 24.7036C81.5344 31.9192 84.5027 40.8863 83.9303 50.2007C83.4433 58.1616 80.6355 65.3148 75.6451 71.3281C74.7138 72.4501 72.417 74.7421 71.2903 75.6745C66.357 79.7557 60.6398 82.3922 54.3453 83.4872C51.9974 83.8952 48.6641 84.11 47.301 83.9432L47.3401 83.9696ZM45.3578 31.027C44.0825 30.2326 42.9708 29.8342 42.5668 30.0274C42.2181 30.1954 42.0678 30.6898 42.2121 31.2112L42.2722 31.3792H44.1084H45.944L45.3728 31.0252L45.3578 31.027ZM34.5461 81.3769C34.0651 81.1369 33.0015 80.6149 32.185 80.2207C24.1866 76.3603 17.7815 69.4381 14.4903 61.0974C10.8353 51.8333 11.2189 41.3549 15.5406 32.4082C21.1016 20.8965 32.1411 13.2693 44.9033 12.1209C45.5827 12.0609 45.3542 12.1809 44.3681 12.3849C39.204 13.4895 33.3575 16.2975 28.9587 19.7853C26.4984 21.7365 24.272 23.9973 22.5139 26.3296C15.5268 35.5984 14.6129 46.7177 19.9526 57.5016C21.6151 60.858 23.7585 64.0746 26.3962 67.1724L27.3299 68.2687L27.4742 69.1105C27.8771 71.4925 28.7807 73.7167 30.2382 75.9181C31.2272 77.4121 32.0107 78.3385 33.8 80.1277C34.7145 81.0433 35.454 81.7976 35.4426 81.8048C35.4426 81.8048 35.0277 81.617 34.5461 81.3769Z" fill="black"/>
</svg>
