<svg width="96" height="96" viewBox="0 0 96 96" fill="none" xmlns="http://www.w3.org/2000/svg">
<path fill-rule="evenodd" clip-rule="evenodd" d="M22 43V53.4544L48 67V56.5456L22 43Z" fill="#B9B9BA"/>
<path fill-rule="evenodd" clip-rule="evenodd" d="M22 59V69.89L48 84V73.11L22 59Z" fill="#B9B9BA"/>
<path fill-rule="evenodd" clip-rule="evenodd" d="M48 67L74 53.4544V43L48 56.5456V67Z" fill="#4D4D4D"/>
<path fill-rule="evenodd" clip-rule="evenodd" d="M48 84L74 69.89V59L48 73.11V84Z" fill="#4D4D4D"/>
<path fill-rule="evenodd" clip-rule="evenodd" d="M74 36V25.9812L48 13V23.0188L74 36Z" fill="#0C0D0D"/>
<path fill-rule="evenodd" clip-rule="evenodd" d="M48 13L22 25.9812V36L48 23.0188V13Z" fill="#4D4D4D"/>
<path fill-rule="evenodd" clip-rule="evenodd" d="M22 27V37.0376L48 50V39.9624L22 27Z" fill="#B9B9BA"/>
<path fill-rule="evenodd" clip-rule="evenodd" d="M48 50L74 37.0376V27L48 39.9624V50Z" fill="#4D4D4D"/>
</svg>
