<svg width="96" height="96" viewBox="0 0 96 96" fill="none" xmlns="http://www.w3.org/2000/svg">
<path d="M65.1024 28.9873C54.5836 19.846 38.6642 20.8224 29.354 31.1809C20.0438 41.5402 20.7302 57.473 30.9273 66.9737C33.3093 69.1155 35.3314 70.1578 37.1145 70.1578C40.5685 70.1578 43.1471 66.2968 46.4799 61.4256C48.4826 58.3146 50.7052 55.3507 53.1308 52.5569C55.6535 49.8585 58.3593 47.3392 61.2312 45.0164C65.5142 41.4117 68.878 38.5767 68.9372 35.3939C68.9675 33.4634 67.6997 31.3667 65.0896 28.9994L65.1024 28.9873ZM53.9619 44.3058C52.3179 45.5876 50.7751 46.9941 49.3471 48.5127C47.9659 50.1266 46.7059 51.8405 45.5776 53.6402C43.8731 56.2194 42.6666 58.0733 41.0523 58.0733C40.4826 58.0426 39.9448 57.8008 39.5437 57.395C37.1721 55.1198 35.7785 52.0113 35.6577 48.727C35.537 45.4427 36.6986 42.2403 38.8968 39.7971C41.0951 37.354 44.1575 35.8618 47.4362 35.6361C50.715 35.4105 53.9529 36.4692 56.4651 38.5882C56.7316 38.7897 56.9489 39.0492 57.1004 39.3471C57.2519 39.6449 57.3338 39.9733 57.3398 40.3074C57.2503 41.6041 55.8924 42.7366 53.9619 44.3058ZM48.0135 12C28.1334 11.9919 12.0081 28.1024 12 47.9852C11.9919 67.8686 28.1024 83.9919 47.9852 84C67.8686 84.0081 83.9919 67.8976 84 48.0148C84.0022 43.2871 83.0731 38.6053 81.2659 34.2368C79.4586 29.8682 76.8085 25.8984 73.4669 22.554C70.1253 19.2097 66.1577 16.5563 61.7906 14.7455C57.4235 12.9346 52.7425 12.0017 48.0148 12H48.0135ZM70.7237 68.4211C59.4352 80.9491 40.1291 81.9618 27.5917 70.6713C14.9264 59.4204 13.7206 40.0746 24.8961 27.3528C30.2641 21.2434 37.8326 17.5076 45.947 16.9623C54.0615 16.4169 62.0618 19.1063 68.199 24.4425C80.9753 35.5541 82.3736 54.8999 71.326 67.7327L70.7244 68.4211H70.7237Z" fill="#4D4D4D"/>
</svg>
