<svg width="96" height="96" viewBox="0 0 96 96" fill="none" xmlns="http://www.w3.org/2000/svg">
<path d="M73.8278 12H22.1745C18.5655 12 15.6923 14.8823 15.6923 18.48V77.52C15.6923 81.1178 18.5655 84 22.1745 84H73.8278C77.4278 84 80.31 81.1178 80.31 77.52V18.48C80.31 14.8823 77.4368 12 73.8278 12ZM76.71 77.52C76.71 79.1378 75.4433 80.4022 73.8278 80.4022H22.1745C20.5568 80.4022 19.2923 79.1355 19.2923 77.52V18.48C19.2923 16.8623 20.559 15.5977 22.1745 15.5977H73.8278C75.4455 15.5977 76.71 16.8645 76.71 18.48V77.52ZM31.8878 73.1933L39.9855 66L31.8878 58.8067V73.1933ZM61.0568 44.04C59.6145 42.5977 56.919 40.8068 52.419 40.8068C47.5568 40.8068 42.5168 42.06 38.919 43.3245V22.8067H31.71V53.94L36.75 51.5978C36.75 51.5978 45.0368 47.8245 52.23 47.8245C55.8278 47.8245 56.73 49.8068 56.73 51.5978V73.1955H63.9368V51.5978C64.1145 51.06 64.1145 47.0977 61.0568 44.04ZM51.5168 34.5H58.71C61.9433 30.7133 63.5723 26.94 64.1123 22.8067H56.919C56.19 26.94 54.3878 30.7155 51.5168 34.5Z" fill="black"/>
</svg>
