<svg width="96" height="96" viewBox="0 0 96 96" fill="none" xmlns="http://www.w3.org/2000/svg">
<g clip-path="url(#clip0_1126_132)">
<path d="M40.4738 38.8581C40.4738 39.2535 40.124 39.6063 39.7225 39.6124C39.5255 39.6109 39.3368 39.533 39.1961 39.3952C39.0554 39.2573 38.9737 39.0702 38.9682 38.8733C38.9637 38.7754 38.9789 38.6776 39.013 38.5858C39.0471 38.4939 39.0993 38.4098 39.1666 38.3386C39.2339 38.2674 39.3148 38.2104 39.4046 38.1711C39.4943 38.1318 39.5911 38.1109 39.689 38.1098C39.7899 38.1066 39.8904 38.1234 39.9847 38.1594C40.079 38.1954 40.1652 38.2499 40.2382 38.3195C40.3112 38.3891 40.3697 38.4726 40.4101 38.5651C40.4506 38.6576 40.4722 38.7572 40.4738 38.8581ZM83.9514 50.0453C83.8723 51.2894 83.7689 52.5334 83.6077 53.7714C83.3715 55.4948 83.0014 57.1972 82.5005 58.8631C81.8184 61.1716 80.9096 63.407 79.7873 65.5365C77.8936 69.1236 75.4151 72.37 72.4539 75.1421C66.072 81.143 57.7377 84.6373 48.9844 84.9819C48.8323 84.988 46.3837 84.9941 46.3442 84.9941C44.8652 84.9489 43.3903 84.8138 41.9277 84.5895C40.0789 84.3062 38.2546 83.8811 36.471 83.3181C34.0574 82.5519 31.7302 81.5366 29.5268 80.2886C26.2261 78.4201 23.2367 76.0485 20.6665 73.2593C15.3973 67.5584 12.09 60.3214 11.2282 52.6064C11.0555 51.0645 10.9813 49.5131 11.0061 47.9618C11.0264 46.6478 11.1146 45.3399 11.2707 44.038C11.8111 39.599 13.1693 35.2984 15.2766 31.3543C16.923 28.2637 19.0056 25.4262 21.4603 22.9289C22.5598 21.8104 23.7302 20.7639 24.9643 19.7959C28.1101 17.3239 31.6409 15.3858 35.4155 14.0594C36.8785 13.5423 38.3659 13.1043 39.8867 12.8092C41.0466 12.5823 42.2144 12.3976 43.3877 12.2557C44.4318 12.1389 45.4799 12.0607 46.5297 12.0214C47.2476 11.988 47.9685 12.0184 48.6893 12.0336C54.2382 12.2049 59.674 13.6461 64.579 16.2463C67.9818 18.0534 71.077 20.3879 73.7496 23.1631C75.2833 24.7498 76.6699 26.4724 77.8924 28.3096C79.8238 31.2119 81.3296 34.3759 82.3636 37.7053C83.045 39.9014 83.5113 42.1421 83.7628 44.4274C83.9696 46.2949 84.0669 48.1686 83.9483 50.0484M51.1896 38.3501C51.3477 38.6147 51.582 38.7607 51.9987 38.7638C52.0838 38.7242 52.2694 38.6725 52.4245 38.5722C54.9089 36.9505 57.4601 35.4334 60.0712 34.0249C60.2759 33.9214 60.4375 33.7491 60.5275 33.5382L62.2795 29.5871C62.4316 29.2434 62.4225 28.9088 62.1548 28.6259C61.8841 28.34 61.5464 28.2944 61.2027 28.4495C60.7222 28.6594 60.2385 28.8662 59.7853 29.1278C58.666 29.7726 57.6775 30.5999 56.7285 31.4699C54.7575 33.2797 53.0024 35.2902 51.3143 37.3616C51.2688 37.4157 51.2281 37.4737 51.1926 37.5349C51.1152 37.6568 51.0742 37.7982 51.0742 37.9425C51.0742 38.0869 51.1122 38.2282 51.1896 38.3501ZM76.11 30.311C75.97 30.2846 75.8281 30.2694 75.6841 30.2654C74.6005 30.2181 73.5151 30.2998 72.4508 30.5087C70.3764 30.8889 68.3932 31.5642 66.4527 32.3641C63.3258 33.6477 60.348 35.2324 57.4402 36.9479C54.153 38.8835 50.9662 40.9849 47.8924 43.2442C47.2628 43.7065 46.5632 43.4936 46.4111 42.7666C46.3503 42.4746 46.2347 42.1978 46.1374 41.9149C45.6365 40.4099 44.6591 39.1089 43.3529 38.2088C42.0468 37.3088 40.483 36.8587 38.8982 36.9266C37.8275 36.9722 36.7995 37.2308 35.8018 37.6019C35.5342 37.7058 35.2411 37.7249 34.9623 37.6566C34.4635 37.541 33.9585 37.4437 33.4597 37.3372L19.9273 34.4902C19.1122 34.3158 18.296 34.1455 17.4788 33.9792C17.3693 33.9579 17.2263 33.8576 17.126 34.0401C17.2263 34.2043 17.4088 34.2013 17.5579 34.2469L34.4847 39.2657C34.7129 39.3326 34.944 39.3995 35.1539 39.509C36.7903 40.3454 37.7941 41.6625 38.1287 43.4723C38.1956 43.819 38.2077 44.181 38.2138 44.5369C38.2321 46.0394 38.1743 47.5451 38.2625 49.0416C38.4298 51.9646 39.6312 54.4405 41.7209 56.4815C43.4607 58.1818 45.2401 59.8425 46.9525 61.5671C49.2885 63.9214 50.5782 66.7897 50.9097 70.0838C50.9354 70.4045 51.0784 70.7044 51.3112 70.9264C53.2214 72.8284 55.1275 74.7325 57.0296 76.6386C57.0965 76.7075 57.1665 76.7735 57.2395 76.8363C57.3534 76.9347 57.494 76.9971 57.6435 77.0155C57.7929 77.0339 57.9445 77.0076 58.079 76.9397C58.2224 76.8786 58.3446 76.7763 58.4301 76.6459C58.5156 76.5155 58.5606 76.3626 58.5595 76.2067C58.5595 76.1357 58.5535 76.0647 58.5413 75.9938C58.314 73.9917 57.9213 72.0119 57.3672 70.0747C56.6074 67.3027 55.2036 64.7493 53.2701 62.6226C52.3515 61.6219 51.3599 60.6912 50.4018 59.7269C50.27 59.6053 50.1432 59.4796 50.0216 59.3498C49.6718 58.9726 49.6748 58.5437 50.0277 58.1727C50.1088 58.0855 50.1929 58.0013 50.2801 57.9202L76.2864 31.9292C76.3837 31.8399 76.475 31.7456 76.5601 31.6463C76.6567 31.5397 76.7231 31.4092 76.7525 31.2684C76.7819 31.1276 76.7732 30.9815 76.7273 30.8452C76.6815 30.7088 76.6001 30.5872 76.4916 30.4927C76.3831 30.3983 76.2513 30.3376 76.11 30.311Z" fill="black"/>
</g>
<defs>
<clipPath id="clip0_1126_132">
<rect width="73" height="73" fill="white" transform="translate(11 12)"/>
</clipPath>
</defs>
</svg>
