<svg width="96" height="96" viewBox="0 0 96 96" fill="none" xmlns="http://www.w3.org/2000/svg">
<g clip-path="url(#clip0_1126_130)">
<path d="M81.75 36.75V59.25H77.25L72.75 45.75V59.25H68.25V36.75H72.75L77.25 50.25V36.75H81.75Z" fill="black"/>
<path d="M60.0004 59.25H53.9996C53.0055 59.2489 52.0524 58.8535 51.3495 58.1505C50.6465 57.4476 50.2511 56.4945 50.25 55.5004V40.4996C50.2511 39.5055 50.6465 38.5524 51.3495 37.8495C52.0524 37.1465 53.0055 36.7511 53.9996 36.75H60.0004C60.9945 36.7511 61.9476 37.1465 62.6505 37.8495C63.3535 38.5524 63.7489 39.5055 63.75 40.4996V55.5004C63.7489 56.4945 63.3535 57.4476 62.6505 58.1505C61.9476 58.8535 60.9945 59.2489 60.0004 59.25ZM54.75 54.75H59.25V41.25H54.75V54.75Z" fill="black"/>
<path d="M42.0004 59.25H32.25V54.75H41.25V50.25H36.75C35.5569 50.2488 34.413 49.7743 33.5693 48.9307C32.7257 48.087 32.2512 46.9431 32.25 45.75V40.4996C32.2511 39.5055 32.6465 38.5524 33.3495 37.8495C34.0524 37.1465 35.0055 36.7511 35.9996 36.75H45.75V41.25H36.75V45.75H41.25C42.4431 45.7512 43.587 46.2257 44.4307 47.0693C45.2743 47.913 45.7488 49.0569 45.75 50.25V55.5004C45.7489 56.4945 45.3535 57.4476 44.6505 58.1505C43.9476 58.8535 42.9945 59.2489 42.0004 59.25Z" fill="black"/>
<path d="M24.0004 59.25H17.9996C17.0055 59.2489 16.0524 58.8535 15.3495 58.1505C14.6465 57.4476 14.2511 56.4945 14.25 55.5004V50.25H18.75V54.75H23.25V36.75H27.75V55.5004C27.7489 56.4945 27.3535 57.4476 26.6505 58.1505C25.9476 58.8535 24.9945 59.2489 24.0004 59.25Z" fill="black"/>
</g>
<defs>
<clipPath id="clip0_1126_130">
<rect width="72" height="72" fill="white" transform="translate(12 12)"/>
</clipPath>
</defs>
</svg>
