<svg width="96" height="96" viewBox="0 0 96 96" fill="none" xmlns="http://www.w3.org/2000/svg">
<path d="M73.5 76C75.2239 76 76.8772 75.3059 78.0962 74.0703C79.3152 72.8348 80 71.1591 80 69.4118V36.4706C80 34.7233 79.3152 33.0475 78.0962 31.812C76.8772 30.5765 75.2239 29.8824 73.5 29.8824H47.825C46.7379 29.8932 45.6655 29.6274 44.706 29.1095C43.7464 28.5915 42.9304 27.8379 42.3325 26.9176L39.7 22.9647C39.1081 22.0538 38.3024 21.306 37.3551 20.7886C36.4078 20.2712 35.3486 20.0002 34.2725 20H21.5C19.7761 20 18.1228 20.6941 16.9038 21.9296C15.6848 23.1652 15 24.8409 15 26.5882V69.4118C15 71.1591 15.6848 72.8348 16.9038 74.0703C18.1228 75.3059 19.7761 76 21.5 76H73.5Z" stroke="#4D4D4D" stroke-width="3" stroke-linecap="round" stroke-linejoin="round"/>
<path d="M37 46C37 47.5913 38.1062 49.1174 40.0754 50.2426C42.0445 51.3679 44.7152 52 47.5 52C50.2848 52 52.9555 51.3679 54.9246 50.2426C56.8938 49.1174 58 47.5913 58 46C58 44.4087 56.8938 42.8826 54.9246 41.7574C52.9555 40.6321 50.2848 40 47.5 40C44.7152 40 42.0445 40.6321 40.0754 41.7574C38.1062 42.8826 37 44.4087 37 46Z" fill="white" stroke="#4D4D4D" stroke-width="1.33" stroke-linecap="round" stroke-linejoin="round"/>
<path d="M37 45V57.2727C37 60.4342 41.6987 63 47.5 63C53.3013 63 58 60.4342 58 57.2727V45" stroke="#4D4D4D" stroke-width="1.33" stroke-linecap="round" stroke-linejoin="round"/>
</svg>
