<svg width="96" height="96" viewBox="0 0 96 96" fill="none" xmlns="http://www.w3.org/2000/svg">
<path d="M22 38.25V30.0345C22 29.0254 22.2349 28.0301 22.6862 27.1276L25.25 22H41.5L44.75 28.5H77.25C79.045 28.5 80.5 29.9551 80.5 31.75V38.25V67.5C80.5 71.0899 77.5899 74 74 74H67.5" stroke="#4D4D4D" stroke-width="3" stroke-linecap="round" stroke-linejoin="round"/>
<path d="M65.0177 38.25H16.5051C14.3621 38.25 12.8057 40.2877 13.3696 42.3551L20.6937 69.2101C21.465 72.0383 24.0335 74 26.9647 74H72.9951C75.1378 74 76.6943 71.9623 76.1304 69.8949L68.1533 40.6449C67.7675 39.2309 66.4834 38.25 65.0177 38.25Z" stroke="#4D4D4D" stroke-width="3"/>
</svg>
