<svg width="96" height="96" viewBox="0 0 96 96" fill="none" xmlns="http://www.w3.org/2000/svg">
<path d="M77.9853 25.774C77.8902 25.7632 77.7787 25.7577 77.6672 25.7577C76.2616 25.7577 75.0871 26.7474 74.8017 28.0659L74.799 28.085C75.2231 28.4466 75.7777 28.6695 76.3867 28.6695C77.7379 28.6695 78.8363 27.5739 78.8363 26.2199C78.8363 26.0731 78.8227 25.9263 78.7982 25.7876L78.801 25.8012C78.6025 25.7822 78.3741 25.7713 78.143 25.7713C78.0886 25.7713 78.0315 25.7713 77.9772 25.774H77.9853ZM84.997 24.7763C84.9345 24.7926 84.8556 24.8769 84.755 25.0536C84.0427 26.2063 83.6213 27.6038 83.6213 29.0991C83.6213 29.1099 83.6213 29.1208 83.6213 29.1317V29.129C83.6295 29.6836 83.8932 29.4335 83.8959 29.0773C83.9068 27.6092 84.3282 26.2417 85.0514 25.0835L85.0323 25.1161C85.1193 24.9013 85.0976 24.7436 84.997 24.7763ZM84.6354 24.4663C84.5783 24.4799 84.4859 24.5533 84.3744 24.7246C83.4663 25.9562 82.8383 27.4515 82.6154 29.0746L82.6099 29.1235C82.5664 29.6727 82.8573 29.4525 82.8927 29.0964C83.1238 27.4624 83.7436 26.0079 84.6599 24.7844L84.6435 24.8089C84.7523 24.605 84.7387 24.4419 84.6354 24.4663ZM84.301 24.0585C84.2439 24.0667 84.146 24.1319 84.0155 24.2923C82.841 25.5647 81.9438 27.1144 81.4327 28.8299L81.411 28.9115C81.3185 29.4552 81.6285 29.2622 81.6883 28.9088C82.2157 27.1497 83.1102 25.6381 84.2847 24.3956L84.2792 24.4011C84.4043 24.2053 84.4016 24.0449 84.301 24.0585ZM84.0291 23.6072C83.9013 23.6371 83.7926 23.7051 83.7137 23.7975C82.3245 25.1732 81.2016 26.8153 80.4213 28.6369L80.3833 28.7375C80.2147 29.2649 80.5464 29.1099 80.6606 28.7701C81.4844 26.8942 82.5963 25.2955 83.9584 23.947C84.1107 23.7703 84.1324 23.6099 84.0264 23.6072H84.0291ZM84.5402 22.9384C84.8447 23.9824 85.3259 24.4609 87.3976 24.6512C86.9436 27.0328 85.451 28.993 83.4201 30.0751L83.3793 30.0941C81.4653 31.217 79.8585 32.6443 78.5699 34.3272L78.54 34.368C76.5525 38.3754 74.7854 43.0734 73.494 47.9672L73.3743 48.5001C72.2025 53.7038 69.4566 58.1435 65.6721 61.4087L65.6422 61.4332C65.1338 60.2097 66.2186 59.5029 65.7428 58.3854C64.8293 60.642 63.9294 62.4989 62.9262 64.2878L63.0621 64.0269C60.5092 69.2441 55.6889 73.015 49.9197 74.0726L49.8082 74.0889C53.4377 69.845 55.7976 64.4184 56.2435 58.4616L56.2489 58.3691C54.8895 58.6655 54.7808 62.3249 52.5868 63.668C52.41 63.6734 52.2007 63.6734 51.9941 63.6734C50.3166 63.6734 48.6718 63.5239 47.0759 63.233L47.2444 63.2574C45.2108 62.8986 42.87 62.6919 40.4802 62.6919C36.7392 62.6919 33.1178 63.1949 29.6759 64.141L29.9613 64.0731C25.4754 66.3106 21.816 68.4013 18.2761 70.6688L18.7764 70.3697C16.5606 71.4681 13.9506 72.1124 11.1911 72.1124C10.4298 72.1124 9.67946 72.0635 8.94268 71.9683L9.02968 71.9765C8.43971 71.1826 12.4336 70.1549 12.2106 68.4204C10.3891 68.2246 9.32874 68.6623 7.74643 67.9446C7.93674 67.6129 8.1923 67.341 8.4968 67.1344L8.50496 67.1289C11.4059 65.1252 19.641 66.6532 21.8459 64.489C23.0095 63.2792 24.0589 61.9389 24.9616 60.5006L25.0214 60.3973C25.9376 58.9564 27.0088 57.7221 28.2376 56.6618L28.2594 56.6427C28.7814 56.2186 29.597 55.4845 30.2006 55.0686C32.5197 53.5352 35.1895 52.2329 38.0224 51.2895L38.2644 51.2188C42.2528 49.8159 46.2847 49.3429 50.5395 47.7198C53.3806 46.7709 55.8465 45.5176 58.0868 43.9598L57.9916 44.0223C58.6822 43.4976 59.2912 42.981 59.8703 42.4318L59.8594 42.4427C67.4012 34.996 67.8797 24.8551 78.2572 23.7894C79.5133 23.6589 80.541 23.7024 81.4789 23.6724C81.5143 23.6724 81.555 23.6724 81.5985 23.6724C82.6779 23.6724 83.692 23.3979 84.5783 22.9139L84.5457 22.9302L84.5402 22.9384ZM86.4869 21.4268C85.2335 21.4703 85.5978 22.0358 82.8845 22.7046C79.5513 22.9737 76.4873 23.5039 73.5239 24.2869L73.8936 24.2053C66.1914 27.4325 64.9435 39.9143 55.7677 44.7428C50.7135 47.176 44.822 49.2069 38.6695 50.5419L38.1366 50.6397C34.1536 51.9801 30.709 53.9267 27.7156 56.4008L27.77 56.3573C25.2661 58.5159 24.6543 60.6121 22.0389 63.3227C19.3827 66.9305 9.31786 63.7224 6.72961 68.2491C7.60233 68.8771 8.69255 69.2523 9.86977 69.2523C10.3727 69.2523 10.8594 69.1843 11.3189 69.0565L11.2808 69.0647C10.786 70.0027 7.63224 71.2397 8.20318 72.6263C9.20096 72.7839 10.351 72.8737 11.5228 72.8737C15.4595 72.8737 19.157 71.8596 22.3733 70.0788L22.2591 70.1359C25.2688 68.2246 28.7569 66.7048 32.4762 65.7696L32.7236 65.7179C32.797 65.7179 32.8813 65.7179 32.9683 65.7179C39.999 65.7179 46.8747 66.3894 53.5329 67.6754L52.8559 67.5667C51.3062 70.3262 49.743 72.6779 48.0274 74.9073L48.1307 74.7659C47.6142 75.3205 48.5712 75.8099 50.3384 75.4755C53.2855 74.8611 55.8928 73.7409 58.1955 72.1994L58.1167 72.2511C60.7294 70.2745 62.9697 67.9908 64.8375 65.4161L64.9027 65.3237C67.0913 68.8309 74.8017 69.6057 76.3867 66.5716C73.4423 65.3237 72.8115 58.8368 73.8229 56.0364C74.8832 53.3503 75.9164 50.028 76.7265 46.6187L76.8326 46.0885C77.7026 42.9294 78.2355 38.109 79.2713 35.6404C80.511 32.5736 82.9171 31.6139 84.7251 29.9881C86.8756 28.5879 88.2785 26.1954 88.2785 23.474C88.2785 23.406 88.2785 23.338 88.2758 23.2728V23.2837C88.254 22.0738 87.6314 21.405 86.4923 21.4376L86.4869 21.4268Z" fill="black"/>
</svg>
