<svg width="96" height="96" viewBox="0 0 96 96" fill="none" xmlns="http://www.w3.org/2000/svg">
<g clip-path="url(#clip0_1131_471)">
<path d="M84.3867 82.2359L82.8627 80.7839C82.1097 79.7909 81.3087 78.9119 80.4357 78.1109L80.4207 78.0989C79.5247 77.2849 78.5937 76.5109 77.6277 75.7769C76.8537 75.2449 75.7897 74.6039 74.4357 73.8539C73.3227 73.3529 72.4527 72.4739 71.9817 71.3819L71.9697 71.3519L71.8257 71.2799C72.4617 71.2169 73.0437 71.0999 73.6017 70.9349L73.5327 70.9529L75.2427 70.4819C75.9507 70.2599 76.7697 70.1159 77.6187 70.0829H77.6367C78.5307 70.0469 79.3737 69.9029 80.1777 69.6659L80.1027 69.6839C80.4907 69.5879 80.8897 69.4789 81.2997 69.3569C81.7097 69.2349 82.0607 69.1259 82.3527 69.0299V68.5229C82.0627 68.0889 81.7117 67.5929 81.2997 67.0349C80.9067 66.5009 80.4657 66.0359 79.9707 65.6309L79.9557 65.6189C78.6977 64.5069 77.3947 63.4309 76.0467 62.3909C74.8587 61.4639 73.5117 60.5189 72.1137 59.6429L71.9097 59.5229C71.1717 59.0369 70.3257 58.5869 69.4347 58.2179L69.3327 58.1819C68.4367 57.8179 67.5537 57.4189 66.6837 56.9849C66.3927 56.8409 66.0537 56.7149 65.7027 56.6279L65.6697 56.6219C65.3187 56.5499 65.0187 56.3699 64.7997 56.1149L64.7967 56.1119C64.3827 55.5659 64.0197 54.9449 63.7317 54.2849L63.7077 54.2249C63.4177 53.5469 63.1037 52.8959 62.7657 52.2719C62.0397 50.8679 61.3377 49.4409 60.6597 47.9909C59.9817 46.5409 59.3307 45.0889 58.7067 43.6349C58.2727 42.6669 57.8737 41.6999 57.5097 40.7339C57.1077 39.6719 56.6547 38.7629 56.1267 37.9079L56.1657 37.9769C54.8697 35.7689 53.5767 33.8849 52.1727 32.0939L52.2567 32.2079C50.8677 30.4559 49.4277 28.8899 47.8797 27.4379L47.8557 27.4169C46.3287 25.9829 44.6847 24.6149 42.9597 23.3489L42.8127 23.2439C41.0207 21.9419 39.0607 20.6599 36.9327 19.3979C36.0777 18.8939 35.0847 18.4829 34.0377 18.2189L33.9597 18.2009L30.6207 17.3669L28.7337 17.2229C28.1057 17.1749 27.4767 17.1509 26.8467 17.1509C26.4027 16.9169 26.0217 16.6379 25.6857 16.3139C25.3557 15.9989 24.9987 15.7019 24.6267 15.4289L24.5967 15.4079C22.7817 14.3489 20.6727 13.3799 18.4677 12.6179L18.2127 12.5399C17.6337 12.2009 16.9377 12.0029 16.1967 12.0029C15.6687 12.0029 15.1617 12.1049 14.6997 12.2879L14.7267 12.2789C13.5867 12.7319 12.7167 13.6529 12.3417 14.7989L12.3327 14.8289C12.1137 15.3449 11.9877 15.9419 11.9877 16.5719C11.9877 17.6759 12.3777 18.6869 13.0287 19.4759L13.0227 19.4669C14.1107 20.9169 14.9447 22.0569 15.5247 22.8869C15.9587 23.4689 16.4067 24.0739 16.8687 24.7019C17.2917 25.2659 17.6667 25.9109 17.9697 26.5919L17.9937 26.6549C18.1617 27.0119 18.3087 27.4379 18.4167 27.8759L18.4257 27.9239C18.5217 28.3359 18.6427 28.7839 18.7887 29.2679C19.2227 30.3799 19.6337 31.5199 20.0217 32.6879C20.4447 33.9629 20.9127 35.0429 21.4557 36.0719L21.3987 35.9519C21.6887 36.4839 21.9797 37.0039 22.2717 37.5119C22.5637 38.0199 22.8777 38.5159 23.2137 38.9999C23.4087 39.2939 23.6547 39.5369 23.9367 39.7259L23.9457 39.7319C24.2427 39.9479 24.4377 40.2869 24.4527 40.6709C24.1107 41.1749 23.8797 41.7809 23.8017 42.4319L23.7987 42.4499C23.6937 43.2089 23.5437 43.8839 23.3397 44.5349L23.3637 44.4449C22.6947 46.4429 22.3107 48.7469 22.3107 51.1379C22.3107 51.9119 22.3497 52.6739 22.4307 53.4269L22.4217 53.3339C22.6017 56.2079 23.4687 58.8479 24.8577 61.1339L24.8157 61.0589C25.4067 61.9439 26.0397 62.7149 26.7387 63.4199C27.2427 63.9839 27.9747 64.3379 28.7907 64.3379C29.2467 64.3379 29.6787 64.2269 30.0567 64.0289L30.0417 64.0349C31.0917 63.6569 31.8387 62.6969 31.8927 61.5539V61.5479C32.0367 60.1259 32.2527 58.8539 32.5497 57.6119L32.5107 57.8129C32.5827 57.6239 32.6247 57.4079 32.6247 57.1799C32.6247 57.1349 32.6217 57.0899 32.6187 57.0449V57.0509C32.5947 56.8329 32.7277 56.6269 33.0177 56.4329V56.5769C33.3077 57.2549 33.6097 57.9319 33.9237 58.6079C34.2377 59.2839 34.5637 59.9609 34.9017 60.6389C35.7867 61.9859 36.7257 63.1619 37.7577 64.2449L37.7487 64.2359C38.7837 65.3519 39.9117 66.3539 41.1297 67.2389L41.1957 67.2839C41.8317 67.7699 42.3897 68.2949 42.8937 68.8679L42.9057 68.8799C43.3797 69.4379 43.9467 69.8969 44.5857 70.2419L44.6157 70.2569V70.1849H44.7597C44.6427 69.9239 44.4537 69.7139 44.2197 69.5699L44.2137 69.5669C43.9767 69.4349 43.7727 69.3029 43.5807 69.1589L43.5957 69.1679C43.1617 68.7339 42.7137 68.2499 42.2517 67.7159C41.7897 67.1819 41.3667 66.6739 40.9827 66.1919C39.9667 64.7879 38.9977 63.3209 38.0757 61.7909C37.1537 60.2609 36.2827 58.7059 35.4627 57.1259C35.0747 56.3519 34.6997 55.5539 34.3377 54.7319C33.9757 53.9099 33.6247 53.1119 33.2847 52.3379C33.1377 52.0409 33.0357 51.6989 32.9967 51.3359V51.3209C32.9787 50.9759 32.7807 50.6789 32.4927 50.5259L32.4867 50.5229C32.1237 51.1409 31.7217 51.6749 31.2627 52.1579L31.2657 52.1549C30.7887 52.6559 30.3987 53.2469 30.1197 53.8949L30.1047 53.9339C29.6817 54.9599 29.3727 56.1509 29.2377 57.3959L29.2317 57.4529C29.0877 58.7349 28.9427 60.0529 28.7967 61.4069L28.6527 61.4789L28.5807 61.5509C27.8007 61.3919 27.1587 60.8939 26.8107 60.2219L26.8047 60.2069C26.4407 59.5049 26.1147 58.8149 25.8267 58.1369C25.0827 56.2259 24.6207 54.0149 24.5577 51.7049V51.6779C24.5307 51.3119 24.5187 50.8829 24.5187 50.4539C24.5187 48.4559 24.8337 46.5299 25.4157 44.7239L25.3797 44.8559C25.5237 44.3239 25.8377 43.4279 26.3217 42.1679C26.8057 40.9079 26.9027 40.0369 26.6127 39.5549C26.4627 39.0599 26.1837 38.6429 25.8177 38.3249L25.8147 38.3219C25.4487 38.0039 25.1157 37.6709 24.8097 37.3169L24.8007 37.3049C24.4627 36.8169 24.1367 36.2969 23.8227 35.7449C23.5087 35.1929 23.2307 34.6489 22.9887 34.1129C22.4937 32.9669 21.9867 31.5299 21.5667 30.0539L21.5007 29.7869C21.0237 28.0919 20.4927 26.6579 19.8627 25.2779L19.9407 25.4699C19.6077 24.7139 19.2207 24.0599 18.7707 23.4629L18.7887 23.4869C18.3007 22.8349 17.8647 22.2179 17.4807 21.6359C16.9927 21.0079 16.5087 20.4029 16.0287 19.8209C15.5397 19.2299 15.1047 18.5639 14.7507 17.8499L14.7237 17.7899C14.5797 17.4989 14.4537 17.1599 14.3667 16.8089L14.3607 16.7759C14.3277 16.6709 14.3097 16.5479 14.3097 16.4249C14.3097 16.1789 14.3817 15.9479 14.5077 15.7559L14.5047 15.7619C14.5377 15.5939 14.6157 15.4469 14.7237 15.3269C14.8407 15.2219 14.9907 15.1439 15.1527 15.1109H15.1587C15.4137 14.9459 15.7227 14.8469 16.0587 14.8469C16.3107 14.8469 16.5537 14.9039 16.7667 15.0059L16.7577 15.0029C17.4147 15.1889 17.9457 15.3749 18.4647 15.5879L18.3567 15.5489C19.2747 15.9369 20.1217 16.3119 20.8977 16.6739C21.7917 17.0999 22.5537 17.5499 23.2737 18.0509L23.2197 18.0149C23.6077 18.2569 23.9947 18.5229 24.3807 18.8129C24.7667 19.1029 25.1777 19.3939 25.6137 19.6859H26.6307C27.4047 19.6859 28.2267 19.7229 29.0967 19.7969C29.9757 19.8659 30.7887 20.0309 31.5627 20.2889L31.4907 20.2679C32.9337 20.6969 34.1727 21.2039 35.3487 21.8129L35.2257 21.7559C36.4117 22.3599 37.5367 23.0009 38.6007 23.6789C40.3677 24.7799 41.8947 25.9079 43.3317 27.1409L43.2807 27.0989C44.7807 28.3829 46.1427 29.6999 47.4207 31.0919L47.4507 31.1279C48.6987 32.4899 49.8897 33.9689 50.9787 35.5199L51.0717 35.6609C52.0737 37.0769 53.0847 38.7149 53.9937 40.4129L54.1197 40.6679C54.3627 41.1299 54.6087 41.6969 54.8217 42.2759L54.8547 42.3749C55.0487 42.9309 55.2657 43.5009 55.5057 44.0849C56.0377 45.2949 56.6077 46.5159 57.2157 47.7479C57.8237 48.9799 58.3937 50.1779 58.9257 51.3419L60.5217 54.8249C61.0827 56.0429 61.7097 57.0929 62.4387 58.0619L62.4057 58.0169C63.0147 58.6679 63.8277 59.1239 64.7397 59.2829L64.7637 59.2859C65.8677 59.5619 66.7977 59.8739 67.6977 60.2429L67.5567 60.1919C67.9857 60.3869 68.5377 60.5939 69.1047 60.7769L69.2247 60.8099C69.8607 61.0049 70.4127 61.2629 70.9197 61.5869L70.8927 61.5719C71.8737 62.1209 72.7047 62.6609 73.4967 63.2489L73.4337 63.2039C74.2557 63.8079 75.0777 64.3779 75.8997 64.9139C76.2877 65.2039 76.9387 65.6269 77.8527 66.1829C78.7667 66.7389 79.2507 67.2589 79.3047 67.7429C78.9627 67.7309 78.5577 67.7219 78.1527 67.7219C76.6767 67.7219 75.2247 67.8179 73.8027 68.0039L73.9707 67.9859C72.3627 68.2019 70.9047 68.5949 69.5337 69.1559L69.6537 69.1139C69.3147 69.2609 68.9097 69.3959 68.4897 69.5009L68.4327 69.5129C68.0067 69.5759 67.6767 69.9179 67.6347 70.3439C67.8177 70.5719 67.9647 70.8389 68.0637 71.1269L68.0697 71.1449C68.1717 71.4509 68.2947 71.7149 68.4447 71.9609L68.4357 71.9429C68.7927 72.5759 69.1767 73.1219 69.6087 73.6259L69.5967 73.6109C70.0197 74.1329 70.4967 74.5859 71.0247 74.9729L71.0457 74.9879C71.5337 75.3759 72.0417 75.7749 72.5697 76.1849C73.0527 76.5629 73.5987 76.9349 74.1657 77.2709L74.2377 77.3099C75.0897 77.8319 76.0797 78.3299 77.1117 78.7469L77.2497 78.7949C78.3717 79.2449 79.3347 79.7669 80.2287 80.3879L80.1807 80.3549C80.7627 80.6929 81.3427 81.0679 81.9207 81.4799C82.4987 81.8919 83.0547 82.2909 83.5887 82.6769C83.8077 82.8929 83.9997 83.1329 84.1617 83.3939L84.1707 83.4089C84.4437 83.7209 84.8217 83.9339 85.2507 83.9879H85.2597V83.8439C84.9957 83.6429 84.8007 83.3639 84.7077 83.0429L84.7047 83.0309C84.6297 82.7249 84.5187 82.4579 84.3687 82.2119L84.3747 82.2239L84.3867 82.2359ZM28.6587 24.6209C28.2707 24.6209 27.9077 24.6329 27.5697 24.6569C27.2247 24.6809 26.9037 24.7439 26.6007 24.8459L26.6277 24.8369V24.9089H26.7717C26.9657 25.1989 27.2097 25.5249 27.5037 25.8869C27.7977 26.2489 28.0637 26.5999 28.3017 26.9399L29.4627 29.3339L29.6067 29.2619C29.9457 29.0159 30.2067 28.6859 30.3627 28.2989L30.3687 28.2839C30.5247 27.8669 30.6147 27.3809 30.6147 26.8769C30.6147 26.8229 30.6147 26.7689 30.6117 26.7149V26.7239C30.4767 26.5919 30.3657 26.4359 30.2877 26.2619L30.2847 26.2529L30.0417 25.7069C29.8827 25.4549 29.6607 25.2569 29.3997 25.1309L29.3907 25.1279C29.1087 24.9929 28.8687 24.8219 28.6587 24.6209Z" fill="black"/>
</g>
<defs>
<clipPath id="clip0_1131_471">
<rect width="72" height="72" fill="white" transform="translate(12 12)"/>
</clipPath>
</defs>
</svg>
