<svg width="96" height="96" viewBox="0 0 96 96" fill="none" xmlns="http://www.w3.org/2000/svg">
<path fill-rule="evenodd" clip-rule="evenodd" d="M12 25.2414C12 18.4807 17.5577 13 24.4135 13H71.5848C78.4406 13 83.9983 18.4807 83.9983 25.2414V64.8042C83.9983 71.7986 75.0228 74.834 70.6698 69.312L57.061 52.0485V72.9828C57.061 79.0674 52.0591 84 45.8888 84H24.4135C17.5577 84 12 78.5193 12 71.7586V25.2414ZM24.4135 22.7931C23.0423 22.7931 21.9308 23.8892 21.9308 25.2414V71.7586C21.9308 73.1107 23.0423 74.2069 24.4135 74.2069H46.2612C46.9468 74.2069 47.1302 73.6588 47.1302 72.9828V44.9099C47.1302 37.9156 56.1056 34.88 60.4586 40.4021L74.0675 57.6656V25.2414C74.0675 23.8892 74.1973 22.7931 72.8261 22.7931H24.4135Z" fill="#0C0D0D"/>
<path d="M71.5866 13C78.4423 13 84 18.4807 84 25.2414V64.8042C84 71.7986 75.0247 74.834 70.6717 69.312L57.0628 52.0485V72.9828C57.0628 79.0674 52.0608 84 45.8906 84C46.5762 84 47.132 83.4519 47.132 82.7758V44.9099C47.132 37.9156 56.1073 34.88 60.4603 40.4021L74.0692 57.6656V15.4483C74.0692 14.0961 72.9577 13 71.5866 13Z" fill="#0C0D0D"/>
</svg>
