<svg width="96" height="96" viewBox="0 0 96 96" fill="none" xmlns="http://www.w3.org/2000/svg">
<path d="M60.6688 62.8959H35.348C27.3275 62.7261 20.8904 56.1211 20.8904 48C20.8904 39.8789 27.3275 33.2739 35.3336 33.1041H35.3504H60.6712C60.6784 33.1041 60.688 33.1041 60.6976 33.1041C68.8455 33.1041 75.4532 39.7722 75.4532 48C75.4532 56.2278 68.8479 62.8959 60.6976 62.8959C60.688 62.8959 60.6784 62.8959 60.6688 62.8959ZM61.2479 25H34.7642C22.1879 25.0097 12 35.3042 12 48C12 60.6886 22.1759 70.9757 34.7377 71H61.2479C73.8169 70.9806 84 60.691 84 48C84 35.309 73.8145 25.0194 61.2479 25Z" fill="black"/>
</svg>
