<svg width="96" height="96" viewBox="0 0 96 96" fill="none" xmlns="http://www.w3.org/2000/svg">
<g clip-path="url(#clip0_1152_23)">
<path d="M45.6312 76.2223C42.7925 73.1938 42.708 73.0629 43.2185 72.4899C44.0273 71.5822 78.5287 40.0046 79.0149 39.7151C79.4434 39.4677 83.6724 41.5096 84.5974 42.4103C84.9516 42.7555 82.2032 45.6935 67.2086 60.9915C57.4132 70.9883 49.2062 79.2139 48.9862 79.2602C48.7586 79.3105 47.2485 77.9392 45.6312 76.2131V76.2223ZM198.102 75.9094C197.831 75.6388 197.725 73.954 197.725 69.9275C197.725 66.8445 197.644 64.3219 197.545 64.3219C197.445 64.3219 196.656 64.9415 195.791 65.6984C193.728 67.5033 191.923 68.0926 188.898 67.9478C182.16 67.6246 178.132 61.7992 178.132 52.3766C178.132 46.4897 179.522 42.4134 182.489 39.6071C185.591 36.6723 189.96 35.8955 193.59 37.6344C194.601 38.1185 195.832 38.9449 196.328 39.4717C196.823 39.9982 197.332 40.4291 197.46 40.4291C197.587 40.4291 197.734 39.7743 197.785 38.9738L197.879 37.5186L205.694 37.347L205.615 56.7271L205.537 76.1071L202.008 76.1928C199.523 76.2531 198.368 76.167 198.103 75.9018L198.102 75.9094ZM194.417 60.454C198.757 58.237 199.152 47.9276 195.016 44.767C193.511 43.619 190.915 43.4773 189.462 44.4652C187.323 45.9181 186.085 48.8031 186.085 52.3318C186.085 58.778 190.078 62.6702 194.416 60.4532L194.417 60.454ZM37.8942 68.1747C36.3637 66.6362 35.3959 65.4275 35.4931 65.1763C35.6676 64.7217 55.4983 48.6905 55.8688 48.7021C56.3259 48.7192 60.9928 52.2655 60.9928 52.5955C60.9928 52.9429 41.0571 70.7483 40.6635 70.7483C40.5475 70.7483 39.2997 69.5883 37.8896 68.1713L37.8942 68.1747ZM252.997 67.8365C250.378 67.2677 248.336 66.0848 246.318 63.9686C243.484 60.9979 242.195 57.3847 242.203 52.4343C242.215 45.6686 245.111 40.3594 250.149 37.8819C252.025 36.9582 252.338 36.9011 255.517 36.9011C258.541 36.9011 259.076 36.9869 260.65 37.7244C265.445 39.9716 268.41 45.877 268.172 52.7052L268.082 55.2776L259.362 55.3591C254.567 55.4039 250.524 55.5597 250.378 55.7052C249.951 56.1323 251.372 59.029 252.49 60.0107C254.933 62.1548 258.399 62.0193 261.7 59.6506L263.098 58.6468L264.309 60.0256C264.975 60.7837 265.886 61.871 266.334 62.4418L267.147 63.4794L265.776 64.7066C263.359 66.8715 259.418 68.3349 256.171 68.2712C255.478 68.2578 254.05 68.0598 252.996 67.831L252.997 67.8365ZM260.055 49.8457C260.523 49.4971 260.53 49.3143 260.129 47.8069C259.044 43.726 255.33 42.0161 252.581 44.3303C251.496 45.2434 250.934 46.2649 250.441 48.2226C250.138 49.4266 250.148 49.7253 250.502 49.9487C251.19 50.3846 259.452 50.2954 260.055 49.8457ZM133.633 67.5702C129.557 66.0536 127.312 61.5351 128.2 56.6368C128.819 53.2239 130.345 51.1793 133.251 49.8723C135.32 48.9411 140.215 48.7088 142.677 49.4248C143.61 49.6959 144.439 49.9176 144.522 49.9176C144.92 49.9176 145.015 48.8033 144.712 47.6635C144.334 46.236 143.491 45.1918 142.133 44.4682C140.758 43.7354 137.323 43.8436 134.646 44.7042C133.387 45.1091 132.347 45.2937 132.209 45.1368C131.869 44.75 130.341 40.2756 130.341 39.6666C130.341 38.502 135.659 37.0236 139.973 36.9877C145.064 36.946 148.378 38.2102 150.399 40.9644C152.496 43.8228 152.548 44.2002 152.548 56.5009V67.528L149.052 67.6151C147.129 67.663 145.433 67.5797 145.282 67.43C145.132 67.2803 144.953 66.7054 144.883 66.1519C144.813 65.599 144.687 65.0781 144.603 64.9944C144.52 64.9107 143.962 65.2716 143.365 65.7962C141.496 67.4367 140.522 67.7875 137.539 67.8952C135.706 67.9613 134.397 67.8513 133.633 67.5671L133.633 67.5702ZM142.714 61.476C144.304 60.5649 145.044 59.112 145.044 56.9019C145.044 54.715 144.66 54.4522 141.215 54.2751C139.022 54.1621 138.652 54.2254 137.697 54.8761C136.232 55.874 135.806 56.8072 135.943 58.7197C136.12 61.2053 137.2 62.1199 139.989 62.1466C141.034 62.1558 141.899 61.9428 142.714 61.476ZM217.688 67.6014C215.997 67.0605 213.777 64.8183 212.982 62.8467C212.287 61.1264 212.276 60.9076 212.275 49.3015L212.275 37.5045L220.055 37.3333L220.147 47.5269C220.228 56.5941 220.299 57.8305 220.781 58.7138C222.38 61.6405 226.567 61.6174 228.142 58.6746C228.79 57.4625 228.819 57.0353 228.914 47.3742L229.013 37.3334L236.779 37.5045L236.859 52.1727C236.917 62.9347 236.844 66.9566 236.584 67.2692C236.31 67.5994 235.423 67.6769 232.675 67.6105L229.121 67.5246L229.025 66.1457C228.973 65.3877 228.814 64.65 228.674 64.5076C228.533 64.3647 227.818 64.833 227.085 65.5483C225.164 67.4237 223.764 67.9748 221.004 67.9459C219.741 67.9323 218.247 67.7745 217.687 67.5952L217.688 67.6014ZM279.44 67.699C277.628 67.1233 276.481 66.1246 275.622 64.3753L274.765 62.6294L274.564 44.0945H273.399C271.714 44.0945 271.51 43.6716 271.612 40.3736C271.698 37.5731 271.717 37.5071 272.466 37.4238C274.734 37.1699 274.61 37.3909 274.61 33.5825C274.61 31.303 274.735 30.0017 274.978 29.7598C275.499 29.2384 282.141 29.252 282.48 29.7751C282.616 29.9857 282.797 31.7432 282.881 33.68L283.034 37.2029L288.721 37.3794L288.634 40.6603L288.547 43.9413L282.88 44.1175V51.917C282.88 61.739 282.679 61.394 287.935 60.5778C288.507 60.4887 288.553 60.6788 288.635 63.4813L288.723 66.4798L287.257 67.1491C285.657 67.8796 281.034 68.2028 279.439 67.6958L279.44 67.699ZM98.0268 67.3104C97.9443 67.0946 97.9125 58.1657 97.9562 47.4673L98.0356 28.0177L106.306 28.0359C114.059 28.0529 114.701 28.0971 116.568 28.7424C122.014 30.6249 124.989 34.6259 125.37 40.5742C125.759 46.651 123.002 51.6373 118.008 53.8879C115.405 55.0606 113.412 55.4311 109.698 55.4311C107.447 55.4311 106.437 55.548 106.197 55.8368C105.987 56.0905 105.829 58.3571 105.777 61.887L105.693 67.5308L101.935 67.6168C99.0991 67.6817 98.1403 67.6063 98.0268 67.3104ZM113.656 47.502C115.917 46.4587 117.189 44.3669 117.165 41.7343C117.126 37.4924 115.024 35.6401 109.87 35.3055C105.657 35.0325 105.845 34.7436 105.845 41.4796C105.845 44.5765 105.928 47.3283 106.031 47.5946C106.317 48.3417 111.985 48.2715 113.655 47.5001L113.656 47.502ZM159.177 67.2641C158.927 66.9629 158.852 62.7537 158.91 52.1791L158.989 37.511L162.794 37.4245C165.631 37.36 166.662 37.4378 166.848 37.7308C166.985 37.9468 167.099 38.8472 167.102 39.7313C167.106 41.3058 167.508 41.8754 167.85 40.7957C168.091 40.0388 170.1 38.0219 171.16 37.4731C171.645 37.2227 172.723 36.937 173.556 36.8383L175.071 36.6589V45.2676L173.77 45.4843C171.604 45.845 170.212 46.5543 169.084 47.8715C167.332 49.9184 167.107 51.2219 167.107 59.3352C167.107 63.687 166.983 66.7306 166.79 67.0907C166.505 67.623 166.12 67.6832 162.999 67.6832C160.438 67.6832 159.433 67.5733 159.177 67.2653L159.177 67.2641ZM30.6713 60.7774C29.473 59.4391 28.7205 58.3578 28.8826 58.2073C29.7184 57.4272 38.3411 51.4475 38.6259 51.4509C39.0894 51.4567 43.2509 55.0248 43.2509 55.4173C43.2509 55.8991 33.9129 63.0871 33.2865 63.0871C32.985 63.0871 31.8081 62.0477 30.6713 60.7774ZM24.7288 54.6786C23.013 52.9432 22.8081 52.6191 23.1971 52.2579C23.7555 51.7391 51.1674 34.0471 51.7231 33.8387C52.1616 33.6795 55.958 35.9782 55.958 36.403C55.958 36.7066 27.8604 56.3851 27.1773 56.5588C26.9057 56.6284 25.8784 55.8384 24.7288 54.6752V54.6786ZM43.009 51.8839C41.8773 50.9446 40.9575 50.0142 40.9645 49.8163C40.9714 49.6184 41.9713 48.7586 43.185 47.9049C44.3994 47.0518 49.8418 43.1583 55.283 39.2522C60.7208 35.346 65.3945 32.1496 65.6677 32.1496C66.3996 32.1496 70.1052 34.2914 69.9859 34.6468C69.8141 35.1622 46.0329 53.5869 45.5351 53.5869C45.2769 53.5892 44.1401 52.8222 43.0078 51.8828L43.009 51.8839ZM19.2065 49.1251C17.8554 47.6965 17.6598 47.3515 18.0129 47.0297C18.319 46.7506 35.2975 36.7214 37.3466 35.6077C37.6858 35.4236 41.2852 38.0204 41.1705 38.3654C41.0217 38.8121 21.8715 50.8339 21.3043 50.8339C21.0338 50.8341 20.0852 50.065 19.1961 49.1251H19.2065ZM60.2588 49.2394C59.0166 48.3478 57.9515 47.4739 57.8925 47.2979C57.8089 47.0464 69.0725 37.6854 71.6229 35.8829C72.1197 35.5324 72.5104 35.6491 74.6411 36.7843C75.9875 37.5015 77.0862 38.2337 77.0838 38.412C77.0777 38.8678 63.666 50.6606 63.0408 50.7763C62.7538 50.8255 61.5022 50.1364 60.2588 49.2447V49.2394ZM14.6335 44.2797L13 42.6254L13.7251 42.1555C14.1239 41.8971 22.2192 37.4818 31.7159 32.3427L48.9773 23L50.6282 23.8096C51.5362 24.2548 52.2791 24.77 52.2791 24.9543C52.2791 25.2066 16.7837 45.932 16.3554 45.932C16.3083 45.932 15.5346 45.1876 14.6362 44.2777L14.6335 44.2797ZM41.1798 35.9396C40.3796 35.339 39.7257 34.6881 39.7269 34.4936C39.7278 34.2991 42.9638 32.2349 46.9174 29.9056L54.1056 25.6719L55.951 26.6556C56.9661 27.1967 57.7964 27.7438 57.7964 27.8712C57.7964 28.2344 43.6955 37.0507 43.1398 37.0402C42.8635 37.0356 41.9826 36.5395 41.1821 35.9388L41.1798 35.9396ZM55.5817 34.1081C54.613 33.5095 53.8231 32.8589 53.8266 32.661C53.8324 32.3271 58.7284 29.0478 59.5318 28.8394C59.9011 28.7437 63.196 30.4822 63.4622 30.9128C63.5425 31.0427 63.3702 31.3609 63.0794 31.6198C62.0846 32.5055 58.0005 35.2134 57.6717 35.2053C57.4911 35.2008 56.5505 34.7068 55.5817 34.1081Z" fill="black"/>
</g>
<defs>
<clipPath id="clip0_1152_23">
<rect width="96" height="96" fill="white"/>
</clipPath>
</defs>
</svg>
