<svg width="96" height="96" viewBox="0 0 96 96" fill="none" xmlns="http://www.w3.org/2000/svg">
<path d="M70.6565 56.0187C78.3376 51.0259 80.8507 40.8417 76.2025 32.8379C73.8736 28.8229 70.1088 25.9477 65.6047 24.7472C61.4664 23.6338 57.0612 24.0858 53.2373 26.016L48 17L37.1287 35.7241L12 79H84L70.6565 56.0187ZM64.3731 29.3335C67.647 30.2001 70.3712 32.2908 72.0681 35.2011C75.4029 40.939 73.6708 48.2163 68.2618 51.8919L55.6292 30.1373C58.3507 28.836 61.4204 28.551 64.3731 29.3335ZM48 26.5025L75.72 74.2474H59.5013L39.8862 40.4761L47.9979 26.5039L48 26.5025ZM20.28 74.2481L37.1266 45.2376L53.9746 74.2481H20.28Z" fill="url(#paint0_linear_1128_189)"/>
<defs>
<linearGradient id="paint0_linear_1128_189" x1="20.1208" y1="80.3696" x2="73.2586" y2="26.9346" gradientUnits="userSpaceOnUse">
<stop/>
<stop offset="1" stop-color="#4D4D4D"/>
</linearGradient>
</defs>
</svg>
