<svg width="96" height="96" viewBox="0 0 96 96" fill="none" xmlns="http://www.w3.org/2000/svg">
<path d="M68.0955 33.4267C68.0714 33.7988 67.8977 34.1276 67.6349 34.3557L67.6325 34.3581C67.3167 34.7013 66.8947 34.9414 66.4173 35.0254L66.4052 35.0278C66.3377 35.0374 66.2581 35.0446 66.1786 35.0446C66.1762 35.0446 66.1713 35.0446 66.1689 35.0446C65.4166 35.0446 64.7704 34.5909 64.4956 33.9404L64.4907 33.9284C64.4184 33.3979 65.2864 32.997 66.181 32.8722C67.0755 32.7473 68.0231 32.8986 68.0955 33.4267ZM44.2007 34.6605C43.9089 35.4071 43.1928 35.928 42.3537 35.928C42.3441 35.928 42.3368 35.928 42.3272 35.928H42.3296C42.2428 35.928 42.1608 35.9208 42.0764 35.9112H42.0861C41.4567 35.7984 40.9215 35.4527 40.567 34.9702L40.5622 34.963C40.3645 34.7373 40.2439 34.4373 40.2439 34.1132V34.1108C40.2729 33.926 40.3765 33.7676 40.5212 33.6667L40.5236 33.6643C40.8901 33.4627 41.329 33.3451 41.7967 33.3451C41.9969 33.3451 42.1922 33.3667 42.3802 33.4075L42.3634 33.4051C43.3158 33.5371 44.2995 33.986 44.2055 34.6605H44.2007ZM70.7671 53.0074L70.5091 52.6857L70.403 52.5537C71.5049 50.5229 72.1511 48.1056 72.1511 45.5419C72.1511 44.3705 72.016 43.2326 71.7605 42.138L71.7797 42.2388C71.611 41.1514 71.5121 39.896 71.5121 38.6189C71.5121 38.6021 71.5121 38.5853 71.5121 38.5685C71.5676 37.3659 71.6954 36.2424 71.8931 35.1406L71.869 35.2991C72.0836 34.1852 72.2065 32.9034 72.2065 31.5927C72.2065 31.4703 72.2065 31.3503 72.2041 31.2302V31.2494C72.2331 31.1318 72.2499 30.9998 72.2499 30.8606C72.2499 30.7958 72.2451 30.7333 72.2403 30.6709V30.6781C71.2758 26.8854 69.465 23.5991 67.0128 20.901L67.0297 20.9202C64.8331 18.3565 62.1326 16.2897 59.0728 14.8638L58.9282 14.8038C60.6063 14.4461 62.5353 14.242 64.5125 14.242C64.6933 14.242 64.8741 14.2444 65.055 14.2468H65.0284C65.1369 14.2444 65.2623 14.242 65.3901 14.242C71.1239 14.242 76.2308 16.9042 79.5341 21.0546L79.563 21.093C79.6306 21.1794 79.6981 21.2779 79.7559 21.3811L79.7632 21.3931C81.9429 25.4595 78.9313 40.2176 70.7646 53.0122L70.7671 53.0074ZM70.0775 31.9696C70.0389 33.0618 69.9231 34.0964 69.7399 35.107L69.7592 34.975C69.5711 35.9952 69.4361 37.2098 69.3806 38.4437L69.3782 38.5037C69.3782 38.5445 69.3782 38.5901 69.3782 38.6381C69.3782 39.9992 69.4795 41.3363 69.6772 42.6421L69.6579 42.4957C69.8629 43.4007 69.981 44.4377 69.981 45.5059C69.981 47.3375 69.6338 49.0898 68.9997 50.6957L69.0334 50.5997C68.8502 50.2853 68.6597 49.906 68.4933 49.5123L68.4668 49.4427C68.3076 49.061 67.9628 48.4441 67.4878 47.5943C65.6336 44.2817 61.2887 36.5257 63.5118 33.3619C64.6547 31.7343 67.5529 31.6647 70.075 31.972L70.0775 31.9696ZM68.3631 59.7792C68.2401 57.2851 69.1733 57.0234 70.1618 56.7473C70.2985 56.7105 70.4343 56.6697 70.5693 56.6249C70.6899 56.7305 70.8225 56.8338 70.9599 56.925L70.972 56.9322C72.4669 57.5875 74.2078 57.9668 76.0403 57.9668C77.4677 57.9668 78.8397 57.7363 80.1224 57.3091L80.0308 57.3355C79.2014 58.0388 78.2562 58.6413 77.2338 59.107L77.1591 59.1382C75.6063 59.772 73.8051 60.168 71.9196 60.228H71.8955C71.6086 60.2713 71.2782 60.2977 70.9431 60.2977C70.0124 60.2977 69.125 60.1056 68.3221 59.76L68.3655 59.7768L68.3631 59.7792ZM65.6795 64.6425C65.6288 65.173 65.571 65.7708 65.4938 66.4309L65.055 67.7463C65.0212 67.8424 65.0019 67.9528 64.9995 68.068C65.0019 68.1328 65.0019 68.2072 65.0019 68.2817C65.0019 69.1338 64.8741 69.9596 64.6378 70.7349L64.6523 70.6749C64.3726 71.6087 64.1797 72.6913 64.1146 73.8076L64.1122 73.846C63.9868 77.8884 60.845 81.1602 56.8594 81.5131L56.828 81.5155C52.2612 82.4901 51.4511 80.0248 50.7374 77.85C50.665 77.6227 50.5879 77.3963 50.5059 77.1706C50.1201 75.6055 49.8983 73.8076 49.8983 71.9592C49.8983 71.095 49.9465 70.2428 50.0405 69.4027L50.0309 69.5059C50.0454 69.1986 50.0526 68.8362 50.0526 68.4737C50.0526 66.0108 49.6813 63.6343 48.9893 61.3971L49.0351 61.5675C49.0479 60.6873 49.0672 59.796 49.093 58.8934C49.093 58.8862 49.093 58.8742 49.093 58.8646C49.093 58.7541 49.0761 58.6485 49.0447 58.5477L49.0471 58.5549C49.0134 58.3149 48.9676 58.1036 48.9073 57.8996L48.9145 57.9308C48.5746 56.6801 47.7186 55.6719 46.5902 55.1366L46.5636 55.1246C46.1393 54.9134 45.6377 54.7886 45.1049 54.7886C44.8541 54.7886 44.6106 54.815 44.3767 54.8678L44.3984 54.863C44.707 53.7347 45.0253 52.813 45.3918 51.9152L45.3291 52.0904L45.4882 51.6655C45.6667 51.1854 45.8909 50.6885 46.1296 50.1628C47.4461 47.4647 48.2153 44.2937 48.2153 40.9426C48.2153 38.6909 47.8681 36.5209 47.2243 34.4805L47.2653 34.6317C46.824 31.972 44.5286 29.9676 41.7654 29.9676C41.3314 29.9676 40.907 30.018 40.5019 30.1116L40.5405 30.1044C38.6212 30.3541 36.8852 30.9158 35.3058 31.7415L35.3902 31.7007C35.1909 31.8016 34.994 31.9056 34.7995 32.0128C35.0189 26.859 36.9599 22.1948 40.0583 18.5341L40.0293 18.5677C40.3138 18.2821 40.6128 18.0108 40.9215 17.7564L40.9432 17.7395C41.1095 17.7059 41.2566 17.6387 41.382 17.5451L41.3796 17.5475C43.5328 15.9776 46.2357 15.0342 49.1605 15.0342C49.3944 15.0342 49.6258 15.039 49.8549 15.051L49.8235 15.0486C51.0918 15.0678 52.3167 15.1542 53.5223 15.3079L53.3607 15.2911C58.2868 16.2344 62.4919 18.803 65.4938 22.4037L65.5203 22.4373C67.3239 24.5233 68.7851 26.967 69.7785 29.6339L69.8315 29.7996C69.2118 29.6339 68.5005 29.5379 67.7675 29.5379C65.3974 29.5379 63.2635 30.5365 61.7637 32.1328L61.7589 32.1376C58.769 36.3937 63.3961 44.6561 65.6192 48.6265C66.0267 49.3539 66.3787 49.9828 66.4896 50.2492C67.1165 51.6919 67.905 52.933 68.8526 54.0348L68.8357 54.0156C69.0455 54.2773 69.248 54.5293 69.4047 54.7501C68.1967 55.0958 66.0267 55.8976 66.2244 59.9016C66.1882 60.3697 66.0966 61.241 65.9736 62.3453C65.8434 62.991 65.7373 63.7784 65.6771 64.5777L65.6722 64.6449L65.6795 64.6425ZM43.4918 50.9262L43.3326 51.3487C43.0023 52.136 42.6599 53.137 42.3754 54.162L42.3296 54.3565C40.1764 54.3253 38.2426 53.4083 36.8779 51.9536L36.8731 51.9488C35.3492 50.3477 34.4137 48.18 34.4137 45.794C34.4137 45.3187 34.4499 44.853 34.5222 44.3969L34.515 44.4473C34.7488 42.7189 34.8839 40.7241 34.8839 38.6957C34.8839 37.4907 34.8356 36.2977 34.744 35.1166L34.7537 35.2727C34.7392 35.0158 34.7247 34.7902 34.7175 34.6125C36.6585 33.1458 39.1155 32.2601 41.7798 32.2601C42.0981 32.2601 42.4116 32.2721 42.7226 32.2961L42.6816 32.2937C44.0174 32.6033 45.0229 33.7051 45.182 35.0614L45.1844 35.0758C45.7583 36.8234 46.0886 38.835 46.0886 40.921C46.0886 43.96 45.387 46.8358 44.138 49.3995L44.1886 49.2843C43.9354 49.8436 43.6967 50.3717 43.4918 50.9214V50.9262ZM37.1817 62.8902C36.6874 62.7653 36.2534 62.5829 35.858 62.3453L35.8797 62.3573C36.2944 62.182 36.7839 62.0356 37.2902 61.942L37.336 61.9348C41.2036 61.1426 41.7991 60.5833 43.1036 58.9342C43.4026 58.5573 43.7401 58.1276 44.2103 57.6067C44.3068 57.4987 44.3839 57.3691 44.4297 57.225L44.4321 57.2178C44.9457 56.7642 45.2519 56.889 45.7486 57.093C46.296 57.3931 46.7011 57.8996 46.8578 58.5021L46.8602 58.5189C46.9157 58.6749 46.9494 58.8526 46.9494 59.0398C46.9494 59.3399 46.865 59.6207 46.7204 59.8584L46.7252 59.8512C45.17 61.9684 42.684 63.3295 39.8798 63.3295C38.9154 63.3295 37.9871 63.1686 37.1214 62.871L37.1817 62.8902ZM19.081 47.6303C17.5113 42.8654 16.2334 37.2122 15.4787 31.3935L15.4281 30.9158C15.281 30.1428 15.199 29.2523 15.199 28.3449C15.199 24.0096 17.1014 20.1184 20.1202 17.4539L20.1347 17.4419C25.6683 13.5459 34.7175 15.8192 38.5392 17.0506L38.5103 17.0794C34.8091 21.5731 32.5643 27.3823 32.5643 33.7099C32.5643 33.926 32.5667 34.142 32.5715 34.3581V34.3269C32.5715 34.5741 32.5908 34.9246 32.6198 35.4047C32.6993 36.3889 32.7452 37.5363 32.7452 38.6957C32.7452 40.6209 32.6198 42.5173 32.3738 44.3777L32.3979 44.1592C32.3184 44.6537 32.275 45.225 32.275 45.806C32.275 48.761 33.4372 51.4471 35.3348 53.4323L35.3299 53.4275C35.5727 53.6803 35.8258 53.918 36.0895 54.1404C35.0454 55.2543 32.7741 57.7171 30.3581 60.6121C28.6486 62.6597 27.4671 62.266 27.0789 62.1388C25.4272 61.2554 24.1324 59.8848 23.3705 58.2236L23.3488 58.1708C21.6995 55.1654 20.248 51.6703 19.1774 48.012L19.0834 47.6351L19.081 47.6303ZM82.9242 56.1688C82.8784 56.032 82.8205 55.9144 82.7506 55.8064L82.7554 55.8136C82.3359 55.0238 81.3184 54.7886 79.7198 55.1174C74.7383 56.14 72.8093 55.5111 72.1101 55.0598C76.009 49.1738 79.1459 42.3565 81.1544 35.0734L81.2726 34.5717C82.09 31.4199 83.6765 24.0024 81.6415 20.3777C81.4992 20.1088 81.3473 19.8784 81.1785 19.6623L81.1858 19.6719C77.4171 14.979 71.6664 12 65.2165 12C65.0333 12 64.85 12.0024 64.6692 12.0072H64.6957C64.5944 12.0048 64.4763 12.0048 64.3557 12.0048C61.1199 12.0048 58.0071 12.5329 55.1016 13.5051L55.3066 13.4451C54.7906 13.3491 54.2722 13.2675 53.7514 13.2002C52.5747 12.977 51.2124 12.8378 49.8187 12.8162H49.7994C49.5993 12.8066 49.3654 12.8018 49.1291 12.8018C45.9584 12.8018 43.0095 13.7475 40.5526 15.3727L40.6104 15.3367C38.028 14.3741 26.1819 10.4013 18.8495 15.5719C15.2593 18.6205 13 23.1262 13 28.16C13 29.1322 13.0844 30.0852 13.2459 31.0118L13.2315 30.9134C14.0392 37.3899 15.3509 43.2182 17.1665 48.8234L16.976 48.1416C18.1647 52.2609 19.6356 55.8256 21.4415 59.1838L21.2945 58.8862C22.3385 61.2482 24.1445 63.1206 26.3965 64.2272L26.4592 64.256C26.8643 64.3737 27.3296 64.4433 27.8119 64.4433C29.601 64.4433 31.1682 63.5047 32.0459 62.0932L32.058 62.0716C34.4716 59.1814 36.849 56.5937 37.9171 55.4511C39.1275 56.1208 40.5622 56.5337 42.0909 56.5817H42.1054L42.1078 56.5937C41.8538 56.8946 41.6054 57.2002 41.3627 57.5107C40.3404 58.8022 40.1282 59.0686 36.8417 59.7431C35.9062 59.9352 33.4227 60.4441 33.3865 62.1772C33.3865 62.1868 33.3865 62.1964 33.3865 62.2084C33.3865 62.5613 33.4902 62.8902 33.6686 63.1662L33.6638 63.159C34.4161 64.1072 35.4746 64.7866 36.6874 65.0506L36.7236 65.0578C37.6857 65.3699 38.7948 65.5499 39.9425 65.5499C42.5948 65.5499 45.0205 64.5945 46.8964 63.0102L46.8819 63.0222C46.824 64.0256 46.7927 65.2018 46.7927 66.3853C46.7927 70.5933 47.205 74.7077 47.9886 78.6877L47.9235 78.2869C48.8446 81.5827 51.82 83.9688 55.3596 84H55.3644C56.2542 83.9928 57.1149 83.8896 57.9444 83.7023L57.8648 83.7167C62.4919 83.3063 66.1376 79.6239 66.4655 75.0294L66.4679 75.0006C66.9212 72.3889 67.6783 66.3757 68.0906 62.6981C68.1099 62.5421 68.1726 62.4029 68.2642 62.2877L68.2618 62.2901C68.2642 62.2877 68.4716 62.1484 69.5494 62.3813L69.682 62.4029L70.4464 62.4701L70.4922 62.4725C70.7212 62.4821 70.9913 62.4893 71.2613 62.4893C73.7304 62.4893 76.0885 62.0092 78.2417 61.1354L78.1187 61.1786C80.0597 60.2833 83.5584 58.082 82.9242 56.1688Z" fill="black"/>
</svg>
