<svg width="96" height="96" viewBox="0 0 96 96" fill="none" xmlns="http://www.w3.org/2000/svg">
<path d="M48.2414 29.4236C34.9029 29.4236 24.0441 33.1824 24.0441 37.7243L29.7215 77.5048C29.7215 81.0155 38.0221 83.9 48.2544 83.9C58.4867 83.9 66.7874 81.0287 66.7874 77.5048L72.3733 37.7243C72.4386 33.1041 61.58 29.4236 48.2414 29.4236ZM48.2414 43.5582C41.2067 43.5582 34.9029 42.5141 30.4262 40.8435L35.9339 79.9846C35.0595 79.7496 34.2503 79.4233 33.5325 79.1102L27.9465 39.7342C27.1503 39.3296 26.4325 38.8597 25.8713 38.3768C29.5518 35.4272 38.1657 33.2607 48.15 33.2607C58.1343 33.2607 66.7613 35.3359 70.4287 38.3768C66.8526 41.4047 58.304 43.5582 48.2414 43.5582ZM73.561 34.0568C73.1563 33.4956 72.6866 32.9344 72.1254 32.5429C71.0813 31.6684 69.8153 30.9506 68.4449 30.3894C65.8868 22.154 58.304 16.2417 49.1941 16.2417H47.3669C38.2571 16.2417 30.6742 22.154 28.1161 30.3763C26.6805 31.0159 25.4798 31.6554 24.4357 32.5298C23.8744 33.0127 23.3915 33.4826 23 34.0438C24.1224 21.658 34.4983 12 47.1972 12H49.3507C61.9845 12.0131 72.3603 21.6841 73.561 34.0568Z" fill="#525252"/>
<path d="M47.3239 55.7102C47.2784 55.2519 47.0833 54.8958 46.7386 54.642C46.3939 54.3883 45.9261 54.2614 45.3352 54.2614C44.9337 54.2614 44.5947 54.3182 44.3182 54.4318C44.0417 54.5417 43.8295 54.6951 43.6818 54.892C43.5379 55.089 43.4659 55.3125 43.4659 55.5625C43.4583 55.7708 43.5019 55.9527 43.5966 56.108C43.6951 56.2633 43.8295 56.3977 44 56.5114C44.1705 56.6212 44.3674 56.7178 44.5909 56.8011C44.8144 56.8807 45.053 56.9489 45.3068 57.0057L46.3523 57.2557C46.8598 57.3693 47.3258 57.5208 47.75 57.7102C48.1742 57.8996 48.5417 58.1326 48.8523 58.4091C49.1629 58.6856 49.4034 59.0114 49.5739 59.3864C49.7481 59.7614 49.8371 60.1913 49.8409 60.6761C49.8371 61.3883 49.6553 62.0057 49.2955 62.5284C48.9394 63.0473 48.4242 63.4508 47.75 63.7386C47.0795 64.0227 46.2708 64.1648 45.3239 64.1648C44.3845 64.1648 43.5663 64.0208 42.8693 63.733C42.1761 63.4451 41.6345 63.0189 41.2443 62.4545C40.858 61.8864 40.6553 61.1837 40.6364 60.3466H43.017C43.0436 60.7367 43.1553 61.0625 43.3523 61.3239C43.553 61.5814 43.8201 61.7765 44.1534 61.9091C44.4905 62.0379 44.8712 62.1023 45.2955 62.1023C45.7121 62.1023 46.0739 62.0417 46.3807 61.9205C46.6913 61.7992 46.9318 61.6307 47.1023 61.4148C47.2727 61.1989 47.358 60.9508 47.358 60.6705C47.358 60.4091 47.2803 60.1894 47.125 60.0114C46.9735 59.8333 46.75 59.6818 46.4545 59.5568C46.1629 59.4318 45.8049 59.3182 45.3807 59.2159L44.1136 58.8977C43.1326 58.6591 42.358 58.286 41.7898 57.7784C41.2216 57.2708 40.9394 56.5871 40.9432 55.7273C40.9394 55.0227 41.1269 54.4072 41.5057 53.8807C41.8883 53.3542 42.4129 52.9432 43.0795 52.6477C43.7462 52.3523 44.5038 52.2045 45.3523 52.2045C46.2159 52.2045 46.9697 52.3523 47.6136 52.6477C48.2614 52.9432 48.7652 53.3542 49.125 53.8807C49.4848 54.4072 49.6705 55.017 49.6818 55.7102H47.3239ZM55.7287 64.1591C54.8802 64.1591 54.1245 64.0133 53.4616 63.7216C52.8026 63.4261 52.2817 63.0208 51.8991 62.5057C51.5204 61.9867 51.3253 61.3883 51.3139 60.7102H53.7912C53.8063 60.9943 53.8991 61.2443 54.0696 61.4602C54.2438 61.6723 54.4749 61.8371 54.7628 61.9545C55.0507 62.072 55.3745 62.1307 55.7344 62.1307C56.1094 62.1307 56.4408 62.0644 56.7287 61.9318C57.0166 61.7992 57.242 61.6155 57.4048 61.3807C57.5677 61.1458 57.6491 60.875 57.6491 60.5682C57.6491 60.2576 57.562 59.983 57.3878 59.7443C57.2173 59.5019 56.9711 59.3125 56.6491 59.1761C56.331 59.0398 55.9522 58.9716 55.5128 58.9716H54.4276V57.1648H55.5128C55.884 57.1648 56.2116 57.1004 56.4957 56.9716C56.7836 56.8428 57.0071 56.6648 57.1662 56.4375C57.3253 56.2064 57.4048 55.9375 57.4048 55.6307C57.4048 55.339 57.3348 55.0833 57.1946 54.8636C57.0582 54.6402 56.8651 54.4659 56.6151 54.3409C56.3688 54.2159 56.081 54.1534 55.7514 54.1534C55.4181 54.1534 55.1132 54.214 54.8366 54.3352C54.5601 54.4527 54.3385 54.6212 54.1719 54.8409C54.0052 55.0606 53.9162 55.3182 53.9048 55.6136H51.5469C51.5582 54.9432 51.7495 54.3523 52.1207 53.8409C52.492 53.3295 52.992 52.9299 53.6207 52.642C54.2533 52.3504 54.9673 52.2045 55.7628 52.2045C56.5658 52.2045 57.2685 52.3504 57.8707 52.642C58.473 52.9337 58.9408 53.3277 59.2741 53.8239C59.6113 54.3163 59.7779 54.8693 59.7741 55.483C59.7779 56.1345 59.5753 56.678 59.1662 57.1136C58.7609 57.5492 58.2325 57.8258 57.581 57.9432V58.0341C58.437 58.1439 59.0885 58.4413 59.5355 58.9261C59.9863 59.4072 60.2098 60.0095 60.206 60.733C60.2098 61.3958 60.0185 61.9848 59.6321 62.5C59.2495 63.0152 58.7211 63.4205 58.0469 63.7159C57.3726 64.0114 56.5999 64.1591 55.7287 64.1591Z" fill="white"/>
</svg>
