<svg width="96" height="96" viewBox="0 0 96 96" fill="none" xmlns="http://www.w3.org/2000/svg">
<g clip-path="url(#clip0_1127_161)">
<path d="M63.0868 27.189C60.3448 21.441 54.6868 16.893 47.7448 15.09C46.1998 14.661 44.5738 14.49 42.7738 14.4C40.1158 14.4 37.5448 14.742 34.8868 15.429C28.2868 17.403 23.6608 21.264 20.9158 24.27C17.4028 28.305 15.0898 32.511 13.7158 36.714C13.7158 36.801 13.6318 36.885 13.6318 37.059C13.5448 37.401 13.1998 38.43 13.1998 38.688C13.1128 38.859 13.1128 39.117 13.0288 39.288L12.7708 40.32C12.7708 40.404 12.7708 40.491 12.6868 40.578C10.4578 51.648 14.1568 61.581 16.3888 65.271C16.9438 66.195 17.4028 66.963 17.8588 67.671C12.8098 40.209 27.3478 27.105 43.8898 26.76C52.5478 26.589 61.2028 30.108 65.4028 37.143C65.1448 33.282 64.8898 31.137 63.0898 27.189H63.0868ZM49.6288 12C57.3448 14.145 64.3708 19.551 67.2868 26.16C71.7418 36.885 70.7158 50.445 65.8288 58.512C61.7158 65.121 55.3738 68.637 48.0868 68.553C36.7738 68.466 27.6028 59.457 27.5158 48.129C27.5158 36.801 36.4288 27.447 48.0868 27.447C49.9738 27.447 52.6918 27.708 55.7758 28.995C55.7758 28.995 53.5588 27.681 47.8618 26.799C31.4908 24.654 12.1738 37.059 16.6318 65.634C22.8028 76.62 34.6318 84.084 48.0868 84C67.8868 83.913 84.0868 67.695 83.9968 47.784C83.9998 28.734 68.4868 12.516 49.6288 12Z" fill="black"/>
</g>
<defs>
<clipPath id="clip0_1127_161">
<rect width="72" height="72" fill="white" transform="translate(12 12)"/>
</clipPath>
</defs>
</svg>
