<svg width="96" height="96" viewBox="0 0 96 96" fill="none" xmlns="http://www.w3.org/2000/svg">
<path d="M72.6029 65.6387L57.9263 57.2163C55.8645 56.037 53.2278 56.7384 52.0345 58.7866C51.5721 59.5935 51.3909 60.481 51.4784 61.3437V77.8037C51.4784 80.1561 53.4028 82.0677 55.777 82.0677C58.145 82.0677 60.0694 80.1561 60.0694 77.8037V68.3386L68.2918 73.0557C70.3536 74.2411 72.9965 73.5336 74.1836 71.4854C75.377 69.4372 74.671 66.818 72.6029 65.6387Z" fill="#4D4D4D"/>
<path d="M36.1021 47.5895C36.1271 46.0689 35.3211 44.6538 33.9965 43.8903L19.32 35.4741C18.6827 35.1079 17.9517 34.9155 17.2206 34.9155C15.7149 34.9155 14.3153 35.7162 13.5656 37.0072C12.4034 39.0057 13.097 41.5691 15.1088 42.7235L23.5686 47.5709L15.1088 52.4245C14.1341 52.9831 13.4344 53.883 13.1469 54.963C12.8533 56.0429 13.0032 57.1726 13.5656 58.1408C14.3153 59.4318 15.7149 60.2324 17.2144 60.2324C17.9517 60.2324 18.6827 60.04 19.32 59.6738L33.9965 51.2576C35.3086 50.5004 36.1146 49.0977 36.1021 47.5895Z" fill="#4D4D4D"/>
<path d="M22.6501 29.5097L37.3266 37.9259C39.0386 38.9127 41.1504 38.59 42.5 37.2804C43.356 36.4984 43.887 35.3812 43.887 34.1398V17.2702C43.887 14.9116 41.9627 13 39.5947 13C37.2204 13 35.296 14.9116 35.296 17.2702V26.8719L26.9612 22.0927C24.8994 20.9073 22.2627 21.6086 21.0694 23.6568C19.876 25.705 20.5883 28.3242 22.6501 29.5097Z" fill="#4D4D4D"/>
<path d="M55.652 48.2726C55.652 48.5953 55.4645 49.0422 55.2334 49.2781L49.4165 55.0565C49.1853 55.2861 48.7292 55.4723 48.4043 55.4723H46.9235C46.5986 55.4723 46.1425 55.2861 45.9114 55.0565L40.0882 49.2781C39.8571 49.0422 39.6696 48.5953 39.6696 48.2726V46.8016C39.6696 46.4727 39.8571 46.0258 40.0882 45.7961L45.9114 40.0115C46.1425 39.7819 46.5986 39.5957 46.9235 39.5957H48.4043C48.7292 39.5957 49.1853 39.7819 49.4165 40.0115L55.2334 45.7961C55.4645 46.0258 55.652 46.4727 55.652 46.8016V48.2726ZM50.4599 47.565V47.503C50.4599 47.2671 50.3224 46.9382 50.1538 46.7644L48.4356 45.0638C48.2669 44.89 47.9357 44.7534 47.692 44.7534H47.6296C47.3921 44.7534 47.061 44.89 46.8861 45.0638L45.1741 46.7644C45.0054 46.932 44.8679 47.2609 44.8679 47.503V47.565C44.8679 47.8071 45.0054 48.136 45.1741 48.3036L46.8861 50.0105C47.061 50.178 47.3921 50.3146 47.6296 50.3146H47.692C47.9357 50.3146 48.2669 50.178 48.4356 50.0105L50.1538 48.3036C50.3224 48.136 50.4599 47.8071 50.4599 47.565Z" fill="#4D4D4D"/>
<path d="M57.9264 37.9259L72.603 29.5097C74.6648 28.3304 75.3771 25.705 74.1837 23.6568C72.9903 21.6086 70.3537 20.9073 68.2918 22.0927L60.0695 26.8098V17.2702C60.0695 14.9116 58.1451 13 55.7771 13C53.4029 13 51.4785 14.9116 51.4785 17.2702V33.8047C51.3973 34.6612 51.566 35.555 52.0346 36.3618C53.2279 38.41 55.8646 39.1114 57.9264 37.9259Z" fill="#4D4D4D"/>
<path d="M40.2694 56.7196C39.2948 56.5334 38.2513 56.6886 37.3266 57.2161L22.6501 65.6385C20.5883 66.8178 19.876 69.437 21.0694 71.4852C22.2627 73.5396 24.8994 74.241 26.9612 73.0555L35.296 68.2764V77.8036C35.296 80.1559 37.2204 82.0675 39.5947 82.0675C41.9627 82.0675 43.887 80.1559 43.887 77.8036V60.9339C43.887 58.805 42.3188 57.0423 40.2694 56.7196Z" fill="#4D4D4D"/>
<path d="M81.7749 36.9582C80.5878 34.9038 77.9449 34.2024 75.8831 35.3879L61.2065 43.8041C59.8007 44.611 59.026 46.0882 59.051 47.5902C59.0385 49.086 59.8132 50.5445 61.2065 51.339L75.8831 59.7614C77.9449 60.9407 80.5816 60.2393 81.7749 58.1911C82.9683 56.1429 82.256 53.5237 80.1942 52.3382L71.8843 47.5715L80.1942 42.8048C82.2623 41.6256 82.9683 39.0064 81.7749 36.9582Z" fill="#4D4D4D"/>
</svg>
