<svg width="96" height="96" viewBox="0 0 96 96" fill="none" xmlns="http://www.w3.org/2000/svg">
<path d="M48 39.2985C65.112 39.2985 78.9856 35.6338 79 31.1116V74.806C79 79.3314 65.1208 83 48 83V68.7204L48.1231 68.7242L50.2429 71.007C50.9237 71.7157 51.6235 72.3326 52.3424 72.8576C53.061 73.3826 53.8125 73.7961 54.5966 74.0982C55.3807 74.4001 56.2393 74.551 57.1724 74.551L59.1372 74.426L60.4 74.1778V70.4085L59.9304 70.5566L59.3971 70.6704L58.8476 70.7408L58.3485 70.7636L56.7962 70.6452L55.4059 70.2197L54.0609 69.3821L52.65 68.0277C54.6285 67.3206 56.1709 66.1021 57.2772 64.3722C58.3865 62.6242 58.9412 60.5362 58.9412 58.1084C58.9412 55.0006 58.034 52.5015 56.2196 50.6108C54.4143 48.702 52.0543 47.7475 49.1397 47.7475L48 47.7935V39.2985ZM73.5294 22H79V25.6418C79 30.1673 65.1208 33.8358 48 33.8358V24.7313C62.0995 24.7313 73.5294 23.5086 73.5294 22ZM48.9801 51.8263C50.5484 51.8263 51.7747 52.4075 52.6591 53.5698C53.5404 54.7138 53.9812 56.3057 53.9812 58.3451C53.9812 60.3116 53.5207 61.8579 52.5999 62.9838C51.6912 64.0915 50.4466 64.6454 48.8662 64.6454L48 64.5793V51.9084L48.9801 51.8263ZM74.4047 68.4328V64.6454H66.8188V48.0388H62.1506V68.4328H74.4047Z" fill="black" fill-opacity="0.701961"/>
<path d="M48 83C30.8791 83 17 79.3417 17 74.8289V31.25C17 35.7628 30.8792 39.4211 48 39.4211V47.8529C45.3758 48.0622 43.2362 49.0375 41.5812 50.7786C39.709 52.7488 38.7729 55.3394 38.7729 58.5502C38.7729 59.9545 38.9947 61.2694 39.4385 62.495C39.8822 63.7207 40.5106 64.7884 41.3235 65.6977C42.1366 66.6071 43.1159 67.3303 44.2618 67.8676C45.384 68.3936 46.63 68.6796 48 68.7252V83ZM79 22.1711H73.5294C73.5294 20.6669 62.0995 19.4474 48 19.4474C33.9005 19.4474 22.4706 20.6669 22.4706 22.1711C22.4706 23.6754 33.9005 24.8947 48 24.8947V33.9737C30.8791 33.9737 17 30.3154 17 25.8026V22.1711C17 17.6585 30.8792 14 48 14C65.112 14 78.9856 17.6546 79 22.1711ZM22.7259 67.6246C23.4704 67.9909 24.351 68.2663 25.3676 68.4508C26.3842 68.6355 27.4563 68.7277 28.584 68.7277C29.681 68.7277 30.7235 68.6242 31.7113 68.4169C32.6989 68.2095 33.5651 67.8683 34.3099 67.3931C35.0544 66.9181 35.6439 66.2976 36.0787 65.5319C36.5132 64.7664 36.7306 63.8191 36.7306 62.6902C36.7306 61.8731 36.609 61.1568 36.3659 60.5409C36.1226 59.9249 35.7716 59.3773 35.3128 58.8976C34.8538 58.4178 34.3037 57.9873 33.6625 57.606L31.4925 56.5256L29.906 55.8153L28.7116 55.1093L27.9525 54.349C27.7747 54.0812 27.6859 53.7778 27.6859 53.4388C27.6859 53.115 27.7656 52.8223 27.9251 52.5605L28.5998 51.8863L29.669 51.4505L31.0731 51.2961L32.2629 51.3824L33.5212 51.6502L34.7521 52.1087L35.8553 52.7488V48.577C35.1624 48.3168 34.4047 48.124 33.5826 47.9983L30.754 47.8098C29.669 47.8098 28.6416 47.9249 27.6722 48.1548C26.7026 48.3849 25.8494 48.7449 25.1123 49.2352C24.3753 49.7255 23.7934 50.349 23.3663 51.1055C22.9392 51.8621 22.7259 52.7669 22.7259 53.8201C22.7259 55.1638 23.1117 56.3108 23.8838 57.261C24.6557 58.2114 25.8288 59.0149 27.4032 59.6715L29.1287 60.4205L30.5124 61.1831L31.4332 62.0434C31.6581 62.3536 31.7706 62.7055 31.7706 63.0988L31.5585 63.9476C31.4172 64.208 31.2022 64.4343 30.9135 64.6264L29.8353 65.078L28.3241 65.2414C27.3423 65.2414 26.3698 65.072 25.4065 64.733C24.4429 64.3941 23.5494 63.8857 22.7259 63.2077V67.6246ZM45.1416 53.643C45.8936 52.7094 46.8464 52.1459 48 51.9529V64.6001C46.8481 64.4261 45.8907 63.8757 45.1279 62.949C44.1979 61.799 43.7329 60.248 43.7329 58.296C43.7329 56.3622 44.2025 54.8113 45.1416 53.643Z" fill="black"/>
</svg>
