<svg width="96" height="96" viewBox="0 0 96 96" fill="none" xmlns="http://www.w3.org/2000/svg">
<path d="M73.8268 13.5641C70.7163 10.8048 66.9496 11.9131 63.2324 15.1947C62.6811 15.6821 62.1298 16.223 61.5825 16.8007C60.7231 17.7071 59.8735 18.721 59.0395 19.8147C58.1741 19.459 57.2279 19.2609 56.2366 19.2609H25.4099C21.3345 19.2609 18 22.5777 18 26.6312V57.2929C18 61.3465 21.3345 64.663 25.4099 64.663H47.0948C47.3552 66.0926 47.5072 67.1097 47.5072 67.1097C47.5072 67.1097 47.5266 67.3764 47.559 67.786C47.4395 70.5574 47.5113 73.4309 47.7269 76.0277C48.0131 79.466 48.5507 82.4191 49.2367 84L49.7021 83.7468C48.6954 80.6332 48.2859 76.552 48.4654 71.8452C48.7364 64.6517 50.4009 55.9758 53.4759 46.9335C58.6717 33.2832 65.8805 22.3312 72.4784 17.1005C66.465 22.5022 58.3261 39.9872 55.8901 46.4622C53.1618 53.7128 51.2292 60.5168 50.0636 67.0359C52.0733 60.9245 58.5727 58.2977 58.5727 58.2977C58.5727 58.2977 61.7609 54.3878 65.4864 48.801C63.2548 49.3065 59.5906 50.1738 58.363 50.6865C56.5528 51.4417 56.0649 51.6994 56.0649 51.6994C56.0649 51.6994 61.9293 48.1472 66.9608 46.5391C73.8805 35.6996 81.4189 20.3002 73.8268 13.5641ZM47.4868 45.4315C48.201 46.8723 48.7589 48.7109 49.1265 50.1154C49.2204 50.4764 49.3056 50.8144 49.3733 51.1022C49.5351 51.783 49.6216 52.2249 49.6216 52.2249C49.6216 52.2249 49.5648 52.0104 49.3308 51.3354C49.2864 51.2059 49.2366 51.0645 49.1777 50.8981C49.1526 50.8291 49.1179 50.7458 49.0796 50.6568C48.6646 49.6981 47.5174 47.6735 47.0122 46.7924C46.5805 48.0596 46.1987 49.2451 45.8794 50.3179C47.3371 52.9705 48.2256 57.5174 48.2256 57.5174C48.2256 57.5174 48.1484 57.2226 47.7823 56.1943C47.4568 55.2849 45.837 52.4613 45.4533 51.8015C44.797 54.212 44.5363 55.8385 44.7715 56.2359C45.1184 56.8183 45.4524 57.7236 45.7605 58.7671H25.4099C24.6067 58.7671 23.928 58.0917 23.928 57.2929V26.6313C23.928 25.8324 24.6067 25.1573 25.4099 25.1573H55.4753C51.7227 31.5193 48.7054 39.123 47.4868 45.4315Z" fill="black"/>
</svg>
