<svg width="96" height="96" viewBox="0 0 96 96" fill="none" xmlns="http://www.w3.org/2000/svg">
<path d="M66.9437 13C63.8598 14.8956 32.1746 35.5967 30.9502 45.6273C29.7484 55.4132 46.256 50.0188 40.0127 62.7348C36.105 69.4483 28.9925 75.6525 23.3861 80.9554C20.0487 84.1121 18.036 83.9991 16.0547 83.9996C14.0733 84.0001 12.0008 81.6925 12.0008 78.9428C12.0008 76.1932 12.0003 21.6233 12.0007 21.2304C12.0011 20.8376 11.9089 17.4623 13.7433 15.3799C15.5776 13.2975 17.724 13 19.1544 13C30.1062 13 53.3844 13 66.9437 13C62.3723 13 84.8983 13 66.9437 13Z" fill="#07778F"/>
<path d="M29.0563 84C32.1402 82.1044 63.8254 61.4033 65.0498 51.3727C66.2516 41.5868 49.744 46.9813 55.9873 34.2652C59.895 27.5517 67.0075 21.3475 72.6139 16.0447C75.9513 12.8879 77.964 13.0009 79.9453 13.0004C81.9267 12.9999 83.9992 15.3075 83.9992 18.0572C83.9992 20.8068 83.9997 75.3767 83.9993 75.7696C83.9989 76.1624 84.0911 79.5377 82.2567 81.6201C80.4224 83.7025 78.276 84 76.8456 84C65.8938 84 42.6156 84 29.0563 84C33.6277 84 11.1017 84 29.0563 84Z" fill="#DB572F"/>
</svg>
