<svg width="96" height="96" viewBox="0 0 96 96" fill="none" xmlns="http://www.w3.org/2000/svg">
<path d="M78.3532 28.8164L49.5245 12.3573C48.5362 11.8681 47.3831 11.8681 46.3948 12.4389L17.5653 28.898C16.6594 29.3872 16 30.3648 16 31.5055V64.4237C16 65.4829 16.6585 66.4605 17.5653 67.1128L46.4764 83.5719C47.3822 84.1427 48.6178 84.1427 49.606 83.5719L78.4347 67.1128C79.3406 66.542 80 65.5644 80 64.4237V31.5055C79.9176 30.3648 79.259 29.3057 78.3532 28.8164ZM73.7399 62.7131L47.9592 77.4616L22.1786 62.7131V33.2986L47.8768 18.5501L73.6574 33.2986V62.7131H73.7399Z" fill="#040000"/>
<path d="M28 45.0631L38.875 38.8084L38.2979 65.6131L46.5364 70L46.7012 35.1531L57 29.6299L48.4317 25L28 36.1276V45.0631Z" fill="#040000"/>
<path d="M51 70L60 66.0548V32L51 36.4277V70Z" fill="#040000"/>
</svg>
