<svg width="96" height="96" viewBox="0 0 96 96" fill="none" xmlns="http://www.w3.org/2000/svg">
<g clip-path="url(#clip0_1129_256)">
<path d="M52.6875 55.0557L52.6952 55.0187L55.2278 40.1842L52.6875 55.0557ZM70.9879 40.1481L62.7697 55.0067L71.0025 40.1472L79.9864 23.8406L70.9887 40.1489L70.9879 40.1481ZM26.6751 35.1577L31.8322 25.5791L41.2337 42.911L31.8373 25.5748L23.8597 11.0127L31.8313 25.5894L26.6751 35.1577ZM49.8782 58.8292L49.9151 58.8979L51.4079 61.6393L49.8782 58.8292ZM60.4158 30.7878L55.2278 40.179L49.4562 50.8069L55.2304 40.1833L60.4158 30.7878Z" fill="#284E64"/>
<path d="M39.7282 69.4476L47.2185 83.1718L51.3409 61.9771L39.7282 69.4476Z" fill="#4D4D4D"/>
<path d="M51.4071 61.6403L44.7976 49.4888L39.7273 69.4478L51.34 61.9764L51.4071 61.6403Z" fill="#D6D6D6"/>
<path d="M31.8149 54.8519L39.7272 69.4484L44.7975 49.4902L31.8149 54.8519Z" fill="#B9B9BA"/>
<path d="M31.8149 54.852L44.7984 49.4894L35.0307 31.4727L31.8149 54.852Z" fill="#4D4D4D"/>
<path d="M52.6875 55.0557L55.2287 40.1816L47.4857 54.4292L51.4062 61.6394L52.6875 55.0557Z" fill="#4D4D4D"/>
<path d="M23.8967 40.3156L31.815 54.852L35.0291 31.4727L23.8967 40.3156Z" fill="#B9B9BA"/>
<path d="M62.7628 55.0101L70.9853 40.1489L52.6952 55.0161L62.7628 55.0101Z" fill="#D6D6D6"/>
<path d="M31.8305 25.5771L23.895 40.3154L35.0256 31.4725L31.8305 25.5771ZM52.6944 55.0168L63.2355 25.6734L55.2278 40.1822L52.6961 55.0168H52.6944Z" fill="#D6D6D6"/>
<path d="M23.8967 40.3154L31.8313 25.5771L21.7483 36.3993L23.1491 38.9533L23.8967 40.3154Z" fill="#525252"/>
<path d="M70.987 40.1479L63.2363 25.676L52.6952 55.0151L70.987 40.1479ZM21.7491 36.3967L31.8296 25.5789L23.8581 11.0005L21.75 36.3993L21.7491 36.3967Z" fill="#525252"/>
<path d="M70.987 40.1479L71.2698 11.0125L63.2363 25.676L70.987 40.1479ZM23.8589 11.0005H8L21.75 36.3993L23.8589 11.0005Z" fill="#B9B9BA"/>
<path d="M71.2707 11V11.0129L70.9871 40.1612L87.0626 11H71.2707ZM52.6961 55.0172L47.2211 83.1703L62.7637 55.0112L52.6961 55.0172Z" fill="black"/>
</g>
<defs>
<clipPath id="clip0_1129_256">
<rect width="96" height="96" fill="white"/>
</clipPath>
</defs>
</svg>
