<svg width="96" height="96" viewBox="0 0 96 96" fill="none" xmlns="http://www.w3.org/2000/svg">
<path d="M15.943 15H32.0548C33.2135 15.0074 33.8633 15.0518 34.3956 15.3179C34.9405 15.5998 35.3915 16.0507 35.6733 16.5956C35.9928 17.2157 35.9928 18.0424 35.9928 19.6959L35.9915 41.2602C35.9837 43.1102 35.9251 44.1286 35.4854 44.7799C35.0345 45.4376 34.3393 45.8885 33.5501 46.02C32.7685 46.1503 31.8316 45.7725 30.1523 44.9967L21.3681 40.8845C18.5893 39.5597 16.9849 38.6876 15.7376 37.4708C14.3848 36.1367 13.3514 34.5208 12.7125 32.7358C12.1345 31.1083 12.0244 29.2961 12.0035 26.2126L12 18.9365C12.0074 17.7778 12.0518 17.128 12.3179 16.5956C12.5998 16.0507 13.0507 15.5998 13.5956 15.3179C14.128 15.0518 14.7909 15.0074 15.943 15ZM63.9424 15H80.062C81.2207 15.0074 81.8705 15.0518 82.4029 15.3179C82.9478 15.5998 83.3987 16.0507 83.6806 16.5956C84 17.2157 84 18.0424 84 19.6959L83.9951 26.2057C83.9741 29.2844 83.864 31.1119 83.286 32.7546C82.6472 34.5396 81.6137 36.1555 80.2609 37.4896C78.7389 38.9928 76.6345 39.9698 72.4632 41.9239L59.987 47.7299L59.9885 18.9365C59.9959 17.7778 60.0402 17.128 60.3064 16.5956C60.5882 16.0507 61.0392 15.5998 61.5841 15.3179C62.1165 15.0518 62.7793 15.0074 63.9424 15ZM47.5295 53.5358L59.987 47.7299L59.9855 76.5233C59.9781 77.682 59.9337 78.3318 59.6676 78.8641C59.3857 79.409 58.9348 79.86 58.3899 80.1418C57.7698 80.4612 56.9431 80.4612 55.2896 80.4612L39.9307 80.4598C38.772 80.4524 38.1222 80.408 37.5899 80.1418C37.045 79.86 36.594 79.409 36.3122 78.8641C35.9928 78.2441 35.9928 77.4173 35.9928 75.7639L35.9977 69.2352C36.0187 66.1565 36.1288 64.3291 36.7068 62.6863C37.3456 60.9013 38.379 59.2854 39.7319 57.9514C41.2538 56.4482 43.3582 55.4712 47.5295 53.5358Z" fill="black" fill-opacity="0.701961"/>
</svg>
