<svg width="150" height="150" viewBox="0 0 150 150" fill="none" xmlns="http://www.w3.org/2000/svg">
<g id="new-connection">
<g id="db">
<path id="Shape" fill-rule="evenodd" clip-rule="evenodd" d="M60.6546 24C37.0977 24 18 29.9623 18 37.3208V48.2512C18 55.6106 37.0977 61.571 60.6546 61.571C84.2103 61.571 103.308 55.6096 103.308 48.2512V37.3208C103.308 29.9623 84.2103 24 60.6546 24Z" fill="#4A4A4A"/>
<path id="Shape_2" fill-rule="evenodd" clip-rule="evenodd" d="M60.6646 71.3138C38.1867 71.3138 19.6551 64.9412 18.0346 56.8607C17.9573 57.2464 18.0346 78.0098 18.0346 78.0098C18.0346 86.6334 37.1213 93.6168 60.6646 93.6168C84.2067 93.6168 103.293 86.6312 103.293 78.0098C103.293 78.0098 103.341 57.2453 103.265 56.8607C101.642 64.9423 83.1413 71.3138 60.6646 71.3138Z" fill="#4A4A4A"/>
<path id="Shape_3" fill-rule="evenodd" clip-rule="evenodd" d="M60.6646 103.497C38.1868 103.497 19.6508 97.0588 18.0303 88.9065L18.0346 110.259C18.0346 118.964 37.1213 126.014 60.6646 126.014C84.2068 126.014 103.293 118.962 103.293 110.259L103.253 88.9065C101.634 97.0599 83.1424 103.497 60.6646 103.497Z" fill="#4A4A4A"/>
</g>
<path id="Vector" d="M66 67.5H61.5V72V87V91.5H66H83.5V110V114.5H88H103H107.5V110V91.5H126H130.5V87V72V67.5H126H107.5V50V45.5H103H88H83.5V50V67.5H66Z" fill="#07778F" stroke="white" stroke-width="9"/>
</g>
</svg>
