<svg width="150" height="150" viewBox="0 0 150 150" fill="none" xmlns="http://www.w3.org/2000/svg">
<g id="select-database">
<g id="db">
<path id="Shape" fill-rule="evenodd" clip-rule="evenodd" d="M83.6546 24C60.0977 24 41 29.9623 41 37.3208V48.2512C41 55.6106 60.0977 61.571 83.6546 61.571C107.21 61.571 126.308 55.6096 126.308 48.2512V37.3208C126.308 29.9623 107.21 24 83.6546 24Z" fill="#4A4A4A"/>
<path id="Shape_2" fill-rule="evenodd" clip-rule="evenodd" d="M83.6646 71.3138C61.1867 71.3138 42.6551 64.9412 41.0346 56.8607C40.9573 57.2464 41.0346 78.0098 41.0346 78.0098C41.0346 86.6334 60.1213 93.6168 83.6646 93.6168C107.207 93.6168 126.293 86.6312 126.293 78.0098C126.293 78.0098 126.341 57.2453 126.265 56.8607C124.642 64.9423 106.141 71.3138 83.6646 71.3138Z" fill="#4A4A4A"/>
<path id="Shape_3" fill-rule="evenodd" clip-rule="evenodd" d="M83.6646 103.497C61.1868 103.497 42.6508 97.0588 41.0303 88.9065L41.0346 110.259C41.0346 118.964 60.1213 126.014 83.6646 126.014C107.207 126.014 126.293 118.962 126.293 110.259L126.253 88.9065C124.634 97.0599 106.142 103.497 83.6646 103.497Z" fill="#4A4A4A"/>
</g>
<g id="Vector">
<mask id="path-4-outside-1_405_36" maskUnits="userSpaceOnUse" x="2.22544" y="25.1786" width="78.4624" height="92.0494" fill="black">
<rect fill="white" x="2.22544" y="25.1786" width="78.4624" height="92.0494"/>
<path d="M17.0781 81.5286C18.6457 79.649 21.4432 79.4056 23.3333 80.982L25.0435 82.4083C25.3558 82.6689 25.8272 82.6311 26.0878 82.3187C26.3483 82.0063 26.3061 81.5402 25.9884 81.2753L22.0016 77.9502C20.1115 76.3738 19.8535 73.5777 21.4163 71.6985C22.9839 69.819 25.7813 69.5756 27.6715 71.152L31.6583 74.4771C31.9706 74.7376 32.442 74.6998 32.7026 74.3875C32.9631 74.0751 32.9209 73.609 32.6032 73.344L26.3345 68.1158C24.4443 66.5394 24.1864 63.7432 25.7491 61.8641C27.3167 59.9845 30.1142 59.7412 32.0043 61.3176L38.2731 66.5458C38.5855 66.8064 39.0568 66.7686 39.3174 66.4562C39.5779 66.1439 39.5357 65.6778 39.218 65.4128L16.9968 46.8798C15.1067 45.3034 14.8487 42.5073 16.4115 40.6282C17.979 38.7486 20.7765 38.5052 22.6666 40.0816L49.4094 62.3857C48.6185 59.2168 47.9154 53.8275 50.9309 50.2065C53.7658 46.8074 55.929 46.6948 56.9874 47.5731C59.8624 49.9709 55.8803 52.3773 62.7062 63.8696C69.5369 75.3615 69.7597 83.1242 65.0472 88.8715L58.4324 96.8027C58.3971 96.8451 58.4677 96.7604 58.4324 96.8027C51.7072 104.866 41.7903 107.898 33.6574 101.111C33.6416 101.097 33.631 101.088 33.6151 101.075L17.6626 87.7705C15.7733 86.2038 15.5154 83.4077 17.0781 81.5286V81.5286Z"/>
</mask>
<path d="M17.0781 81.5286C18.6457 79.649 21.4432 79.4056 23.3333 80.982L25.0435 82.4083C25.3558 82.6689 25.8272 82.6311 26.0878 82.3187C26.3483 82.0063 26.3061 81.5402 25.9884 81.2753L22.0016 77.9502C20.1115 76.3738 19.8535 73.5777 21.4163 71.6985C22.9839 69.819 25.7813 69.5756 27.6715 71.152L31.6583 74.4771C31.9706 74.7376 32.442 74.6998 32.7026 74.3875C32.9631 74.0751 32.9209 73.609 32.6032 73.344L26.3345 68.1158C24.4443 66.5394 24.1864 63.7432 25.7491 61.8641C27.3167 59.9845 30.1142 59.7412 32.0043 61.3176L38.2731 66.5458C38.5855 66.8064 39.0568 66.7686 39.3174 66.4562C39.5779 66.1439 39.5357 65.6778 39.218 65.4128L16.9968 46.8798C15.1067 45.3034 14.8487 42.5073 16.4115 40.6282C17.979 38.7486 20.7765 38.5052 22.6666 40.0816L49.4094 62.3857C48.6185 59.2168 47.9154 53.8275 50.9309 50.2065C53.7658 46.8074 55.929 46.6948 56.9874 47.5731C59.8624 49.9709 55.8803 52.3773 62.7062 63.8696C69.5369 75.3615 69.7597 83.1242 65.0472 88.8715L58.4324 96.8027C58.3971 96.8451 58.4677 96.7604 58.4324 96.8027C51.7072 104.866 41.7903 107.898 33.6574 101.111C33.6416 101.097 33.631 101.088 33.6151 101.075L17.6626 87.7705C15.7733 86.2038 15.5154 83.4077 17.0781 81.5286V81.5286Z" fill="#DB572F"/>
<path d="M25.9884 81.2753L31.7529 74.3636L31.7529 74.3636L25.9884 81.2753ZM22.0016 77.9502L16.2372 84.8619L16.2372 84.8619L22.0016 77.9502ZM21.4163 71.6985L14.4965 65.9438L14.5046 65.9341L21.4163 71.6985ZM32.6032 73.344L38.3677 66.4324L38.3677 66.4324L32.6032 73.344ZM26.3345 68.1158L20.57 75.0274L20.57 75.0274L26.3345 68.1158ZM25.7491 61.8641L18.8293 56.1094L18.8375 56.0996L25.7491 61.8641ZM32.0043 61.3176L26.2399 68.2292L26.2399 68.2292L32.0043 61.3176ZM38.2731 66.5458L44.0375 59.6342L44.0375 59.6342L38.2731 66.5458ZM39.218 65.4128L33.4536 72.3245L33.4536 72.3245L39.218 65.4128ZM16.9968 46.8798L22.7613 39.9682L22.7613 39.9682L16.9968 46.8798ZM16.4115 40.6282L9.49166 34.8735L9.49979 34.8637L16.4115 40.6282ZM22.6666 40.0816L16.9022 46.9933L16.9022 46.9933L22.6666 40.0816ZM49.4094 62.3857L58.1415 60.2061L64.8186 86.9565L43.645 69.2973L49.4094 62.3857ZM50.9309 50.2065L44.015 44.4471L44.0192 44.442L50.9309 50.2065ZM56.9874 47.5731L62.7346 40.647L62.7432 40.6542L62.7519 40.6614L56.9874 47.5731ZM62.7062 63.8696L54.9697 68.4682L54.9682 68.4656L62.7062 63.8696ZM65.0472 88.8715L72.0067 94.5781L71.9829 94.6071L71.9588 94.636L65.0472 88.8715ZM33.6574 101.111L39.4219 94.1989L39.4242 94.2008L33.6574 101.111ZM33.6151 101.075L27.8506 107.987L33.6151 101.075ZM17.6626 87.7705L23.4076 80.8427L23.4174 80.8508L23.4271 80.8589L17.6626 87.7705ZM17.0781 81.5286L10.1583 75.7738L10.1665 75.7641L17.0781 81.5286ZM10.1665 75.7641C14.9526 70.0254 23.4324 69.3454 29.0978 74.0704L17.5689 87.8937C19.4539 89.4658 22.3388 89.2725 23.9898 87.293L10.1665 75.7641ZM29.0978 74.0704L30.8079 75.4967L19.279 89.32L17.5689 87.8937L29.0978 74.0704ZM30.8079 75.4967C27.387 72.6436 22.1687 72.966 19.1761 76.5543L32.9994 88.0832C29.4857 92.2961 23.3247 92.6941 19.279 89.32L30.8079 75.4967ZM19.1761 76.5543C16.2181 80.1009 16.7664 85.3032 20.224 88.187L31.7529 74.3636C35.8458 77.7772 36.4784 83.9118 32.9994 88.0832L19.1761 76.5543ZM20.224 88.187L16.2372 84.8619L27.7661 71.0386L31.7529 74.3636L20.224 88.187ZM16.2372 84.8619C10.5594 80.1265 9.73727 71.6666 14.4965 65.9438L28.3361 77.4532C29.9698 75.4887 29.6636 72.6211 27.7661 71.0386L16.2372 84.8619ZM14.5046 65.9341C19.2908 60.1954 27.7706 59.5153 33.4359 64.2404L21.907 78.0637C23.792 79.6358 26.677 79.4425 28.3279 77.463L14.5046 65.9341ZM33.4359 64.2404L37.4227 67.5654L25.8938 81.3887L21.907 78.0637L33.4359 64.2404ZM37.4227 67.5654C34.0017 64.7122 28.7834 65.035 25.7909 68.623L39.6142 80.1519C36.1007 84.3647 29.9396 84.763 25.8938 81.3887L37.4227 67.5654ZM25.7909 68.623C22.833 72.1696 23.3812 77.372 26.8388 80.2557L38.3677 66.4324C42.4606 69.846 43.0932 75.9806 39.6142 80.1519L25.7909 68.623ZM26.8388 80.2557L20.57 75.0274L32.0989 61.2041L38.3677 66.4324L26.8388 80.2557ZM20.57 75.0274C14.8922 70.2921 14.0701 61.8322 18.8293 56.1094L32.6689 67.6188C34.3026 65.6543 33.9964 62.7867 32.0989 61.2041L20.57 75.0274ZM18.8375 56.0996C23.6236 50.361 32.1034 49.6809 37.7688 54.4059L26.2399 68.2292C28.1249 69.8014 31.0098 69.6081 32.6608 67.6286L18.8375 56.0996ZM37.7688 54.4059L44.0375 59.6342L32.5086 73.4575L26.2399 68.2292L37.7688 54.4059ZM44.0375 59.6342C40.6166 56.7811 35.3984 57.1036 32.4057 60.6918L46.229 72.2207C42.7153 76.4337 36.5543 76.8317 32.5086 73.4575L44.0375 59.6342ZM32.4057 60.6918C29.4478 64.2384 29.996 69.4408 33.4536 72.3245L44.9825 58.5012C49.0755 61.9148 49.708 68.0493 46.229 72.2207L32.4057 60.6918ZM33.4536 72.3245L11.2324 53.7915L22.7613 39.9682L44.9825 58.5012L33.4536 72.3245ZM11.2324 53.7915C5.55458 49.0561 4.73245 40.5962 9.49167 34.8735L23.3312 46.3829C24.965 44.4184 24.6587 41.5507 22.7613 39.9682L11.2324 53.7915ZM9.49979 34.8637C14.286 29.125 22.7658 28.445 28.4311 33.17L16.9022 46.9933C18.7872 48.5654 21.6721 48.3721 23.3231 46.3926L9.49979 34.8637ZM28.4311 33.17L55.1739 55.474L43.645 69.2973L16.9022 46.9933L28.4311 33.17ZM40.6773 64.5652C40.1647 62.5114 39.5946 59.4367 39.7525 56.0469C39.9101 52.6627 40.8352 48.2654 44.015 44.4471L57.8468 55.9659C58.011 55.7686 57.7799 55.8765 57.733 56.8844C57.6863 57.8867 57.8632 59.0911 58.1415 60.2061L40.6773 64.5652ZM44.0192 44.442C46.0143 42.0499 48.564 39.8217 51.7737 38.7495C55.2816 37.5776 59.4512 37.9225 62.7346 40.647L51.2403 54.4992C52.2386 55.3275 53.4276 55.8505 54.6481 56.0349C55.8513 56.2168 56.8364 56.036 57.477 55.822C58.6317 55.4363 58.6824 54.9639 57.8425 55.9709L44.0192 44.442ZM62.7519 40.6614C65.2258 42.7248 66.4988 45.2613 66.9832 47.8743C67.1649 48.8545 67.2179 49.7638 67.245 50.2249C67.2798 50.8178 67.2909 51.0935 67.3267 51.4788C67.4092 52.368 67.6496 54.5686 70.4442 59.2736L54.9682 68.4656C50.9369 61.6783 49.7554 56.9295 49.4038 53.143C49.331 52.3594 49.2952 51.6083 49.276 51.2809C49.249 50.8218 49.2407 50.9176 49.2848 51.1554C49.3474 51.4932 49.5142 52.1593 49.9436 52.919C50.3774 53.6865 50.8804 54.199 51.223 54.4848L62.7519 40.6614ZM70.4427 59.2711C74.2161 65.6195 76.707 71.8039 77.178 77.8227C77.6776 84.2082 75.8524 89.888 72.0067 94.5781L58.0876 83.165C58.9545 82.1077 59.3741 81.0325 59.2328 79.2269C59.0628 77.0545 58.0269 73.6116 54.9697 68.4682L70.4427 59.2711ZM71.9588 94.636L65.344 102.567L51.5207 91.0383L58.1355 83.107L71.9588 94.636ZM65.344 102.567C65.3342 102.579 65.3423 102.569 65.3353 102.578C65.3339 102.579 65.3357 102.577 65.3344 102.579C65.3337 102.58 65.3346 102.579 65.334 102.579C65.3339 102.579 65.3339 102.579 65.3339 102.579C65.3338 102.579 65.3339 102.579 65.3338 102.579C65.3338 102.579 65.3338 102.579 65.3338 102.579C52.6577 103.727 51.5105 91.0505 51.5105 91.0505C51.5105 91.0505 51.5105 91.0505 51.5105 91.0505C51.5106 91.0504 51.5105 91.0506 51.5105 91.0505C51.5106 91.0504 51.5106 91.0505 51.5106 91.0504C51.5107 91.0504 51.5107 91.0503 51.5108 91.0502C51.5115 91.0493 51.5167 91.0431 51.5207 91.0383C51.5277 91.0299 51.527 91.0308 51.5307 91.0264C51.531 91.026 51.5305 91.0265 51.5308 91.0262C51.5309 91.0261 51.5309 91.0261 51.5309 91.0261C51.5309 91.0261 51.5309 91.0261 51.5309 91.0261C51.5309 91.0261 51.5309 91.0261 51.5309 91.0261C51.5309 91.0261 51.5309 91.0261 51.5309 91.0261C51.5309 91.0261 52.6781 103.702 65.3542 102.555C65.3542 102.555 65.3542 102.555 65.3542 102.555C65.3542 102.555 65.3543 102.555 65.3542 102.555C65.3542 102.555 65.3542 102.555 65.3542 102.555C65.3542 102.555 65.3542 102.555 65.3542 102.555C65.3541 102.555 65.3541 102.555 65.3541 102.555C65.3522 102.557 65.3553 102.554 65.3527 102.557C65.3404 102.572 65.3593 102.549 65.344 102.567L51.5207 91.0383C51.5278 91.0298 51.5252 91.0329 51.5294 91.0279C51.53 91.0272 51.5299 91.0273 51.5303 91.0268C51.5308 91.0262 51.5305 91.0266 51.5308 91.0262C51.5309 91.0261 51.5309 91.0261 51.5309 91.0261C51.531 91.026 51.5309 91.0261 51.5309 91.0261C51.5309 91.0261 51.5309 91.0261 51.5309 91.0261C64.207 89.8789 65.3542 102.555 65.3542 102.555C65.3542 102.555 65.3542 102.555 65.3542 102.555C65.3542 102.555 65.3542 102.555 65.3542 102.555C65.3542 102.555 65.3542 102.555 65.3542 102.555C65.3542 102.555 65.3542 102.555 65.3541 102.555C65.3536 102.556 65.3546 102.555 65.354 102.555C65.3518 102.558 65.3496 102.561 65.344 102.567C65.3326 102.581 65.3422 102.569 65.3341 102.579C65.334 102.579 65.3341 102.579 65.334 102.579C65.334 102.579 65.334 102.579 65.3339 102.579C65.3339 102.579 65.3339 102.579 65.3339 102.579C65.3339 102.579 65.3339 102.579 65.3339 102.579C65.3338 102.579 65.3338 102.579 65.3338 102.579C65.3338 102.579 65.3338 102.579 65.3338 102.579C65.3338 102.579 64.1866 89.9033 51.5105 91.0505C51.5105 91.0505 51.5105 91.0505 51.5105 91.0505C51.5105 91.0505 51.5106 91.0504 51.5106 91.0504C51.5126 91.048 51.5095 91.0517 51.512 91.0487C51.5162 91.0437 51.5136 91.0468 51.5207 91.0383L65.344 102.567ZM65.344 102.567C61.0132 107.76 55.1945 111.901 48.4356 113.331C41.3824 114.823 34.0617 113.17 27.8907 108.02L39.4242 94.2008C41.3861 95.8382 43.0902 96.0634 44.71 95.7207C46.6241 95.3157 49.1264 93.9092 51.5207 91.0383L65.344 102.567ZM27.893 108.022C27.8843 108.015 27.8771 108.009 27.8705 108.003C27.8639 107.998 27.8578 107.993 27.8506 107.987L39.3796 94.1636C39.3882 94.1708 39.3954 94.1768 39.402 94.1823C39.4087 94.1879 39.4147 94.1929 39.4219 94.1989L27.893 108.022ZM27.8506 107.987L11.8981 94.6822L23.4271 80.8589L39.3796 94.1636L27.8506 107.987ZM11.9176 94.6983C6.20593 89.9619 5.40796 81.486 10.1583 75.7739L23.9979 87.2833C25.6228 85.3294 25.3407 82.4458 23.4076 80.8427L11.9176 94.6983Z" fill="white" mask="url(#path-4-outside-1_405_36)"/>
</g>
</g>
</svg>
