<svg width="150" height="150" viewBox="0 0 150 150" fill="none" xmlns="http://www.w3.org/2000/svg">
<g id="alt-select-database">
<g id="db">
<path id="Shape" fill-rule="evenodd" clip-rule="evenodd" d="M83.6546 24C60.0977 24 41 29.9623 41 37.3208V48.2512C41 55.6106 60.0977 61.571 83.6546 61.571C107.21 61.571 126.308 55.6096 126.308 48.2512V37.3208C126.308 29.9623 107.21 24 83.6546 24V24Z" fill="#4A4A4A"/>
<path id="Shape_2" fill-rule="evenodd" clip-rule="evenodd" d="M83.6645 71.3138C61.1867 71.3138 42.6551 64.9412 41.0346 56.8607C40.9573 57.2464 41.0346 78.0098 41.0346 78.0098C41.0346 86.6334 60.1213 93.6168 83.6645 93.6168C107.207 93.6168 126.293 86.6312 126.293 78.0098C126.293 78.0098 126.341 57.2453 126.265 56.8607C124.642 64.9423 106.141 71.3138 83.6645 71.3138V71.3138Z" fill="#4A4A4A"/>
<path id="Shape_3" fill-rule="evenodd" clip-rule="evenodd" d="M83.6646 103.497C61.1868 103.497 42.6508 97.0588 41.0303 88.9065L41.0346 110.259C41.0346 118.964 60.1213 126.014 83.6646 126.014C107.207 126.014 126.293 118.962 126.293 110.259L126.253 88.9065C124.634 97.0599 106.142 103.497 83.6646 103.497Z" fill="#4A4A4A"/>
</g>
<path id="Vector" d="M140.757 89.651C143.911 93.4434 143.386 99.0732 139.594 102.226L123.621 115.548C123.615 115.553 123.609 115.559 123.601 115.566L123.118 115.957C118.112 119.916 112.387 121.095 106.87 119.928C101.328 118.755 96.3435 115.302 92.4983 110.697L92.4962 110.697C92.4954 110.696 92.4973 110.698 92.4963 110.696L92.4769 110.673L92.4759 110.673L92.477 110.672L85.8718 102.754L85.8593 102.74L85.8479 102.725C82.747 98.943 81.2732 94.4138 81.6833 89.1733C82.0791 84.1167 84.2055 78.6183 87.7992 72.572L88.3511 71.6198C90.9613 66.9965 91.3879 64.4078 91.5284 62.8951C91.5734 62.4102 91.5914 62.0151 91.6223 61.4886C91.6494 61.0282 91.6909 60.3705 91.816 59.6951C92.1271 58.0174 92.9089 56.4485 94.5052 55.1171L94.5137 55.11C96.42 53.5282 98.9077 53.26 101.175 54.0175C103.294 54.7253 105.193 56.2786 106.899 58.3244L106.902 58.3266L107.117 58.5922C108.381 60.1938 109.148 61.9474 109.595 63.6653L128.826 47.6263C132.604 44.4756 138.242 44.9372 141.419 48.7463L141.423 48.7507L141.708 49.1128C144.547 52.9015 143.926 58.2784 140.26 61.3357L131.099 68.9757C131.447 69.2799 131.775 69.615 132.081 69.9814L132.086 69.9867L132.372 70.3479C134.008 72.5328 134.494 75.2463 133.909 77.7382C134.838 78.2555 135.69 78.9482 136.414 79.8163L136.418 79.8215L136.704 80.1827C138.339 82.3655 138.825 85.0754 138.243 87.5654C139.173 88.0829 140.027 88.7772 140.752 89.6467L137.475 92.38L140.757 89.651Z" fill="#07778F" stroke="white" stroke-width="9"/>
</g>
</svg>
