<svg width="150" height="150" viewBox="0 0 150 150" fill="none" xmlns="http://www.w3.org/2000/svg">
<g id="select-database">
<g id="db">
<path id="Shape" fill-rule="evenodd" clip-rule="evenodd" d="M83.6546 24C60.0977 24 41 29.9623 41 37.3208V48.2512C41 55.6106 60.0977 61.571 83.6546 61.571C107.21 61.571 126.308 55.6096 126.308 48.2512V37.3208C126.308 29.9623 107.21 24 83.6546 24Z" fill="#4A4A4A"/>
<path id="Shape_2" fill-rule="evenodd" clip-rule="evenodd" d="M83.6646 71.3138C61.1867 71.3138 42.6551 64.9412 41.0346 56.8607C40.9573 57.2464 41.0346 78.0098 41.0346 78.0098C41.0346 86.6334 60.1213 93.6168 83.6646 93.6168C107.207 93.6168 126.293 86.6312 126.293 78.0098C126.293 78.0098 126.341 57.2453 126.265 56.8607C124.642 64.9423 106.141 71.3138 83.6646 71.3138Z" fill="#4A4A4A"/>
<path id="Shape_3" fill-rule="evenodd" clip-rule="evenodd" d="M83.6646 103.497C61.1868 103.497 42.6508 97.0588 41.0303 88.9065L41.0346 110.259C41.0346 118.964 60.1213 126.014 83.6646 126.014C107.207 126.014 126.293 118.962 126.293 110.259L126.253 88.9065C124.634 97.0599 106.142 103.497 83.6646 103.497Z" fill="#4A4A4A"/>
</g>
<path id="Vector" d="M92.508 110.708C96.3519 115.308 101.332 118.756 106.87 119.928C112.387 121.095 118.112 119.916 123.118 115.957L123.601 115.566C123.611 115.557 123.635 115.537 123.642 115.531L123.643 115.53L139.594 102.226C143.267 99.1718 143.875 93.7932 141.042 90.0121L140.757 89.651L140.752 89.6467C140.027 88.7772 139.173 88.0829 138.243 87.5654C138.825 85.0754 138.339 82.3655 136.704 80.1827L136.418 79.8215L136.414 79.8163C135.69 78.9482 134.838 78.2555 133.909 77.7382C134.494 75.2463 134.008 72.5328 132.372 70.3479L132.086 69.9867L132.081 69.9814C131.775 69.615 131.447 69.2799 131.099 68.9757L140.26 61.3357C143.926 58.2784 144.547 52.9015 141.708 49.1128L141.423 48.7507L141.419 48.7463C138.242 44.9372 132.604 44.4756 128.826 47.6263L109.595 63.6653C109.148 61.9474 108.381 60.1938 107.117 58.5922L106.902 58.3266L106.899 58.3244C105.193 56.2786 103.294 54.7253 101.175 54.0175C98.9077 53.26 96.42 53.5282 94.5137 55.11L94.5052 55.1171C92.909 56.4483 92.1272 58.0166 91.8161 59.6941C91.6909 60.3697 91.6494 61.0281 91.6223 61.4886C91.5914 62.0151 91.5734 62.4102 91.5284 62.8951C91.3879 64.4078 90.9613 66.9965 88.3511 71.6198L87.7992 72.572C84.2055 78.6183 82.0791 84.1167 81.6833 89.1733C81.2732 94.4138 82.747 98.943 85.8479 102.725L85.8593 102.74L85.8718 102.754L92.4671 110.661L92.4994 110.37C92.7287 108.59 93.4308 107.387 94.303 106.574C93.0138 107.939 92.6121 109.719 92.5043 110.391L92.4689 110.664L92.476 110.672L92.4759 110.673C92.4772 110.675 92.4823 110.68 92.4866 110.685L92.5054 110.705M92.508 110.708C94.4575 110.872 95.8595 110.383 96.8672 109.629C94.9068 110.909 92.5551 110.713 92.5054 110.705M92.508 110.708C92.5071 110.707 92.5062 110.706 92.5054 110.705M92.508 110.708L92.507 110.709C92.5061 110.708 92.5052 110.707 92.5043 110.706M92.5054 110.705L92.5043 110.706M92.5043 110.706C92.5029 110.704 92.5004 110.702 92.4998 110.702L92.4971 110.698L92.4972 110.697L92.5043 110.706ZM92.4955 110.695L92.4936 110.694C92.4931 110.694 92.4926 110.692 92.4919 110.691L92.4955 110.695Z" fill="#DB572F" stroke="white" stroke-width="9"/>
</g>
</svg>
