<svg width="150" height="150" viewBox="0 0 150 150" fill="none" xmlns="http://www.w3.org/2000/svg">
<g id="destination-step">
<g id="db">
<path id="Shape" fill-rule="evenodd" clip-rule="evenodd" d="M95.6546 24C72.0977 24 53 29.9623 53 37.3208V48.2512C53 55.6106 72.0977 61.571 95.6546 61.571C119.21 61.571 138.308 55.6096 138.308 48.2512V37.3208C138.308 29.9623 119.21 24 95.6546 24Z" fill="#4A4A4A"/>
<path id="Shape_2" fill-rule="evenodd" clip-rule="evenodd" d="M95.6646 71.3138C73.1867 71.3138 54.6551 64.9412 53.0346 56.8607C52.9573 57.2464 53.0346 78.0098 53.0346 78.0098C53.0346 86.6334 72.1213 93.6168 95.6646 93.6168C119.207 93.6168 138.293 86.6312 138.293 78.0098C138.293 78.0098 138.341 57.2453 138.265 56.8607C136.642 64.9423 118.141 71.3138 95.6646 71.3138Z" fill="#4A4A4A"/>
<path id="Shape_3" fill-rule="evenodd" clip-rule="evenodd" d="M95.6646 103.497C73.1868 103.497 54.6508 97.0588 53.0303 88.9065L53.0346 110.259C53.0346 118.964 72.1213 126.014 95.6646 126.014C119.207 126.014 138.293 118.962 138.293 110.259L138.253 88.9065C136.634 97.0599 118.142 103.497 95.6646 103.497Z" fill="#4A4A4A"/>
</g>
<g id="master-to-slave copy">
<path id="Shape Copy 3" d="M15 74.0474V79.0474H20H47.6076V89.0703V100.098L55.9024 92.8313L81.9116 70.0465L86.1583 66.3262L81.9519 62.5604L55.9427 39.2748L47.6076 31.8125V43V53.5237H20H15V58.5237V74.0474Z" fill="#07778F" stroke="white" stroke-width="10"/>
</g>
</g>
</svg>
