<svg width="150" height="150" viewBox="0 0 150 150" fill="none" xmlns="http://www.w3.org/2000/svg">
<g id="alt-explore-step">
<g id="db">
<path id="Shape" fill-rule="evenodd" clip-rule="evenodd" d="M60.6546 24C37.0977 24 18 29.9623 18 37.3208V48.2512C18 55.6106 37.0977 61.571 60.6546 61.571C84.2103 61.571 103.308 55.6096 103.308 48.2512V37.3208C103.308 29.9623 84.2103 24 60.6546 24V24Z" fill="#4A4A4A"/>
<path id="Shape_2" fill-rule="evenodd" clip-rule="evenodd" d="M60.6645 71.3139C38.1867 71.3139 19.655 64.9413 18.0345 56.8608C17.9573 57.2466 18.0345 78.0099 18.0345 78.0099C18.0345 86.6335 37.1212 93.6169 60.6645 93.6169C84.2067 93.6169 103.293 86.6313 103.293 78.0099C103.293 78.0099 103.341 57.2455 103.265 56.8608C101.642 64.9424 83.1412 71.3139 60.6645 71.3139V71.3139Z" fill="#4A4A4A"/>
<path id="Shape_3" fill-rule="evenodd" clip-rule="evenodd" d="M60.6647 103.497C38.1868 103.497 19.6508 97.0588 18.0303 88.9065L18.0347 110.259C18.0347 118.964 37.1214 126.014 60.6647 126.014C84.2069 126.014 103.294 118.962 103.294 110.259L103.253 88.9065C101.634 97.0599 83.1425 103.497 60.6647 103.497Z" fill="#4A4A4A"/>
</g>
<path id="Vector" d="M108.5 50H73.5C66.6075 50 61 55.6075 61 62.5V87.5C61 94.3925 66.6075 100 73.5 100H108.5C115.392 100 121 94.3925 121 87.5V62.5C121 55.6075 115.392 50 108.5 50ZM66 70H76V80H66V70ZM81 70H116V80H81V70ZM116 62.5V65H81V55H108.5C112.635 55 116 58.365 116 62.5ZM73.5 55H76V65H66V62.5C66 58.365 69.365 55 73.5 55ZM66 87.5V85H76V95H73.5C69.365 95 66 91.635 66 87.5ZM108.5 95H81V85H116V87.5C116 91.635 112.635 95 108.5 95Z" fill="#07778F"/>
<path id="Vector (Stroke)" d="M108.5 40C120.915 40 131 50.0847 131 62.5V87.5C131 99.9153 120.915 110 108.5 110H73.5C61.0847 110 51 99.9153 51 87.5V62.5C51 50.0847 61.0847 40 73.5 40H108.5ZM73.5 50C66.6075 50 61 55.6075 61 62.5V87.5C61 94.3925 66.6075 100 73.5 100H108.5C115.392 100 121 94.3925 121 87.5V62.5C121 55.6075 115.392 50 108.5 50H73.5ZM76 95H73.5C69.365 95 66 91.635 66 87.5V85H76V95ZM116 87.5C116 91.635 112.635 95 108.5 95H81V85H116V87.5ZM76 80H66V70H76V80ZM116 80H81V70H116V80ZM76 65H66V62.5C66 58.365 69.365 55 73.5 55H76V65ZM108.5 55C112.635 55 116 58.365 116 62.5V65H81V55H108.5Z" fill="white"/>
</g>
</svg>
