<svg width="150" height="150" viewBox="0 0 150 150" fill="none" xmlns="http://www.w3.org/2000/svg">
<g id="start-step">
<g id="db">
<path id="Shape" fill-rule="evenodd" clip-rule="evenodd" d="M60.6546 24C37.0977 24 18 29.9623 18 37.3208V48.2512C18 55.6106 37.0977 61.571 60.6546 61.571C84.2103 61.571 103.308 55.6096 103.308 48.2512V37.3208C103.308 29.9623 84.2103 24 60.6546 24V24Z" fill="#4A4A4A"/>
<path id="Shape_2" fill-rule="evenodd" clip-rule="evenodd" d="M60.6645 71.3138C38.1867 71.3138 19.655 64.9412 18.0345 56.8607C17.9573 57.2464 18.0345 78.0098 18.0345 78.0098C18.0345 86.6334 37.1212 93.6168 60.6645 93.6168C84.2067 93.6168 103.293 86.6312 103.293 78.0098C103.293 78.0098 103.341 57.2453 103.265 56.8607C101.642 64.9423 83.1412 71.3138 60.6645 71.3138V71.3138Z" fill="#4A4A4A"/>
<path id="Shape_3" fill-rule="evenodd" clip-rule="evenodd" d="M60.6647 103.497C38.1868 103.497 19.6508 97.0588 18.0303 88.9065L18.0347 110.259C18.0347 118.964 37.1214 126.014 60.6647 126.014C84.2069 126.014 103.294 118.962 103.294 110.259L103.253 88.9065C101.634 97.0599 83.1425 103.497 60.6647 103.497Z" fill="#4A4A4A"/>
</g>
<path id="Vector" d="M115.83 34.6348C119.44 34.3056 122.421 34.6303 124.535 35.0527C125.592 35.2639 126.435 35.5009 127.035 35.6934C127.335 35.7896 127.576 35.8751 127.752 35.9414C127.84 35.9746 127.913 36.0028 127.969 36.0254C127.997 36.0367 128.021 36.0464 128.041 36.0547C128.051 36.0587 128.06 36.0622 128.067 36.0654C128.071 36.067 128.075 36.0689 128.078 36.0703C128.08 36.0709 128.082 36.0718 128.083 36.0723C128.085 36.0732 128.088 36.0746 126.807 39.0664L128.088 36.0742L129.375 36.626L129.927 37.9141L126.71 39.292C129.867 37.9401 129.927 37.9162 129.929 37.918C129.929 37.9188 129.93 37.9212 129.931 37.9229C129.932 37.9262 129.934 37.9298 129.936 37.9336C129.939 37.9415 129.942 37.951 129.946 37.9609C129.954 37.9807 129.964 38.0044 129.976 38.0322C129.998 38.0883 130.027 38.1608 130.061 38.249C130.127 38.4254 130.212 38.6656 130.309 38.9658C130.501 39.566 130.736 40.4096 130.947 41.4668C131.369 43.5808 131.695 46.5616 131.365 50.1709C130.7 57.4621 127.391 67.0218 117.437 76.9766C116.134 78.2791 114.81 79.4944 113.477 80.6309L110.946 86.2041L101.754 106.447L98.4639 113.693L95.3467 106.371L90.3623 94.6582L90.2568 94.7646L78.1768 106.845L77.1514 107.869H58.1309V88.8486L59.1553 87.8232L71.2354 75.7441L71.3408 75.6377L59.6299 70.6543L52.3066 67.5371L59.5527 64.2461L79.7969 55.0537L85.3906 52.5127C86.5179 51.1816 87.7259 49.862 89.0234 48.5645L89.9551 47.6504C99.5733 38.4036 108.766 35.2789 115.83 34.6348ZM110.153 55.8281C108.931 54.6162 106.94 54.6188 105.722 55.8369C104.5 57.0586 104.5 59.0576 105.722 60.2793C106.943 61.5007 108.941 61.5007 110.163 60.2793C111.363 59.0797 111.377 57.0743 110.153 55.8281Z" fill="#DB572F" stroke="white" stroke-width="7"/>
</g>
</svg>
