<svg width="150" height="150" viewBox="0 0 150 150" fill="none" xmlns="http://www.w3.org/2000/svg">
<g id="source-step" clip-path="url(#clip0_318_13)">
<g id="db">
<path id="Shape" fill-rule="evenodd" clip-rule="evenodd" d="M61.6546 24C38.0977 24 19 29.9623 19 37.3208V48.2512C19 55.6106 38.0977 61.571 61.6546 61.571C85.2103 61.571 104.308 55.6096 104.308 48.2512V37.3208C104.308 29.9623 85.2103 24 61.6546 24Z" fill="#4A4A4A"/>
<path id="Shape_2" fill-rule="evenodd" clip-rule="evenodd" d="M61.6646 71.3138C39.1867 71.3138 20.6551 64.9412 19.0346 56.8607C18.9573 57.2464 19.0346 78.0098 19.0346 78.0098C19.0346 86.6334 38.1213 93.6168 61.6646 93.6168C85.2067 93.6168 104.293 86.6312 104.293 78.0098C104.293 78.0098 104.341 57.2453 104.265 56.8607C102.642 64.9423 84.1413 71.3138 61.6646 71.3138Z" fill="#4A4A4A"/>
<path id="Shape_3" fill-rule="evenodd" clip-rule="evenodd" d="M61.6646 103.497C39.1868 103.497 20.6508 97.0588 19.0303 88.9065L19.0346 110.259C19.0346 118.964 38.1213 126.014 61.6646 126.014C85.2068 126.014 104.293 118.962 104.293 110.259L104.253 88.9065C102.634 97.0599 84.1424 103.497 61.6646 103.497Z" fill="#4A4A4A"/>
</g>
<g id="master-to-slave copy">
<path id="Shape Copy 3" d="M76.5 104.047V108.547H81H109.108V119.07V128.995L116.573 122.455L142.582 99.6704L146.404 96.3222L142.618 92.9329L116.609 69.6473L109.108 62.9313V73V84.0237H81H76.5V88.5237V104.047Z" fill="#DB572F" stroke="white" stroke-width="9"/>
</g>
</g>
<defs>
<clipPath id="clip0_318_13">
<rect width="150" height="150" fill="white"/>
</clipPath>
</defs>
</svg>
