<svg width="150" height="150" viewBox="0 0 150 150" fill="none" xmlns="http://www.w3.org/2000/svg">
<g id="copy-data">
<g id="db">
<path id="Shape" d="M56.5005 22.5C44.6513 22.5 33.8623 24.0601 25.9843 26.6229C22.0536 27.9016 18.7639 29.4567 16.4254 31.2555C14.1081 33.0381 12.5 35.2454 12.5 37.8274V49.1736C12.5 51.7557 14.1081 53.9632 16.4254 55.7457C18.7639 57.5445 22.0536 59.0994 25.9844 60.378C33.8624 62.9404 44.6514 64.5 56.5005 64.5C68.3492 64.5 79.1379 62.9402 87.0158 60.3776C90.9464 59.099 94.2361 57.5441 96.5746 55.7453C98.8919 53.9629 100.5 51.7556 100.5 49.1736V37.8274C100.5 35.2454 98.8919 33.0381 96.5746 31.2555C94.2361 29.4567 90.9465 27.9016 87.0158 26.6229C79.138 24.0601 68.3492 22.5 56.5005 22.5Z" fill="#4A4A4A" stroke="#DADADA" stroke-width="3" stroke-linejoin="round"/>
<path id="Shape_2" d="M14.0344 56.3607C14.7492 56.3606 15.3648 56.8649 15.5053 57.5658C15.8087 59.0785 16.951 60.7059 19.117 62.3271C21.2661 63.9356 24.2798 65.4268 28.0116 66.6975C35.4681 69.2365 45.5513 70.8138 56.6646 70.8138C67.7773 70.8138 77.8524 69.2367 85.3012 66.698C89.0291 65.4275 92.0391 63.9364 94.1856 62.328C96.3487 60.7071 97.4905 59.0794 97.7945 57.5654C97.9353 56.8641 98.5518 56.3598 99.2671 56.3607C99.9824 56.3617 100.598 56.8676 100.737 57.5693C100.766 57.7158 100.77 57.8779 100.771 57.8909L100.771 57.8917C100.773 57.9572 100.776 58.0381 100.778 58.1284C100.782 58.3109 100.785 58.5609 100.788 58.8651C100.794 59.4749 100.799 60.3216 100.802 61.3229C100.808 63.3264 100.809 65.9602 100.808 68.5802C100.807 71.2006 100.803 73.8089 100.8 75.7619C100.798 76.7384 100.796 77.5512 100.795 78.1199L100.794 78.7798L100.794 78.9536L100.793 78.9982L100.793 79.0095V79.0098V79.0123L100.793 79.013C100.793 79.0132 100.793 79.0133 99.2934 79.0098C99.2934 87.6312 80.2067 94.6168 56.6646 94.6168C33.1213 94.6168 14.0346 87.6334 14.0346 79.0098L14.0344 56.3607ZM14.0344 56.3607C13.3196 56.3608 12.7042 56.8652 12.5638 57.5661C12.5339 57.7155 12.5294 57.8804 12.5291 57.8919C12.5291 57.8923 12.5291 57.8925 12.5291 57.8925C12.5263 57.9584 12.5241 58.0395 12.5222 58.13C12.5183 58.3127 12.5151 58.5629 12.5125 58.8671C12.5071 59.4771 12.5038 60.324 12.502 61.3253C12.4984 63.3289 12.5008 65.9627 12.5056 68.5827C12.5104 71.2031 12.5177 73.8112 12.5237 75.7641C12.5267 76.7407 12.5295 77.5534 12.5314 78.1221L12.5337 78.7819L12.5344 78.9557L12.5345 79.0003L12.5346 79.0116L12.5346 79.0128L14.0344 56.3607ZM97.7724 58C97.7714 57.9876 97.771 57.9803 97.7711 57.9797C97.7711 57.9791 97.7717 57.9853 97.7724 58ZM15.5287 57.9791C15.5287 57.9797 15.5284 57.9873 15.5273 58.0001C15.5281 57.9849 15.5286 57.9785 15.5287 57.9791Z" fill="#4A4A4A" stroke="#DADADA" stroke-width="3" stroke-linejoin="round"/>
<path id="Shape_3" d="M15.5015 88.6141C15.3511 87.8573 14.6511 87.3381 13.8832 87.4138C13.1153 87.4894 12.5301 88.1353 12.5303 88.9069L12.5346 110.259C12.5346 110.259 12.5346 110.259 12.5346 110.26C12.5347 113.027 14.057 115.477 16.3978 117.523C18.7416 119.571 22.0466 121.347 26.001 122.808C33.9213 125.735 44.7629 127.514 56.6646 127.514C68.5658 127.514 79.4072 125.734 87.3273 122.807C91.2816 121.346 94.5865 119.57 96.9303 117.522C99.271 115.477 100.793 113.027 100.793 110.259L100.793 110.256L100.753 88.9037C100.752 88.1327 100.166 87.4884 99.3986 87.4136C98.6312 87.3389 97.9322 87.8581 97.7819 88.6143C97.477 90.1498 96.3321 91.7947 94.1713 93.4299C92.0262 95.0532 89.0182 96.5583 85.2926 97.8409C77.8478 100.404 67.7765 101.997 56.6646 101.997C45.5527 101.997 35.47 100.404 28.0136 97.8403C24.282 96.5575 21.2682 95.0522 19.1187 93.4286C16.9532 91.793 15.8064 90.1482 15.5015 88.6141Z" fill="#4A4A4A" stroke="#DADADA" stroke-width="3" stroke-linejoin="round"/>
</g>
<g id="Group 5" filter="url(#filter0_d)">
<circle id="Ellipse 2" cx="95.5" cy="72.5" r="43" fill="white" stroke="#1B7ABC" stroke-width="5"/>
<g id="Shape Copy 3" filter="url(#filter1_d)">
<path fill-rule="evenodd" clip-rule="evenodd" d="M74.6364 77.3921H101.811V86.8854L117.251 72.9907L101.811 57.7727V67.5824H74.6364V77.3921Z" fill="#1B7ABC"/>
</g>
</g>
</g>
<defs>
<filter id="filter0_d" x="46" y="27" width="99" height="99" filterUnits="userSpaceOnUse" color-interpolation-filters="sRGB">
<feFlood flood-opacity="0" result="BackgroundImageFix"/>
<feColorMatrix in="SourceAlpha" type="matrix" values="0 0 0 0 0 0 0 0 0 0 0 0 0 0 0 0 0 0 127 0"/>
<feOffset dy="4"/>
<feGaussianBlur stdDeviation="2"/>
<feColorMatrix type="matrix" values="0 0 0 0 0 0 0 0 0 0 0 0 0 0 0 0 0 0 0.25 0"/>
<feBlend mode="normal" in2="BackgroundImageFix" result="effect1_dropShadow"/>
<feBlend mode="normal" in="SourceGraphic" in2="effect1_dropShadow" result="shape"/>
</filter>
<filter id="filter1_d" x="70.6364" y="57.7727" width="50.6147" height="37.1127" filterUnits="userSpaceOnUse" color-interpolation-filters="sRGB">
<feFlood flood-opacity="0" result="BackgroundImageFix"/>
<feColorMatrix in="SourceAlpha" type="matrix" values="0 0 0 0 0 0 0 0 0 0 0 0 0 0 0 0 0 0 127 0"/>
<feOffset dy="4"/>
<feGaussianBlur stdDeviation="2"/>
<feColorMatrix type="matrix" values="0 0 0 0 0 0 0 0 0 0 0 0 0 0 0 0 0 0 0.25 0"/>
<feBlend mode="normal" in2="BackgroundImageFix" result="effect1_dropShadow"/>
<feBlend mode="normal" in="SourceGraphic" in2="effect1_dropShadow" result="shape"/>
</filter>
</defs>
</svg>
