<svg width="150" height="150" viewBox="0 0 150 150" fill="none" xmlns="http://www.w3.org/2000/svg">
<g id="synchronization">
<g id="db">
<path id="Shape" d="M55.5005 22.5C43.6513 22.5 32.8623 24.0601 24.9843 26.6229C21.0536 27.9016 17.7639 29.4567 15.4254 31.2555C13.1081 33.0381 11.5 35.2454 11.5 37.8274V49.1736C11.5 51.7558 13.1081 53.9632 15.4254 55.7457C17.7639 57.5445 21.0536 59.0994 24.9844 60.378C32.8624 62.9404 43.6514 64.5 55.5005 64.5C67.3492 64.5 78.1379 62.9402 86.0158 60.3776C89.9464 59.099 93.2361 57.5441 95.5746 55.7453C97.8919 53.9629 99.5 51.7556 99.5 49.1736V37.8274C99.5 35.2454 97.8919 33.0381 95.5746 31.2555C93.2361 29.4567 89.9465 27.9016 86.0158 26.6229C78.138 24.0601 67.3492 22.5 55.5005 22.5Z" fill="#4A4A4A" stroke="#DADADA" stroke-width="3" stroke-linejoin="round"/>
<path id="Shape_2" d="M13.0344 56.3607C13.7492 56.3606 14.3648 56.8649 14.5053 57.5658C14.8087 59.0785 15.951 60.7059 18.117 62.3271C20.2661 63.9356 23.2798 65.4268 27.0116 66.6975C34.4681 69.2365 44.5513 70.8138 55.6646 70.8138C66.7773 70.8138 76.8524 69.2367 84.3012 66.698C88.0291 65.4275 91.0391 63.9364 93.1856 62.328C95.3487 60.7071 96.4905 59.0794 96.7945 57.5654C96.9353 56.8641 97.5518 56.3598 98.2671 56.3607C98.9824 56.3617 99.5976 56.8676 99.7365 57.5693C99.7656 57.7158 99.7702 57.8779 99.7705 57.8909L99.7706 57.8917C99.7733 57.9572 99.7756 58.0381 99.7776 58.1284C99.7817 58.3109 99.7851 58.5609 99.7881 58.8651C99.7942 59.4749 99.7986 60.3216 99.8017 61.3229C99.8079 63.3264 99.8091 65.9602 99.8078 68.5802C99.8066 71.2006 99.803 73.8089 99.7997 75.7619C99.7981 76.7384 99.7965 77.5512 99.7953 78.1199L99.7939 78.7798L99.7936 78.9536L99.7935 78.9982L99.7934 79.0095V79.0098V79.0123L99.7934 79.013C99.7934 79.0132 99.7934 79.0133 98.2934 79.0098C98.2934 87.6312 79.2067 94.6168 55.6646 94.6168C32.1213 94.6168 13.0346 87.6334 13.0346 79.0098L13.0344 56.3607ZM13.0344 56.3607C12.3196 56.3608 11.7042 56.8652 11.5638 57.5661C11.5339 57.7155 11.5294 57.8804 11.5291 57.8919C11.5291 57.8923 11.5291 57.8925 11.5291 57.8925C11.5263 57.9584 11.5241 58.0395 11.5222 58.13C11.5183 58.3127 11.5151 58.5629 11.5125 58.8671C11.5071 59.4771 11.5038 60.324 11.502 61.3253C11.4984 63.3289 11.5008 65.9627 11.5056 68.5827C11.5104 71.2031 11.5177 73.8112 11.5237 75.7641C11.5267 76.7407 11.5295 77.5534 11.5314 78.1221L11.5337 78.7819L11.5344 78.9557L11.5345 79.0003L11.5346 79.0116L11.5346 79.0128L13.0344 56.3607ZM96.7724 58C96.7714 57.9876 96.771 57.9803 96.7711 57.9797C96.7711 57.9791 96.7717 57.9853 96.7724 58ZM14.5287 57.9791C14.5287 57.9797 14.5284 57.9873 14.5273 58.0001C14.5281 57.9849 14.5286 57.9785 14.5287 57.9791Z" fill="#4A4A4A" stroke="#DADADA" stroke-width="3" stroke-linejoin="round"/>
<path id="Shape_3" d="M14.5015 88.6141C14.3511 87.8573 13.6511 87.3381 12.8832 87.4138C12.1153 87.4894 11.5301 88.1353 11.5303 88.9069L11.5346 110.259C11.5346 110.259 11.5346 110.259 11.5346 110.26C11.5347 113.027 13.057 115.477 15.3978 117.523C17.7416 119.571 21.0466 121.347 25.001 122.808C32.9213 125.735 43.7629 127.514 55.6646 127.514C67.5658 127.514 78.4072 125.734 86.3273 122.807C90.2816 121.346 93.5865 119.57 95.9303 117.522C98.271 115.477 99.7935 113.027 99.7935 110.259L99.7935 110.256L99.7532 88.9037C99.7518 88.1327 99.166 87.4884 98.3986 87.4136C97.6312 87.3389 96.9322 87.8581 96.7819 88.6143C96.477 90.1498 95.3321 91.7947 93.1713 93.4299C91.0262 95.0532 88.0182 96.5583 84.2926 97.8409C76.8478 100.404 66.7765 101.997 55.6646 101.997C44.5527 101.997 34.47 100.404 27.0136 97.8403C23.282 96.5575 20.2682 95.0522 18.1187 93.4286C15.9532 91.793 14.8064 90.1482 14.5015 88.6141Z" fill="#4A4A4A" stroke="#DADADA" stroke-width="3" stroke-linejoin="round"/>
</g>
<g id="Group 5" filter="url(#filter0_d)">
<circle id="Ellipse 2" cx="96.5" cy="72.5" r="43" fill="white" stroke="#8C0115" stroke-width="5"/>
<g id="Shape_4" filter="url(#filter1_d)">
<path fill-rule="evenodd" clip-rule="evenodd" d="M79.0328 83.0426C82.6256 88.8643 89.1044 92.75 96.5001 92.75C105.406 92.75 112.983 87.115 115.791 79.25H122.914C119.886 90.8953 109.208 99.5 96.5001 99.5C87.2275 99.5 79.0358 94.9188 74.1082 87.9179L65.8182 96.125V75.875H86.2728L79.0328 83.0426ZM113.97 61.9546C110.376 56.1344 103.896 52.25 96.5001 52.25C87.5917 52.25 80.0131 57.885 77.2043 65.75H70.0796C73.108 54.1047 83.7887 45.5 96.5001 45.5C105.774 45.5 113.966 50.0797 118.895 57.0787L127.182 48.875V69.125H106.727L113.97 61.9546Z" fill="#8C0115"/>
</g>
</g>
</g>
<defs>
<filter id="filter0_d" x="47" y="27" width="99" height="99" filterUnits="userSpaceOnUse" color-interpolation-filters="sRGB">
<feFlood flood-opacity="0" result="BackgroundImageFix"/>
<feColorMatrix in="SourceAlpha" type="matrix" values="0 0 0 0 0 0 0 0 0 0 0 0 0 0 0 0 0 0 127 0"/>
<feOffset dy="4"/>
<feGaussianBlur stdDeviation="2"/>
<feColorMatrix type="matrix" values="0 0 0 0 0 0 0 0 0 0 0 0 0 0 0 0 0 0 0.25 0"/>
<feBlend mode="normal" in2="BackgroundImageFix" result="effect1_dropShadow"/>
<feBlend mode="normal" in="SourceGraphic" in2="effect1_dropShadow" result="shape"/>
</filter>
<filter id="filter1_d" x="61.8182" y="45.5" width="69.3636" height="62" filterUnits="userSpaceOnUse" color-interpolation-filters="sRGB">
<feFlood flood-opacity="0" result="BackgroundImageFix"/>
<feColorMatrix in="SourceAlpha" type="matrix" values="0 0 0 0 0 0 0 0 0 0 0 0 0 0 0 0 0 0 127 0"/>
<feOffset dy="4"/>
<feGaussianBlur stdDeviation="2"/>
<feColorMatrix type="matrix" values="0 0 0 0 0 0 0 0 0 0 0 0 0 0 0 0 0 0 0.25 0"/>
<feBlend mode="normal" in2="BackgroundImageFix" result="effect1_dropShadow"/>
<feBlend mode="normal" in="SourceGraphic" in2="effect1_dropShadow" result="shape"/>
</filter>
</defs>
</svg>
